<svg xmlns="http://www.w3.org/2000/svg" xmlns:xlink="http://www.w3.org/1999/xlink" viewBox="0 0 20.73 20.73"><defs><style>.cls-1{fill:url(#Degradado_sin_nombre_44);}.cls-2{fill:url(#Degradado_sin_nombre_44-2);}.cls-3{fill:url(#Degradado_sin_nombre_44-3);}.cls-4{fill:#fff;}.cls-14,.cls-15,.cls-19,.cls-25,.cls-34,.cls-38,.cls-4{opacity:0.5;}.cls-14,.cls-19,.cls-25,.cls-34,.cls-38,.cls-4{isolation:isolate;}.cls-5{fill:#7c411e;}.cls-6{fill:url(#Degradado_sin_nombre_35);}.cls-7{fill:url(#Degradado_sin_nombre_35-2);}.cls-8{fill:url(#Degradado_sin_nombre_35-3);}.cls-9{fill:url(#Degradado_sin_nombre_35-4);}.cls-10{fill:url(#Degradado_sin_nombre_35-5);}.cls-11{fill:url(#Degradado_sin_nombre_37);}.cls-12{fill:url(#Degradado_sin_nombre_37-2);}.cls-13{fill:url(#Degradado_sin_nombre_44-4);}.cls-14{fill:url(#Degradado_sin_nombre_42);}.cls-16{fill:url(#Degradado_sin_nombre_42-2);}.cls-17{fill:url(#Degradado_sin_nombre_42-3);}.cls-18{fill:url(#Degradado_sin_nombre_42-4);}.cls-19{fill:url(#Degradado_sin_nombre_43);}.cls-20{fill:url(#Degradado_sin_nombre_44-5);}.cls-21{opacity:0.6;}.cls-22{fill:url(#Degradado_sin_nombre_67);}.cls-23{fill:url(#Degradado_sin_nombre_67-2);}.cls-24{fill:url(#Degradado_sin_nombre_67-3);}.cls-25{fill:url(#Degradado_sin_nombre_67-4);}.cls-26{fill:url(#Degradado_sin_nombre_67-5);}.cls-27{fill:url(#Degradado_sin_nombre_67-7);}.cls-28{fill:url(#Degradado_sin_nombre_67-9);}.cls-29{fill:url(#Degradado_sin_nombre_67-11);}.cls-30{fill:url(#Degradado_sin_nombre_67-13);}.cls-31{fill:url(#Degradado_sin_nombre_67-15);}.cls-32{fill:url(#Degradado_sin_nombre_67-16);}.cls-33{fill:url(#Degradado_sin_nombre_67-17);}.cls-34{fill:url(#Degradado_sin_nombre_67-18);}.cls-35{fill:url(#Degradado_sin_nombre_67-19);}.cls-36{fill:url(#Degradado_sin_nombre_67-20);}.cls-37{fill:url(#Degradado_sin_nombre_67-21);}.cls-38{fill:url(#Degradado_sin_nombre_67-22);}.cls-39{fill:url(#Degradado_sin_nombre_67-23);}</style><linearGradient id="Degradado_sin_nombre_44" x1="13.22" y1="87.61" x2="7.15" y2="87.61" gradientTransform="matrix(1, 0, 0, -1, 0, 102.08)" gradientUnits="userSpaceOnUse"><stop offset="0" stop-color="#a2682a"/><stop offset="0.08" stop-color="#be8c3c"/><stop offset="0.18" stop-color="#be8c3c"/><stop offset="0.27" stop-color="#d3b15f"/><stop offset="0.34" stop-color="#faf0a0"/><stop offset="0.41" stop-color="#ffffc2"/><stop offset="0.48" stop-color="#faf0a0"/><stop offset="0.59" stop-color="#d3b15f"/><stop offset="0.67" stop-color="#be8c3c"/><stop offset="0.77" stop-color="#b17b32"/><stop offset="0.83" stop-color="#bb8332"/><stop offset="0.88" stop-color="#d4a245"/><stop offset="0.93" stop-color="#e1b453"/><stop offset="1" stop-color="#a4692a"/></linearGradient><linearGradient id="Degradado_sin_nombre_44-2" x1="16.61" y1="94.15" x2="7.32" y2="94.15" xlink:href="#Degradado_sin_nombre_44"/><linearGradient id="Degradado_sin_nombre_44-3" x1="15.14" y1="89.85" x2="6.79" y2="89.85" xlink:href="#Degradado_sin_nombre_44"/><linearGradient id="Degradado_sin_nombre_35" x1="1.71" y1="95.21" x2="22.22" y2="95.21" gradientTransform="matrix(1, 0, 0, -1, 0, 102.08)" gradientUnits="userSpaceOnUse"><stop offset="0" stop-color="#35190b"/><stop offset="0.16" stop-color="#d0b075"/><stop offset="0.26" stop-color="#b3945c"/><stop offset="0.38" stop-color="#967742"/><stop offset="0.48" stop-color="#836533"/><stop offset="0.56" stop-color="#7d5f2d"/><stop offset="0.61" stop-color="#866835"/><stop offset="0.7" stop-color="#a0814b"/><stop offset="0.82" stop-color="#c8a96e"/><stop offset="0.84" stop-color="#d0b075"/><stop offset="1" stop-color="#7d5f2d"/></linearGradient><linearGradient id="Degradado_sin_nombre_35-2" x1="0.28" y1="96.32" x2="24.2" y2="96.32" xlink:href="#Degradado_sin_nombre_35"/><linearGradient id="Degradado_sin_nombre_35-3" x1="1.68" y1="93.03" x2="22.28" y2="93.03" xlink:href="#Degradado_sin_nombre_35"/><linearGradient id="Degradado_sin_nombre_35-4" x1="1.71" y1="94.57" x2="22.22" y2="94.57" xlink:href="#Degradado_sin_nombre_35"/><linearGradient id="Degradado_sin_nombre_35-5" x1="1.65" y1="96.21" x2="22.31" y2="96.21" xlink:href="#Degradado_sin_nombre_35"/><linearGradient id="Degradado_sin_nombre_37" x1="10.36" y1="87.13" x2="10.36" y2="108.27" gradientTransform="matrix(1, 0, 0, -1, 0, 102.08)" gradientUnits="userSpaceOnUse"><stop offset="0.21" stop-color="#2a0b00"/><stop offset="1" stop-color="#fffad4" stop-opacity="0"/></linearGradient><linearGradient id="Degradado_sin_nombre_37-2" x1="9" y1="87.13" x2="9" y2="108.27" xlink:href="#Degradado_sin_nombre_37"/><linearGradient id="Degradado_sin_nombre_44-4" x1="13.5" y1="95.86" x2="6.86" y2="95.86" xlink:href="#Degradado_sin_nombre_44"/><linearGradient id="Degradado_sin_nombre_42" x1="7.39" y1="94.29" x2="16.61" y2="94.29" gradientTransform="matrix(1, 0, 0, -1, 0, 102.08)" gradientUnits="userSpaceOnUse"><stop offset="0.61" stop-color="#fff"/><stop offset="1" stop-color="#fffad4" stop-opacity="0"/></linearGradient><linearGradient id="Degradado_sin_nombre_42-2" x1="7.22" y1="97.55" x2="13.5" y2="97.55" xlink:href="#Degradado_sin_nombre_42"/><linearGradient id="Degradado_sin_nombre_42-3" x1="0.67" y1="93.37" x2="0.68" y2="93.37" xlink:href="#Degradado_sin_nombre_42"/><linearGradient id="Degradado_sin_nombre_42-4" x1="6.79" y1="90.57" x2="15.14" y2="90.57" xlink:href="#Degradado_sin_nombre_42"/><linearGradient id="Degradado_sin_nombre_43" x1="8.2" y1="87.63" x2="11.31" y2="87.63" gradientTransform="matrix(1, 0, 0, -1, 0, 102.08)" gradientUnits="userSpaceOnUse"><stop offset="0" stop-color="#fff"/><stop offset="0.43" stop-color="#fffad4" stop-opacity="0"/></linearGradient><linearGradient id="Degradado_sin_nombre_44-5" x1="0" y1="91.72" x2="20.72" y2="91.72" xlink:href="#Degradado_sin_nombre_44"/><linearGradient id="Degradado_sin_nombre_67" x1="7.15" y1="87.61" x2="13.22" y2="87.61" gradientTransform="matrix(1, 0, 0, -1, 0, 102.08)" gradientUnits="userSpaceOnUse"><stop offset="0" stop-color="#717171"/><stop offset="0.26" stop-color="#e6e6e6"/><stop offset="0.37" stop-color="#fff"/><stop offset="0.48" stop-color="#e6e6e6"/><stop offset="0.52" stop-color="silver"/><stop offset="0.56" stop-color="#9d9d9d"/><stop offset="0.61" stop-color="#838383"/><stop offset="0.64" stop-color="#737373"/><stop offset="0.67" stop-color="#6e6e6e"/><stop offset="0.71" stop-color="#747474"/><stop offset="0.77" stop-color="#858585"/><stop offset="0.83" stop-color="#a2a2a2"/><stop offset="0.9" stop-color="#c9c9c9"/><stop offset="0.92" stop-color="#d9d9d9"/><stop offset="0.94" stop-color="#e0e0e0"/><stop offset="1" stop-color="#f8f8f8"/></linearGradient><linearGradient id="Degradado_sin_nombre_67-2" x1="7.32" y1="94.15" x2="16.61" y2="94.15" xlink:href="#Degradado_sin_nombre_67"/><linearGradient id="Degradado_sin_nombre_67-3" x1="6.79" y1="89.85" x2="15.14" y2="89.85" xlink:href="#Degradado_sin_nombre_67"/><linearGradient id="Degradado_sin_nombre_67-4" x1="11.46" y1="86.89" x2="13.22" y2="86.89" xlink:href="#Degradado_sin_nombre_67"/><linearGradient id="Degradado_sin_nombre_67-5" x1="6.86" y1="95.21" x2="10.29" y2="95.21" xlink:href="#Degradado_sin_nombre_67"/><linearGradient id="Degradado_sin_nombre_67-7" x1="10.29" y1="96.32" x2="10.3" y2="96.32" xlink:href="#Degradado_sin_nombre_67"/><linearGradient id="Degradado_sin_nombre_67-9" x1="7.8" y1="93.03" x2="8.17" y2="93.03" xlink:href="#Degradado_sin_nombre_67"/><linearGradient id="Degradado_sin_nombre_67-11" x1="8.17" y1="94.57" x2="13.5" y2="94.57" xlink:href="#Degradado_sin_nombre_67"/><linearGradient id="Degradado_sin_nombre_67-13" x1="10.3" y1="96.21" x2="10.33" y2="96.21" xlink:href="#Degradado_sin_nombre_67"/><linearGradient id="Degradado_sin_nombre_67-15" x1="7.22" y1="97.57" x2="13.5" y2="97.57" xlink:href="#Degradado_sin_nombre_67"/><linearGradient id="Degradado_sin_nombre_67-16" x1="7.66" y1="94.36" x2="10.33" y2="94.36" xlink:href="#Degradado_sin_nombre_67"/><linearGradient id="Degradado_sin_nombre_67-17" x1="6.86" y1="95.86" x2="13.5" y2="95.86" xlink:href="#Degradado_sin_nombre_67"/><linearGradient id="Degradado_sin_nombre_67-18" x1="7.39" y1="94.29" x2="16.61" y2="94.29" xlink:href="#Degradado_sin_nombre_67"/><linearGradient id="Degradado_sin_nombre_67-19" x1="7.22" y1="97.55" x2="13.5" y2="97.55" xlink:href="#Degradado_sin_nombre_67"/><linearGradient id="Degradado_sin_nombre_67-20" x1="0.67" y1="93.37" x2="0.68" y2="93.37" xlink:href="#Degradado_sin_nombre_67"/><linearGradient id="Degradado_sin_nombre_67-21" x1="6.79" y1="90.57" x2="15.14" y2="90.57" xlink:href="#Degradado_sin_nombre_67"/><linearGradient id="Degradado_sin_nombre_67-22" x1="8.2" y1="87.63" x2="11.32" y2="87.63" xlink:href="#Degradado_sin_nombre_67"/><linearGradient id="Degradado_sin_nombre_67-23" x1="0" y1="91.72" x2="20.73" y2="91.72" xlink:href="#Degradado_sin_nombre_67"/></defs><title>icon-platino</title><g id="Capa_2" data-name="Capa 2"><g id="Capa_1-2" data-name="Capa 1"><g id="Capa_5" data-name="Capa 5"><path class="cls-1" d="M12.14,13.44a2.06,2.06,0,0,0-1.61.64,1.7,1.7,0,0,1,1.58,0c.87.3,1,1.42.67,2.18a1.93,1.93,0,0,1-.94,1A2.89,2.89,0,0,1,9.51,17a1.82,1.82,0,0,1-1-1.81,3.79,3.79,0,0,1,.26-1.37,5.94,5.94,0,0,1,.85-1.43l.66-.86s-.07,0-.07,0a2.48,2.48,0,0,0-.48.17,5.31,5.31,0,0,0-1.06.61,3.75,3.75,0,0,0-1.11,1.63,11.38,11.38,0,0,0-.41,1.16,3.41,3.41,0,0,0,1.49,1.78,6.77,6.77,0,0,0,2.18.6,2.12,2.12,0,0,0,1.41-.37,2.81,2.81,0,0,0,.92-1.53C13.38,14.71,13,13.57,12.14,13.44Z"/><path class="cls-2" d="M15.49,6a5.05,5.05,0,0,1-1.33.37c-.89.13-1.8.12-2.7.22a3.12,3.12,0,0,0-1.91,1A10.43,10.43,0,0,0,8.24,9a4.33,4.33,0,0,0-.92,1.66c0-.1.28-.28.5-.41a3.79,3.79,0,0,1,2-.79c.76-.08,2.42.18,3.57.14a3.51,3.51,0,0,0,1.48-.34,2.6,2.6,0,0,0,.95-1,7.46,7.46,0,0,0,.51-1.51,6.15,6.15,0,0,0,.32-1.52A5,5,0,0,1,15.49,6Z"/><path class="cls-3" d="M9.85,9.74a3.5,3.5,0,0,0-2.46,1.32,4.22,4.22,0,0,0-.6,2.1A8.76,8.76,0,0,0,7,15.08a6,6,0,0,1,.73-2,5.29,5.29,0,0,1,.66-.76,4.13,4.13,0,0,1,1.06-.79A5.81,5.81,0,0,1,11.8,11a5.67,5.67,0,0,1,.71,0,5.68,5.68,0,0,0,.92.05,3.06,3.06,0,0,0,.89-.27,2,2,0,0,0,.76-1.21l.06-.2a3,3,0,0,1-1.73.49C12.26,9.91,10.6,9.66,9.85,9.74Z"/><path class="cls-4" d="M12.14,13.44a1.39,1.39,0,0,0-.68.06,1.54,1.54,0,0,1,.37,0,1.49,1.49,0,0,1,1.08,1.57,2.11,2.11,0,0,1-.1,1.06h0a2,2,0,0,1-.16.43,3.19,3.19,0,0,1-.26.38h0a2.93,2.93,0,0,0,.78-1.41C13.38,14.72,13,13.57,12.14,13.44Z"/><path class="cls-5" d="M8.93,6.79A3.07,3.07,0,0,0,7.35,8l-.49-.32L7.35,8a3.07,3.07,0,0,1,1.58-1.2,1.85,1.85,0,0,0,1.36-1A1.85,1.85,0,0,1,8.93,6.79Z"/><path class="cls-6" d="M8.93,6.79A3.07,3.07,0,0,0,7.35,8l-.49-.32L7.35,8a3.07,3.07,0,0,1,1.58-1.2,1.85,1.85,0,0,0,1.36-1A1.85,1.85,0,0,1,8.93,6.79Z"/><path class="cls-5" d="M10.3,5.77h0Z"/><path class="cls-7" d="M10.3,5.77h0Z"/><path class="cls-5" d="M8.17,8.81,7.8,9.3Z"/><path class="cls-8" d="M8.17,8.81,7.8,9.3Z"/><path class="cls-5" d="M11.39,6.38a3.1,3.1,0,0,0-1.91,1A10.43,10.43,0,0,0,8.17,8.8,10.43,10.43,0,0,1,9.48,7.37a3.1,3.1,0,0,1,1.91-1c.7-.08,1.41-.09,2.11-.15C12.8,6.29,12.09,6.3,11.39,6.38Z"/><path class="cls-9" d="M11.39,6.38a3.1,3.1,0,0,0-1.91,1A10.43,10.43,0,0,0,8.17,8.8,10.43,10.43,0,0,1,9.48,7.37a3.1,3.1,0,0,1,1.91-1c.7-.08,1.41-.09,2.11-.15C12.8,6.29,12.09,6.3,11.39,6.38Z"/><path class="cls-5" d="M10.3,5.77a.53.53,0,0,1,0,.2A.53.53,0,0,0,10.3,5.77Z"/><path class="cls-10" d="M10.3,5.77a.53.53,0,0,1,0,.2A.53.53,0,0,0,10.3,5.77Z"/><path class="cls-11" d="M10.48,2.87a4.36,4.36,0,0,1,2.17,1.49,6.75,6.75,0,0,1,.85,1.87,6.75,6.75,0,0,0-.85-1.87,4.36,4.36,0,0,0-2.17-1.49,4.94,4.94,0,0,0-2.32.23c-.11,0-.94.32-.94.32h0s.83-.27.94-.32A4.94,4.94,0,0,1,10.48,2.87Z"/><path class="cls-12" d="M9.75,6.93a1.26,1.26,0,0,0,.58-1,1.26,1.26,0,0,1-.58,1A7.77,7.77,0,0,0,8.13,8.62a8.08,8.08,0,0,0-.47.85,8.08,8.08,0,0,1,.47-.85A7.77,7.77,0,0,1,9.75,6.93Z"/><path class="cls-13" d="M9.48,7.37a3.1,3.1,0,0,1,1.91-1c.7-.08,1.41-.09,2.11-.15a6.75,6.75,0,0,0-.85-1.87,4.37,4.37,0,0,0-2.16-1.49,5.1,5.1,0,0,0-2.33.23c-.11,0-.94.32-.94.32a2.84,2.84,0,0,1,.63,1.83,4,4,0,0,1-1,2.42l.5.32a3,3,0,0,1,1.57-1.2,1.85,1.85,0,0,0,1.36-1h0a.53.53,0,0,1,0,.2,1.26,1.26,0,0,1-.58,1A7.77,7.77,0,0,0,8.13,8.62a8.08,8.08,0,0,0-.47.85l-.08.17L7.8,9.3l.37-.49A10.51,10.51,0,0,1,9.48,7.37ZM8.65,5.1A.35.35,0,1,1,9,4.75.35.35,0,0,1,8.65,5.1Z"/><path class="cls-14" d="M15.49,6a5.05,5.05,0,0,1-1.33.37c-.89.13-1.8.12-2.7.22a3.12,3.12,0,0,0-1.91,1A10.43,10.43,0,0,0,8.24,9a6.22,6.22,0,0,0-.85,1.37c.2-.31.44-.6.62-.83A11,11,0,0,1,9.38,8.09a3.31,3.31,0,0,1,2-1c.95-.1,1.9-.09,2.84-.22a5.73,5.73,0,0,0,1.07-.25l.17-.08.3-.16a2.45,2.45,0,0,0,.53-.49,1.94,1.94,0,0,0,.21-.34,1.42,1.42,0,0,0,.08-.18l0-.12v0A5.35,5.35,0,0,1,15.49,6Z"/><g class="cls-15"><path class="cls-16" d="M10.53,3.63a4.45,4.45,0,0,1,2,1.7,3.91,3.91,0,0,1,.4.94l.56,0a6.75,6.75,0,0,0-.85-1.87,4.36,4.36,0,0,0-2.17-1.49,5.08,5.08,0,0,0-2.32.23c-.11,0-.94.32-.94.32a2,2,0,0,1,.26.38l.72-.16A4.79,4.79,0,0,1,10.53,3.63Z"/><path class="cls-17" d="M.67,8.72v0h0Z"/></g><g class="cls-15"><path class="cls-18" d="M7.39,11.47a3.47,3.47,0,0,1,2.46-1.33c.75-.08,2.41.18,3.56.15A3.27,3.27,0,0,0,15,9.9c0-.11.08-.21.11-.31l.06-.2a3.05,3.05,0,0,1-1.73.49c-1.15,0-2.81-.22-3.56-.14a3.46,3.46,0,0,0-2.46,1.32,4.19,4.19,0,0,0-.6,2.1,4,4,0,0,0,0,.49v-.09A4.16,4.16,0,0,1,7.39,11.47Z"/></g><path class="cls-19" d="M8.46,13.85a3.8,3.8,0,0,0-.26,1.38,1.83,1.83,0,0,0,1,1.8,3.1,3.1,0,0,0,2.11.3A3.57,3.57,0,0,1,9.51,17a1.8,1.8,0,0,1-1-1.81,3.79,3.79,0,0,1,.26-1.37,5.58,5.58,0,0,1,.85-1.43c.21-.29.43-.58.66-.86,0,0-.07,0-.07,0l-.25.07c-.22.28-.44.56-.65.85A6,6,0,0,0,8.46,13.85Z"/><path class="cls-20" d="M10.36,0A10.37,10.37,0,1,0,20.72,10.36,10.36,10.36,0,0,0,10.36,0Zm0,19.43a9.07,9.07,0,1,1,9.07-9.07A9.07,9.07,0,0,1,10.32,19.43Z"/><g class="cls-21"><path class="cls-22" d="M12.14,13.44a2.06,2.06,0,0,0-1.61.64,1.7,1.7,0,0,1,1.58,0c.87.3,1,1.42.67,2.18a2,2,0,0,1-.93,1A2.91,2.91,0,0,1,9.51,17a1.82,1.82,0,0,1-1-1.81,3.79,3.79,0,0,1,.26-1.37,6.28,6.28,0,0,1,.85-1.43l.66-.86s-.06,0-.07,0a2.74,2.74,0,0,0-.48.17,5.31,5.31,0,0,0-1.06.61,3.75,3.75,0,0,0-1.11,1.63,11.38,11.38,0,0,0-.41,1.16,3.41,3.41,0,0,0,1.49,1.78,6.82,6.82,0,0,0,2.19.6,2.11,2.11,0,0,0,1.4-.37,2.76,2.76,0,0,0,.92-1.53C13.38,14.71,13,13.57,12.14,13.44Z"/><path class="cls-23" d="M15.49,6a5.09,5.09,0,0,1-1.32.37c-.9.13-1.81.12-2.71.22a3.12,3.12,0,0,0-1.91,1A10.36,10.36,0,0,0,8.25,9a4.22,4.22,0,0,0-.93,1.66c0-.1.28-.28.5-.41a3.79,3.79,0,0,1,2-.79c.75-.08,2.41.18,3.56.14a3.51,3.51,0,0,0,1.48-.34,2.71,2.71,0,0,0,1-1,8.1,8.1,0,0,0,.5-1.51,5.73,5.73,0,0,0,.32-1.52A5,5,0,0,1,15.49,6Z"/><path class="cls-24" d="M9.85,9.74a3.5,3.5,0,0,0-2.46,1.32,4.22,4.22,0,0,0-.6,2.1A8.76,8.76,0,0,0,7,15.08a6,6,0,0,1,.73-2,5.29,5.29,0,0,1,.66-.76,4.13,4.13,0,0,1,1.06-.79A5.81,5.81,0,0,1,11.8,11a5.61,5.61,0,0,1,.71,0,5.68,5.68,0,0,0,.92.05,3.06,3.06,0,0,0,.89-.27,2,2,0,0,0,.76-1.21l.06-.2a3,3,0,0,1-1.72.49C12.26,9.91,10.6,9.66,9.85,9.74Z"/><path class="cls-25" d="M12.14,13.44a1.4,1.4,0,0,0-.68.06,1.54,1.54,0,0,1,.37,0,1.49,1.49,0,0,1,1.08,1.57,2.11,2.11,0,0,1-.1,1.06h0a2.75,2.75,0,0,1-.17.43,2.33,2.33,0,0,1-.26.38h0a2.93,2.93,0,0,0,.78-1.41C13.38,14.72,13,13.57,12.14,13.44Z"/><path class="cls-26" d="M8.93,6.79A3,3,0,0,0,7.36,8l-.5-.32.5.32a3,3,0,0,1,1.57-1.2,1.85,1.85,0,0,0,1.36-1A1.85,1.85,0,0,1,8.93,6.79Z"/><path class="cls-26" d="M8.93,6.79A3,3,0,0,0,7.36,8l-.5-.32.5.32a3,3,0,0,1,1.57-1.2,1.85,1.85,0,0,0,1.36-1A1.85,1.85,0,0,1,8.93,6.79Z"/><path class="cls-27" d="M10.3,5.77h0Z"/><path class="cls-27" d="M10.3,5.77h0Z"/><path class="cls-28" d="M8.17,8.81,7.8,9.3Z"/><path class="cls-28" d="M8.17,8.81,7.8,9.3Z"/><path class="cls-29" d="M11.39,6.38a3.1,3.1,0,0,0-1.91,1A10.43,10.43,0,0,0,8.17,8.8,10.43,10.43,0,0,1,9.48,7.37a3.1,3.1,0,0,1,1.91-1c.7-.08,1.41-.09,2.11-.15C12.8,6.29,12.09,6.3,11.39,6.38Z"/><path class="cls-29" d="M11.39,6.38a3.1,3.1,0,0,0-1.91,1A10.43,10.43,0,0,0,8.17,8.8,10.43,10.43,0,0,1,9.48,7.37a3.1,3.1,0,0,1,1.91-1c.7-.08,1.41-.09,2.11-.15C12.8,6.29,12.09,6.3,11.39,6.38Z"/><path class="cls-30" d="M10.3,5.77a.53.53,0,0,1,0,.2A.53.53,0,0,0,10.3,5.77Z"/><path class="cls-30" d="M10.3,5.77a.53.53,0,0,1,0,.2A.53.53,0,0,0,10.3,5.77Z"/><path class="cls-31" d="M10.48,2.87a4.36,4.36,0,0,1,2.17,1.49,6.75,6.75,0,0,1,.85,1.87,6.75,6.75,0,0,0-.85-1.87,4.36,4.36,0,0,0-2.17-1.49,4.94,4.94,0,0,0-2.32.23c-.11,0-.94.32-.94.32h0s.83-.27.94-.32A4.94,4.94,0,0,1,10.48,2.87Z"/><path class="cls-32" d="M9.75,6.93a1.26,1.26,0,0,0,.58-1,1.26,1.26,0,0,1-.58,1A7.77,7.77,0,0,0,8.13,8.62a8.08,8.08,0,0,0-.47.85,8.08,8.08,0,0,1,.47-.85A7.77,7.77,0,0,1,9.75,6.93Z"/><path class="cls-33" d="M9.48,7.37a3.1,3.1,0,0,1,1.91-1c.7-.08,1.41-.09,2.11-.15a6.75,6.75,0,0,0-.85-1.87,4.37,4.37,0,0,0-2.16-1.49,5.1,5.1,0,0,0-2.33.23c-.11,0-.94.32-.94.32a2.84,2.84,0,0,1,.63,1.83,4,4,0,0,1-1,2.42l.5.32a3,3,0,0,1,1.57-1.2,1.85,1.85,0,0,0,1.36-1h0a.53.53,0,0,1,0,.2,1.26,1.26,0,0,1-.58,1A7.77,7.77,0,0,0,8.13,8.62a8.08,8.08,0,0,0-.47.85l-.08.17L7.8,9.3l.37-.49A10.51,10.51,0,0,1,9.48,7.37ZM8.65,5.1A.35.35,0,1,1,9,4.75.35.35,0,0,1,8.65,5.1Z"/><path class="cls-34" d="M15.49,6a5.09,5.09,0,0,1-1.32.37c-.9.13-1.81.12-2.71.22a3.12,3.12,0,0,0-1.91,1A10.36,10.36,0,0,0,8.25,9a5.9,5.9,0,0,0-.86,1.37c.2-.31.44-.6.62-.83A11,11,0,0,1,9.38,8.09a3.31,3.31,0,0,1,2-1c.94-.1,1.89-.09,2.83-.22a5.73,5.73,0,0,0,1.07-.25l.17-.08.3-.16a2.24,2.24,0,0,0,.53-.49,1.94,1.94,0,0,0,.21-.34.71.71,0,0,0,.08-.18l0-.12v0A5.35,5.35,0,0,1,15.49,6Z"/><g class="cls-15"><path class="cls-35" d="M10.53,3.63a4.45,4.45,0,0,1,2,1.7,3.55,3.55,0,0,1,.4.94l.56,0a6.75,6.75,0,0,0-.85-1.87,4.37,4.37,0,0,0-2.16-1.49,5.1,5.1,0,0,0-2.33.23c-.11,0-.94.32-.94.32a2,2,0,0,1,.26.38l.72-.16A4.79,4.79,0,0,1,10.53,3.63Z"/><path class="cls-36" d="M.67,8.72v0h0Z"/></g><g class="cls-15"><path class="cls-37" d="M7.39,11.47a3.47,3.47,0,0,1,2.46-1.33c.75-.08,2.41.18,3.57.15A3.35,3.35,0,0,0,15,9.9c0-.11.07-.21.1-.31l.06-.2a3,3,0,0,1-1.73.49c-1.15,0-2.81-.22-3.56-.14a3.46,3.46,0,0,0-2.46,1.32,4.19,4.19,0,0,0-.6,2.1c0,.16,0,.33,0,.49v-.09A4.16,4.16,0,0,1,7.39,11.47Z"/></g><path class="cls-38" d="M8.46,13.85a3.8,3.8,0,0,0-.26,1.38,1.83,1.83,0,0,0,1,1.8,3.12,3.12,0,0,0,2.12.3A3.59,3.59,0,0,1,9.51,17a1.8,1.8,0,0,1-1-1.81,3.79,3.79,0,0,1,.26-1.37,5.58,5.58,0,0,1,.85-1.43c.21-.29.44-.58.66-.86,0,0-.07,0-.07,0l-.25.07c-.22.28-.44.56-.65.85A6,6,0,0,0,8.46,13.85Z"/><path class="cls-39" d="M10.36,0A10.37,10.37,0,1,0,20.73,10.36,10.36,10.36,0,0,0,10.36,0Zm0,19.43a9.07,9.07,0,1,1,9.07-9.07A9.07,9.07,0,0,1,10.32,19.43Z"/></g></g></g></g></svg>