<svg xmlns="http://www.w3.org/2000/svg" xmlns:xlink="http://www.w3.org/1999/xlink" viewBox="0 0 20.73 20.72"><defs><style>.cls-1{fill:url(#Degradado_sin_nombre_107);}.cls-2{fill:url(#Degradado_sin_nombre_107-2);}.cls-3{fill:url(#Degradado_sin_nombre_107-3);}.cls-13,.cls-14,.cls-18,.cls-4{opacity:0.5;}.cls-13,.cls-18,.cls-4{isolation:isolate;}.cls-4{fill:url(#Degradado_sin_nombre_107-4);}.cls-5{fill:url(#Degradado_sin_nombre_107-5);}.cls-6{fill:url(#Degradado_sin_nombre_107-7);}.cls-7{fill:url(#Degradado_sin_nombre_107-9);}.cls-8{fill:url(#Degradado_sin_nombre_107-11);}.cls-9{fill:url(#Degradado_sin_nombre_107-13);}.cls-10{fill:url(#Degradado_sin_nombre_107-15);}.cls-11{fill:url(#Degradado_sin_nombre_107-16);}.cls-12{fill:url(#Degradado_sin_nombre_107-17);}.cls-13{fill:url(#Degradado_sin_nombre_107-18);}.cls-15{fill:url(#Degradado_sin_nombre_107-19);}.cls-16{fill:url(#Degradado_sin_nombre_107-20);}.cls-17{fill:url(#Degradado_sin_nombre_107-21);}.cls-18{fill:url(#Degradado_sin_nombre_107-22);}.cls-19{fill:url(#Degradado_sin_nombre_107-23);}</style><linearGradient id="Degradado_sin_nombre_107" x1="7.15" y1="84.99" x2="13.22" y2="84.99" gradientTransform="matrix(1, 0, 0, -1, 0, 99.46)" gradientUnits="userSpaceOnUse"><stop offset="0" stop-color="#aeadb3"/><stop offset="0" stop-color="#d8d9dd"/><stop offset="0.12" stop-color="#9799a0"/><stop offset="0.17" stop-color="#b1b2b7"/><stop offset="0.25" stop-color="#dbdcde"/><stop offset="0.31" stop-color="#f5f5f6"/><stop offset="0.35" stop-color="#fff"/><stop offset="0.4" stop-color="#f4f4f4"/><stop offset="0.48" stop-color="#d6d8d8"/><stop offset="0.58" stop-color="#a6a9aa"/><stop offset="0.71" stop-color="#646a6b"/><stop offset="0.75" stop-color="#505658"/><stop offset="0.8" stop-color="#747879"/><stop offset="0.89" stop-color="#b2b4b3"/><stop offset="0.96" stop-color="#d9d9d7"/><stop offset="1" stop-color="#e8e7e5"/><stop offset="1" stop-color="#efeeed"/></linearGradient><linearGradient id="Degradado_sin_nombre_107-2" x1="7.32" y1="91.53" x2="16.61" y2="91.53" xlink:href="#Degradado_sin_nombre_107"/><linearGradient id="Degradado_sin_nombre_107-3" x1="6.78" y1="87.23" x2="15.14" y2="87.23" xlink:href="#Degradado_sin_nombre_107"/><linearGradient id="Degradado_sin_nombre_107-4" x1="11.46" y1="84.27" x2="13.21" y2="84.27" xlink:href="#Degradado_sin_nombre_107"/><linearGradient id="Degradado_sin_nombre_107-5" x1="6.86" y1="92.59" x2="10.29" y2="92.59" xlink:href="#Degradado_sin_nombre_107"/><linearGradient id="Degradado_sin_nombre_107-7" x1="10.29" y1="93.7" x2="10.3" y2="93.7" xlink:href="#Degradado_sin_nombre_107"/><linearGradient id="Degradado_sin_nombre_107-9" x1="7.8" y1="90.41" x2="8.17" y2="90.41" xlink:href="#Degradado_sin_nombre_107"/><linearGradient id="Degradado_sin_nombre_107-11" x1="8.17" y1="91.95" x2="13.5" y2="91.95" xlink:href="#Degradado_sin_nombre_107"/><linearGradient id="Degradado_sin_nombre_107-13" x1="10.3" y1="93.59" x2="10.33" y2="93.59" xlink:href="#Degradado_sin_nombre_107"/><linearGradient id="Degradado_sin_nombre_107-15" x1="7.22" y1="94.95" x2="13.5" y2="94.95" xlink:href="#Degradado_sin_nombre_107"/><linearGradient id="Degradado_sin_nombre_107-16" x1="7.66" y1="91.74" x2="10.33" y2="91.74" xlink:href="#Degradado_sin_nombre_107"/><linearGradient id="Degradado_sin_nombre_107-17" x1="6.86" y1="93.24" x2="13.5" y2="93.24" xlink:href="#Degradado_sin_nombre_107"/><linearGradient id="Degradado_sin_nombre_107-18" x1="7.39" y1="91.67" x2="16.61" y2="91.67" xlink:href="#Degradado_sin_nombre_107"/><linearGradient id="Degradado_sin_nombre_107-19" x1="7.22" y1="94.93" x2="13.5" y2="94.93" xlink:href="#Degradado_sin_nombre_107"/><linearGradient id="Degradado_sin_nombre_107-20" x1="0.67" y1="90.75" x2="0.68" y2="90.75" xlink:href="#Degradado_sin_nombre_107"/><linearGradient id="Degradado_sin_nombre_107-21" x1="6.79" y1="87.95" x2="15.14" y2="87.95" xlink:href="#Degradado_sin_nombre_107"/><linearGradient id="Degradado_sin_nombre_107-22" x1="8.2" y1="85.01" x2="11.31" y2="85.01" xlink:href="#Degradado_sin_nombre_107"/><linearGradient id="Degradado_sin_nombre_107-23" x1="0" y1="89.1" x2="20.73" y2="89.1" xlink:href="#Degradado_sin_nombre_107"/></defs><title>icon-plata</title><g id="Capa_2" data-name="Capa 2"><g id="Capa_1-2" data-name="Capa 1"><g id="Capa_5" data-name="Capa 5"><path class="cls-1" d="M12.14,13.44a2.06,2.06,0,0,0-1.61.64,1.7,1.7,0,0,1,1.58,0c.87.3,1,1.42.67,2.18a2,2,0,0,1-.94,1A2.89,2.89,0,0,1,9.51,17a1.8,1.8,0,0,1-1-1.81,3.79,3.79,0,0,1,.26-1.37,5.58,5.58,0,0,1,.85-1.43c.21-.29.44-.58.66-.86,0,0-.07,0-.07,0a2,2,0,0,0-.48.17,5.31,5.31,0,0,0-1.06.61,3.61,3.61,0,0,0-1.11,1.63,11.38,11.38,0,0,0-.41,1.16,3.34,3.34,0,0,0,1.49,1.77,6.53,6.53,0,0,0,2.18.61,2.12,2.12,0,0,0,1.41-.37,2.81,2.81,0,0,0,.92-1.53C13.38,14.71,13,13.57,12.14,13.44Z"/><path class="cls-2" d="M15.49,6a4.73,4.73,0,0,1-1.32.37c-.9.13-1.81.12-2.71.22a3.12,3.12,0,0,0-1.91,1A10.36,10.36,0,0,0,8.25,9a4.22,4.22,0,0,0-.93,1.66c0-.1.28-.28.5-.41a3.79,3.79,0,0,1,2-.79c.75-.08,2.41.18,3.56.14a3.51,3.51,0,0,0,1.48-.34,2.71,2.71,0,0,0,1-1,8.1,8.1,0,0,0,.5-1.51,5.73,5.73,0,0,0,.32-1.52A5,5,0,0,1,15.49,6Z"/><path class="cls-3" d="M9.85,9.74a3.5,3.5,0,0,0-2.46,1.32,4.22,4.22,0,0,0-.6,2.1A8.76,8.76,0,0,0,7,15.08a6,6,0,0,1,.73-2,5.92,5.92,0,0,1,.65-.76,4.5,4.5,0,0,1,1.06-.79A5.7,5.7,0,0,1,11.8,11a5.46,5.46,0,0,1,.7,0,4.86,4.86,0,0,0,.93,0,2.55,2.55,0,0,0,.89-.27,1.92,1.92,0,0,0,.76-1.2l.06-.2a3.05,3.05,0,0,1-1.73.49C12.26,9.92,10.6,9.66,9.85,9.74Z"/><path class="cls-4" d="M12.14,13.44a1.39,1.39,0,0,0-.68.06,1.15,1.15,0,0,1,.37,0,1.51,1.51,0,0,1,1.08,1.58,2.11,2.11,0,0,1-.1,1.06h0a2,2,0,0,1-.16.43,2.45,2.45,0,0,1-.26.37v0a2.93,2.93,0,0,0,.78-1.41C13.38,14.71,13,13.57,12.14,13.44Z"/><path class="cls-5" d="M8.93,6.79A3.07,3.07,0,0,0,7.35,8l-.49-.32L7.35,8a3.07,3.07,0,0,1,1.58-1.2,1.85,1.85,0,0,0,1.36-1A1.85,1.85,0,0,1,8.93,6.79Z"/><path class="cls-5" d="M8.93,6.79A3.07,3.07,0,0,0,7.35,8l-.49-.32L7.35,8a3.07,3.07,0,0,1,1.58-1.2,1.85,1.85,0,0,0,1.36-1A1.85,1.85,0,0,1,8.93,6.79Z"/><path class="cls-6" d="M10.3,5.77h0Z"/><path class="cls-6" d="M10.3,5.77h0Z"/><path class="cls-7" d="M8.17,8.8c-.1.15-.24.32-.37.5C7.93,9.12,8.07,9,8.17,8.8Z"/><path class="cls-7" d="M8.17,8.8c-.1.15-.24.32-.37.5C7.93,9.12,8.07,9,8.17,8.8Z"/><path class="cls-8" d="M11.39,6.38a3,3,0,0,0-1.91,1A9.88,9.88,0,0,0,8.17,8.8,10.43,10.43,0,0,1,9.48,7.37a3.1,3.1,0,0,1,1.91-1c.7-.08,1.41-.09,2.11-.15C12.8,6.29,12.09,6.3,11.39,6.38Z"/><path class="cls-8" d="M11.39,6.38a3,3,0,0,0-1.91,1A9.88,9.88,0,0,0,8.17,8.8,10.43,10.43,0,0,1,9.48,7.37a3.1,3.1,0,0,1,1.91-1c.7-.08,1.41-.09,2.11-.15C12.8,6.29,12.09,6.3,11.39,6.38Z"/><path class="cls-9" d="M10.3,5.77a.53.53,0,0,1,0,.2A.53.53,0,0,0,10.3,5.77Z"/><path class="cls-9" d="M10.3,5.77a.53.53,0,0,1,0,.2A.53.53,0,0,0,10.3,5.77Z"/><path class="cls-10" d="M10.48,2.87a4.36,4.36,0,0,1,2.17,1.49,6.75,6.75,0,0,1,.85,1.87,6.75,6.75,0,0,0-.85-1.87,4.36,4.36,0,0,0-2.17-1.49,4.94,4.94,0,0,0-2.32.23c-.11,0-.94.32-.94.32h0s.83-.27.94-.32A4.94,4.94,0,0,1,10.48,2.87Z"/><path class="cls-11" d="M9.75,6.93a1.27,1.27,0,0,0,.58-1,1.27,1.27,0,0,1-.58,1A8,8,0,0,0,8.13,8.61a9.34,9.34,0,0,0-.47.86,9.34,9.34,0,0,1,.47-.86A8,8,0,0,1,9.75,6.93Z"/><path class="cls-12" d="M9.48,7.37a3.07,3.07,0,0,1,1.91-1c.7-.08,1.41-.09,2.11-.15a7.06,7.06,0,0,0-.85-1.87,4.36,4.36,0,0,0-2.17-1.49,5.08,5.08,0,0,0-2.32.23c-.11,0-.94.32-.94.32a2.91,2.91,0,0,1,.63,1.83,4,4,0,0,1-1,2.42L7.35,8a3.07,3.07,0,0,1,1.58-1.2,1.85,1.85,0,0,0,1.36-1h0a.58.58,0,0,1,0,.2,1.26,1.26,0,0,1-.58,1A7.77,7.77,0,0,0,8.13,8.62a8.08,8.08,0,0,0-.47.85l-.08.17L7.8,9.3l.37-.49A10.51,10.51,0,0,1,9.48,7.37ZM8.65,5.09a.35.35,0,0,1-.35-.34.35.35,0,1,1,.7,0A.35.35,0,0,1,8.65,5.09Z"/><path class="cls-13" d="M15.49,6a4.73,4.73,0,0,1-1.32.37c-.9.13-1.81.12-2.71.22a3.12,3.12,0,0,0-1.91,1A10.36,10.36,0,0,0,8.25,9a5.9,5.9,0,0,0-.86,1.37c.2-.31.44-.6.62-.83A11,11,0,0,1,9.38,8.09a3.31,3.31,0,0,1,2-1c.95-.1,1.9-.09,2.84-.22a5.73,5.73,0,0,0,1.07-.25l.17-.08.3-.16a2.24,2.24,0,0,0,.53-.49,1.94,1.94,0,0,0,.21-.34,1.08,1.08,0,0,0,.08-.19l0-.11v0A5,5,0,0,1,15.49,6Z"/><g class="cls-14"><path class="cls-15" d="M10.53,3.63a4.45,4.45,0,0,1,2,1.7,3.91,3.91,0,0,1,.4.94l.56,0a6.75,6.75,0,0,0-.85-1.87,4.36,4.36,0,0,0-2.17-1.49,4.94,4.94,0,0,0-2.32.23c-.11,0-.94.32-.94.32a2,2,0,0,1,.26.38l.72-.16A4.79,4.79,0,0,1,10.53,3.63Z"/><path class="cls-16" d="M.67,8.72v0h0Z"/></g><g class="cls-14"><path class="cls-17" d="M7.39,11.47a3.47,3.47,0,0,1,2.46-1.33c.75-.08,2.41.18,3.56.15A3.31,3.31,0,0,0,15,9.9c0-.11.07-.21.11-.31l.06-.2a3.05,3.05,0,0,1-1.73.49c-1.15,0-2.81-.22-3.56-.14a3.43,3.43,0,0,0-2.46,1.32,4.19,4.19,0,0,0-.6,2.1,4,4,0,0,0,0,.49v-.09A4.16,4.16,0,0,1,7.39,11.47Z"/></g><path class="cls-18" d="M8.46,13.85a3.8,3.8,0,0,0-.26,1.38,1.81,1.81,0,0,0,1,1.8,3.1,3.1,0,0,0,2.11.3A3.57,3.57,0,0,1,9.51,17a1.83,1.83,0,0,1-1-1.81,4,4,0,0,1,.27-1.37,5.58,5.58,0,0,1,.85-1.43c.21-.29.43-.58.66-.86,0,0-.07,0-.08,0l-.24.07c-.22.28-.44.56-.65.85A6,6,0,0,0,8.46,13.85Z"/><path class="cls-19" d="M10.36,0A10.36,10.36,0,1,0,20.73,10.36,10.36,10.36,0,0,0,10.36,0Zm0,19.43a9.07,9.07,0,1,1,9.07-9.07A9.07,9.07,0,0,1,10.32,19.43Z"/></g></g></g></svg>