<svg xmlns="http://www.w3.org/2000/svg" xmlns:xlink="http://www.w3.org/1999/xlink" viewBox="0 0 20.73 20.72"><defs><style>.cls-1{fill:url(#Degradado_sin_nombre_84);}.cls-2{fill:url(#Degradado_sin_nombre_84-2);}.cls-3{fill:url(#Degradado_sin_nombre_84-3);}.cls-4{fill:#fff;}.cls-14,.cls-15,.cls-19,.cls-4{opacity:0.5;}.cls-14,.cls-19,.cls-4{isolation:isolate;}.cls-5{fill:#7c411e;}.cls-6{fill:url(#Degradado_sin_nombre_75);}.cls-7{fill:url(#Degradado_sin_nombre_75-2);}.cls-8{fill:url(#Degradado_sin_nombre_75-3);}.cls-9{fill:url(#Degradado_sin_nombre_75-4);}.cls-10{fill:url(#Degradado_sin_nombre_75-5);}.cls-11{fill:url(#Degradado_sin_nombre_77);}.cls-12{fill:url(#Degradado_sin_nombre_77-2);}.cls-13{fill:url(#Degradado_sin_nombre_84-4);}.cls-14{fill:url(#Degradado_sin_nombre_82);}.cls-16{fill:url(#Degradado_sin_nombre_82-2);}.cls-17{fill:url(#Degradado_sin_nombre_82-3);}.cls-18{fill:url(#Degradado_sin_nombre_82-4);}.cls-19{fill:url(#Degradado_sin_nombre_83);}.cls-20{fill:url(#Degradado_sin_nombre_84-5);}</style><linearGradient id="Degradado_sin_nombre_84" x1="13.22" y1="85.8" x2="7.15" y2="85.8" gradientTransform="matrix(1, 0, 0, -1, 0, 100.28)" gradientUnits="userSpaceOnUse"><stop offset="0" stop-color="#a2682a"/><stop offset="0.08" stop-color="#be8c3c"/><stop offset="0.18" stop-color="#be8c3c"/><stop offset="0.27" stop-color="#d3b15f"/><stop offset="0.34" stop-color="#faf0a0"/><stop offset="0.41" stop-color="#ffffc2"/><stop offset="0.48" stop-color="#faf0a0"/><stop offset="0.59" stop-color="#d3b15f"/><stop offset="0.67" stop-color="#be8c3c"/><stop offset="0.77" stop-color="#b17b32"/><stop offset="0.83" stop-color="#bb8332"/><stop offset="0.88" stop-color="#d4a245"/><stop offset="0.93" stop-color="#e1b453"/><stop offset="1" stop-color="#a4692a"/></linearGradient><linearGradient id="Degradado_sin_nombre_84-2" x1="16.61" y1="92.34" x2="7.32" y2="92.34" xlink:href="#Degradado_sin_nombre_84"/><linearGradient id="Degradado_sin_nombre_84-3" x1="15.14" y1="88.04" x2="6.78" y2="88.04" xlink:href="#Degradado_sin_nombre_84"/><linearGradient id="Degradado_sin_nombre_75" x1="1.71" y1="93.41" x2="22.22" y2="93.41" gradientTransform="matrix(1, 0, 0, -1, 0, 100.28)" gradientUnits="userSpaceOnUse"><stop offset="0" stop-color="#35190b"/><stop offset="0.16" stop-color="#d0b075"/><stop offset="0.26" stop-color="#b3945c"/><stop offset="0.38" stop-color="#967742"/><stop offset="0.48" stop-color="#836533"/><stop offset="0.56" stop-color="#7d5f2d"/><stop offset="0.61" stop-color="#866835"/><stop offset="0.7" stop-color="#a0814b"/><stop offset="0.82" stop-color="#c8a96e"/><stop offset="0.84" stop-color="#d0b075"/><stop offset="1" stop-color="#7d5f2d"/></linearGradient><linearGradient id="Degradado_sin_nombre_75-2" x1="0.28" y1="94.51" x2="24.2" y2="94.51" xlink:href="#Degradado_sin_nombre_75"/><linearGradient id="Degradado_sin_nombre_75-3" x1="1.68" y1="91.23" x2="22.28" y2="91.23" xlink:href="#Degradado_sin_nombre_75"/><linearGradient id="Degradado_sin_nombre_75-4" x1="1.71" y1="92.76" x2="22.22" y2="92.76" xlink:href="#Degradado_sin_nombre_75"/><linearGradient id="Degradado_sin_nombre_75-5" x1="1.65" y1="94.41" x2="22.31" y2="94.41" xlink:href="#Degradado_sin_nombre_75"/><linearGradient id="Degradado_sin_nombre_77" x1="10.36" y1="85.33" x2="10.36" y2="106.46" gradientTransform="matrix(1, 0, 0, -1, 0, 100.28)" gradientUnits="userSpaceOnUse"><stop offset="0.21" stop-color="#2a0b00"/><stop offset="1" stop-color="#fffad4" stop-opacity="0"/></linearGradient><linearGradient id="Degradado_sin_nombre_77-2" x1="8.99" y1="85.32" x2="8.99" y2="106.47" xlink:href="#Degradado_sin_nombre_77"/><linearGradient id="Degradado_sin_nombre_84-4" x1="13.5" y1="94.06" x2="6.86" y2="94.06" xlink:href="#Degradado_sin_nombre_84"/><linearGradient id="Degradado_sin_nombre_82" x1="7.39" y1="92.48" x2="16.61" y2="92.48" gradientTransform="matrix(1, 0, 0, -1, 0, 100.28)" gradientUnits="userSpaceOnUse"><stop offset="0.61" stop-color="#fff"/><stop offset="1" stop-color="#fffad4" stop-opacity="0"/></linearGradient><linearGradient id="Degradado_sin_nombre_82-2" x1="7.22" y1="95.74" x2="13.5" y2="95.74" xlink:href="#Degradado_sin_nombre_82"/><linearGradient id="Degradado_sin_nombre_82-3" x1="0.67" y1="91.57" x2="0.68" y2="91.57" xlink:href="#Degradado_sin_nombre_82"/><linearGradient id="Degradado_sin_nombre_82-4" x1="6.79" y1="88.76" x2="15.14" y2="88.76" xlink:href="#Degradado_sin_nombre_82"/><linearGradient id="Degradado_sin_nombre_83" x1="8.2" y1="85.83" x2="11.31" y2="85.83" gradientTransform="matrix(1, 0, 0, -1, 0, 100.28)" gradientUnits="userSpaceOnUse"><stop offset="0" stop-color="#fff"/><stop offset="0.43" stop-color="#fffad4" stop-opacity="0"/></linearGradient><linearGradient id="Degradado_sin_nombre_84-5" x1="0" y1="89.92" x2="20.73" y2="89.92" xlink:href="#Degradado_sin_nombre_84"/></defs><title>icon-gold</title><g id="Capa_2" data-name="Capa 2"><g id="Capa_1-2" data-name="Capa 1"><g id="Capa_5" data-name="Capa 5"><path class="cls-1" d="M12.14,13.44a2.06,2.06,0,0,0-1.61.64,1.7,1.7,0,0,1,1.58,0c.87.3,1,1.43.67,2.18a1.93,1.93,0,0,1-.94,1A2.89,2.89,0,0,1,9.51,17a1.8,1.8,0,0,1-1-1.81,3.79,3.79,0,0,1,.26-1.37,5.94,5.94,0,0,1,.85-1.43c.21-.29.44-.58.66-.86,0,0-.07,0-.07,0a2.48,2.48,0,0,0-.48.17,5.31,5.31,0,0,0-1.06.61,3.66,3.66,0,0,0-1.11,1.63,12.3,12.3,0,0,0-.41,1.16,3.41,3.41,0,0,0,1.49,1.78,6.77,6.77,0,0,0,2.18.6,2.12,2.12,0,0,0,1.41-.37,2.81,2.81,0,0,0,.92-1.53C13.38,14.71,13,13.57,12.14,13.44Z"/><path class="cls-2" d="M15.49,6a5.07,5.07,0,0,1-1.32.36c-.9.13-1.81.12-2.71.22a3.12,3.12,0,0,0-1.91,1A10.44,10.44,0,0,0,8.25,9a4.12,4.12,0,0,0-.93,1.65c0-.1.28-.28.5-.41a3.79,3.79,0,0,1,2-.79c.75-.08,2.41.18,3.56.14a3.51,3.51,0,0,0,1.48-.34,2.71,2.71,0,0,0,1-1,8.1,8.1,0,0,0,.5-1.51,5.73,5.73,0,0,0,.32-1.52A5.07,5.07,0,0,1,15.49,6Z"/><path class="cls-3" d="M9.85,9.74a3.47,3.47,0,0,0-2.46,1.33,4.16,4.16,0,0,0-.6,2.09A8.76,8.76,0,0,0,7,15.08a6,6,0,0,1,.73-2,5.92,5.92,0,0,1,.65-.76,4.5,4.5,0,0,1,1.06-.79A5.86,5.86,0,0,1,11.8,11a5.46,5.46,0,0,1,.7,0,5.86,5.86,0,0,0,.93.05,3.06,3.06,0,0,0,.89-.27,2,2,0,0,0,.76-1.21l.06-.2a3.05,3.05,0,0,1-1.73.49C12.26,9.92,10.6,9.66,9.85,9.74Z"/><path class="cls-4" d="M12.14,13.44a1.39,1.39,0,0,0-.68.06,1.54,1.54,0,0,1,.37,0,1.49,1.49,0,0,1,1.08,1.57,2.11,2.11,0,0,1-.1,1.06h0a2,2,0,0,1-.16.43,3.19,3.19,0,0,1-.26.38h0a2.94,2.94,0,0,0,.78-1.4C13.38,14.72,13,13.58,12.14,13.44Z"/><path class="cls-5" d="M8.93,6.79A3.07,3.07,0,0,0,7.35,8l-.49-.32L7.35,8a3.07,3.07,0,0,1,1.58-1.2,1.85,1.85,0,0,0,1.36-1A1.85,1.85,0,0,1,8.93,6.79Z"/><path class="cls-6" d="M8.93,6.79A3.07,3.07,0,0,0,7.35,8l-.49-.32L7.35,8a3.07,3.07,0,0,1,1.58-1.2,1.85,1.85,0,0,0,1.36-1A1.85,1.85,0,0,1,8.93,6.79Z"/><path class="cls-5" d="M10.3,5.77h0Z"/><path class="cls-7" d="M10.3,5.77h0Z"/><path class="cls-5" d="M8.17,8.81,7.8,9.3Z"/><path class="cls-8" d="M8.17,8.81,7.8,9.3Z"/><path class="cls-5" d="M11.39,6.38a3.07,3.07,0,0,0-1.91,1A11.05,11.05,0,0,0,8.17,8.8,10.43,10.43,0,0,1,9.48,7.37a3.1,3.1,0,0,1,1.91-1c.7-.08,1.41-.09,2.11-.15C12.8,6.29,12.09,6.3,11.39,6.38Z"/><path class="cls-9" d="M11.39,6.38a3.07,3.07,0,0,0-1.91,1A11.05,11.05,0,0,0,8.17,8.8,10.43,10.43,0,0,1,9.48,7.37a3.1,3.1,0,0,1,1.91-1c.7-.08,1.41-.09,2.11-.15C12.8,6.29,12.09,6.3,11.39,6.38Z"/><path class="cls-5" d="M10.3,5.77a.58.58,0,0,1,0,.2A.58.58,0,0,0,10.3,5.77Z"/><path class="cls-10" d="M10.3,5.77a.58.58,0,0,1,0,.2A.58.58,0,0,0,10.3,5.77Z"/><path class="cls-11" d="M10.48,2.87a4.36,4.36,0,0,1,2.17,1.49,6.88,6.88,0,0,1,.85,1.87,6.75,6.75,0,0,0-.85-1.87,4.36,4.36,0,0,0-2.17-1.49,5.08,5.08,0,0,0-2.32.23c-.11,0-.94.32-.94.32h0s.83-.27.94-.32A5.08,5.08,0,0,1,10.48,2.87Z"/><path class="cls-12" d="M9.75,6.93a1.26,1.26,0,0,0,.58-1,1.26,1.26,0,0,1-.58,1A7.53,7.53,0,0,0,8.13,8.62a8.08,8.08,0,0,0-.47.85,8.08,8.08,0,0,1,.47-.85A7.77,7.77,0,0,1,9.75,6.93Z"/><path class="cls-13" d="M9.48,7.37a3.07,3.07,0,0,1,1.91-1c.7-.07,1.41-.09,2.11-.15a7.2,7.2,0,0,0-.85-1.87,4.49,4.49,0,0,0-2.17-1.49,4.9,4.9,0,0,0-2.32.24l-.94.31a2.94,2.94,0,0,1,.63,1.83,4,4,0,0,1-1,2.42L7.35,8a3.07,3.07,0,0,1,1.58-1.2,1.83,1.83,0,0,0,1.36-1h0a.58.58,0,0,1,0,.2,1.25,1.25,0,0,1-.58,1A7.77,7.77,0,0,0,8.13,8.62a8.08,8.08,0,0,0-.47.85l-.08.17L7.8,9.3l.37-.49A10.51,10.51,0,0,1,9.48,7.37ZM8.65,5.1A.35.35,0,1,1,9,4.75.35.35,0,0,1,8.65,5.1Z"/><path class="cls-14" d="M15.49,6a5.07,5.07,0,0,1-1.32.36c-.9.13-1.81.12-2.71.22a3.12,3.12,0,0,0-1.91,1A10.44,10.44,0,0,0,8.25,9a5.63,5.63,0,0,0-.86,1.36c.2-.31.44-.6.62-.83A11.63,11.63,0,0,1,9.38,8.09a3.31,3.31,0,0,1,2-1c.95-.1,1.9-.09,2.84-.22a5.73,5.73,0,0,0,1.07-.25l.17-.08.3-.16a2.24,2.24,0,0,0,.53-.49,1.94,1.94,0,0,0,.21-.34,1.42,1.42,0,0,0,.08-.18l0-.12v0A5.39,5.39,0,0,1,15.49,6Z"/><g class="cls-15"><path class="cls-16" d="M10.53,3.63a4.45,4.45,0,0,1,2,1.7,4.09,4.09,0,0,1,.4.94l.56,0a6.75,6.75,0,0,0-.85-1.87,4.36,4.36,0,0,0-2.17-1.49,5.08,5.08,0,0,0-2.32.23c-.11,0-.94.32-.94.32a2,2,0,0,1,.26.38l.72-.16A4.92,4.92,0,0,1,10.53,3.63Z"/><path class="cls-17" d="M.67,8.72v0h0Z"/></g><g class="cls-15"><path class="cls-18" d="M7.39,11.47a3.47,3.47,0,0,1,2.46-1.33c.75-.07,2.41.18,3.56.15A3.31,3.31,0,0,0,15,9.9c0-.1.07-.21.11-.31l.06-.2a3.05,3.05,0,0,1-1.73.49c-1.15,0-2.81-.22-3.56-.14a3.46,3.46,0,0,0-2.46,1.32,4.19,4.19,0,0,0-.6,2.1,4,4,0,0,0,0,.49v-.09A4.16,4.16,0,0,1,7.39,11.47Z"/></g><path class="cls-19" d="M8.46,13.86a3.75,3.75,0,0,0-.26,1.37,1.81,1.81,0,0,0,1,1.8,3.1,3.1,0,0,0,2.11.3A3.57,3.57,0,0,1,9.51,17a1.83,1.83,0,0,1-1-1.81,4,4,0,0,1,.27-1.37,5.94,5.94,0,0,1,.85-1.43c.21-.29.43-.58.66-.86,0,0-.07,0-.08,0l-.24.07c-.22.28-.44.56-.65.85A5.88,5.88,0,0,0,8.46,13.86Z"/><path class="cls-20" d="M10.36,0A10.36,10.36,0,1,0,20.73,10.36,10.36,10.36,0,0,0,10.36,0Zm0,19.43a9.07,9.07,0,1,1,9.07-9.07A9.07,9.07,0,0,1,10.32,19.43Z"/></g></g></g></svg>