<?xml version="1.0" encoding="utf-8"?>
<!-- Generator: Adobe Illustrator 23.0.3, SVG Export Plug-In . SVG Version: 6.00 Build 0)  -->
<svg version="1.1" id="Capa_1" xmlns="http://www.w3.org/2000/svg" xmlns:xlink="http://www.w3.org/1999/xlink" x="0px" y="0px"
	 viewBox="0 0 338.5 97.2" style="enable-background:new 0 0 338.5 97.2;" xml:space="preserve">
<style type="text/css">
	.st0{clip-path:url(#SVGID_2_);}
	.st1{fill:url(#SVGID_3_);}
	.st2{clip-path:url(#SVGID_5_);}
	.st3{fill:url(#SVGID_6_);}
	.st4{clip-path:url(#SVGID_8_);}
	.st5{fill:url(#SVGID_9_);}
	.st6{clip-path:url(#SVGID_11_);}
	.st7{fill:url(#SVGID_12_);}
	.st8{clip-path:url(#SVGID_14_);}
	.st9{fill:url(#SVGID_15_);}
	.st10{clip-path:url(#SVGID_17_);}
	.st11{fill:url(#SVGID_18_);}
	.st12{clip-path:url(#SVGID_20_);}
	.st13{fill:url(#SVGID_21_);}
	.st14{clip-path:url(#SVGID_23_);}
	.st15{fill:url(#SVGID_24_);}
	.st16{clip-path:url(#SVGID_26_);}
	.st17{fill:url(#SVGID_27_);}
	.st18{clip-path:url(#SVGID_29_);}
	.st19{fill:url(#SVGID_30_);}
	.st20{clip-path:url(#SVGID_32_);}
	.st21{clip-path:url(#SVGID_34_);}
	.st22{clip-path:url(#SVGID_36_);}
	.st23{fill:url(#SVGID_37_);}
	.st24{clip-path:url(#SVGID_39_);}
	.st25{fill:url(#SVGID_40_);}
	.st26{clip-path:url(#SVGID_42_);}
	.st27{fill:url(#SVGID_43_);}
	.st28{clip-path:url(#SVGID_45_);}
	.st29{fill:#FFFFFF;}
	.st30{fill:#7C411E;}
	.st31{clip-path:url(#SVGID_47_);}
	.st32{fill:url(#SVGID_48_);}
	.st33{clip-path:url(#SVGID_50_);}
	.st34{fill:url(#SVGID_51_);}
	.st35{clip-path:url(#SVGID_53_);}
	.st36{fill:url(#SVGID_54_);}
	.st37{clip-path:url(#SVGID_56_);}
	.st38{fill:url(#SVGID_57_);}
	.st39{clip-path:url(#SVGID_59_);}
	.st40{fill:url(#SVGID_60_);}
	.st41{clip-path:url(#SVGID_62_);}
	.st42{fill:url(#SVGID_63_);}
	.st43{clip-path:url(#SVGID_65_);}
	.st44{fill:url(#SVGID_66_);}
	.st45{clip-path:url(#SVGID_68_);}
	.st46{fill:url(#SVGID_69_);}
	.st47{clip-path:url(#SVGID_71_);}
	.st48{clip-path:url(#SVGID_73_);}
	.st49{fill:url(#SVGID_74_);}
	.st50{clip-path:url(#SVGID_76_);}
	.st51{clip-path:url(#SVGID_78_);}
	.st52{fill:url(#SVGID_79_);}
	.st53{clip-path:url(#SVGID_81_);}
	.st54{clip-path:url(#SVGID_83_);}
	.st55{fill:url(#SVGID_84_);}
	.st56{clip-path:url(#SVGID_86_);}
	.st57{clip-path:url(#SVGID_88_);}
	.st58{fill:url(#SVGID_89_);}
</style>
<title>logo-FC</title>
<g>
	<g id="Capa_1-2">
		<g>
			<defs>
				<polygon id="SVGID_1_" points="75.5,50.9 73.3,50.9 73.3,39.2 80.7,39.2 80.7,41 75.5,41 75.5,44.2 79.6,44.2 79.6,46 75.5,46 
									"/>
			</defs>
			<clipPath id="SVGID_2_">
				<use xlink:href="#SVGID_1_"  style="overflow:visible;"/>
			</clipPath>
			<g class="st0">
				
					<linearGradient id="SVGID_3_" gradientUnits="userSpaceOnUse" x1="-264.9729" y1="580.9569" x2="-263.9729" y2="580.9569" gradientTransform="matrix(7.176431e-16 -11.72 -11.72 -7.176431e-16 6885.8403 -3054.4702)">
					<stop  offset="0" style="stop-color:#A2682A"/>
					<stop  offset="8.000000e-02" style="stop-color:#BE8C3C"/>
					<stop  offset="0.18" style="stop-color:#BE8C3C"/>
					<stop  offset="0.27" style="stop-color:#D3B15F"/>
					<stop  offset="0.34" style="stop-color:#FAF0A0"/>
					<stop  offset="0.41" style="stop-color:#FFFFC2"/>
					<stop  offset="0.48" style="stop-color:#FAF0A0"/>
					<stop  offset="0.59" style="stop-color:#D3B15F"/>
					<stop  offset="0.67" style="stop-color:#BE8C3C"/>
					<stop  offset="0.77" style="stop-color:#B17B32"/>
					<stop  offset="0.83" style="stop-color:#BB8332"/>
					<stop  offset="0.88" style="stop-color:#D4A245"/>
					<stop  offset="0.93" style="stop-color:#E1B453"/>
					<stop  offset="1" style="stop-color:#A4692A"/>
				</linearGradient>
				<rect x="73.3" y="39.2" class="st1" width="7.4" height="11.7"/>
			</g>
		</g>
		<g>
			<defs>
				<rect id="SVGID_4_" x="99.8" y="39.2" width="2.1" height="11.7"/>
			</defs>
			<clipPath id="SVGID_5_">
				<use xlink:href="#SVGID_4_"  style="overflow:visible;"/>
			</clipPath>
			<g class="st2">
				
					<linearGradient id="SVGID_6_" gradientUnits="userSpaceOnUse" x1="-264.9729" y1="580.9561" x2="-263.9729" y2="580.9561" gradientTransform="matrix(7.176431e-16 -11.72 -11.72 -7.176431e-16 6909.7002 -3054.4702)">
					<stop  offset="0" style="stop-color:#A2682A"/>
					<stop  offset="8.000000e-02" style="stop-color:#BE8C3C"/>
					<stop  offset="0.18" style="stop-color:#BE8C3C"/>
					<stop  offset="0.27" style="stop-color:#D3B15F"/>
					<stop  offset="0.34" style="stop-color:#FAF0A0"/>
					<stop  offset="0.41" style="stop-color:#FFFFC2"/>
					<stop  offset="0.48" style="stop-color:#FAF0A0"/>
					<stop  offset="0.59" style="stop-color:#D3B15F"/>
					<stop  offset="0.67" style="stop-color:#BE8C3C"/>
					<stop  offset="0.77" style="stop-color:#B17B32"/>
					<stop  offset="0.83" style="stop-color:#BB8332"/>
					<stop  offset="0.88" style="stop-color:#D4A245"/>
					<stop  offset="0.93" style="stop-color:#E1B453"/>
					<stop  offset="1" style="stop-color:#A4692A"/>
				</linearGradient>
				<rect x="99.8" y="39.2" class="st3" width="2.1" height="11.7"/>
			</g>
		</g>
		<g>
			<defs>
				<path id="SVGID_7_" d="M124.2,40.9h2c0.9,0,1.8,0.4,2.3,1.2c0.6,0.9,0.9,1.9,0.9,2.9c0.1,1.1-0.3,2.3-1,3.2
					c-0.6,0.7-1.5,1.1-2.4,1.1h-1.8L124.2,40.9z M122.1,39.2v11.7h3.9c1.6,0.1,3.2-0.5,4.3-1.7c1-1.1,1.6-2.6,1.5-4.2
					c0-1.5-0.5-3-1.4-4.2c-1-1.1-2.4-1.8-3.9-1.7H122.1z"/>
			</defs>
			<clipPath id="SVGID_8_">
				<use xlink:href="#SVGID_7_"  style="overflow:visible;"/>
			</clipPath>
			<g class="st4">
				
					<linearGradient id="SVGID_9_" gradientUnits="userSpaceOnUse" x1="-264.9729" y1="580.9565" x2="-263.9729" y2="580.9565" gradientTransform="matrix(7.176431e-16 -11.72 -11.72 -7.176431e-16 6935.6699 -3054.4702)">
					<stop  offset="0" style="stop-color:#A2682A"/>
					<stop  offset="8.000000e-02" style="stop-color:#BE8C3C"/>
					<stop  offset="0.18" style="stop-color:#BE8C3C"/>
					<stop  offset="0.27" style="stop-color:#D3B15F"/>
					<stop  offset="0.34" style="stop-color:#FAF0A0"/>
					<stop  offset="0.41" style="stop-color:#FFFFC2"/>
					<stop  offset="0.48" style="stop-color:#FAF0A0"/>
					<stop  offset="0.59" style="stop-color:#D3B15F"/>
					<stop  offset="0.67" style="stop-color:#BE8C3C"/>
					<stop  offset="0.77" style="stop-color:#B17B32"/>
					<stop  offset="0.83" style="stop-color:#BB8332"/>
					<stop  offset="0.88" style="stop-color:#D4A245"/>
					<stop  offset="0.93" style="stop-color:#E1B453"/>
					<stop  offset="1" style="stop-color:#A4692A"/>
				</linearGradient>
				<rect x="122.1" y="39.2" class="st5" width="9.6" height="11.7"/>
			</g>
		</g>
		<g>
			<defs>
				<polygon id="SVGID_10_" points="151.2,39.2 151.2,50.9 158.8,50.9 158.8,49.1 153.3,49.1 153.3,45.8 157.7,45.8 157.7,44.1 
					153.3,44.1 153.3,40.9 158.8,40.9 158.8,39.2 				"/>
			</defs>
			<clipPath id="SVGID_11_">
				<use xlink:href="#SVGID_10_"  style="overflow:visible;"/>
			</clipPath>
			<g class="st6">
				
					<linearGradient id="SVGID_12_" gradientUnits="userSpaceOnUse" x1="-264.9729" y1="580.9565" x2="-263.9729" y2="580.9565" gradientTransform="matrix(7.176431e-16 -11.72 -11.72 -7.176431e-16 6963.8301 -3054.4702)">
					<stop  offset="0" style="stop-color:#A2682A"/>
					<stop  offset="8.000000e-02" style="stop-color:#BE8C3C"/>
					<stop  offset="0.18" style="stop-color:#BE8C3C"/>
					<stop  offset="0.27" style="stop-color:#D3B15F"/>
					<stop  offset="0.34" style="stop-color:#FAF0A0"/>
					<stop  offset="0.41" style="stop-color:#FFFFC2"/>
					<stop  offset="0.48" style="stop-color:#FAF0A0"/>
					<stop  offset="0.59" style="stop-color:#D3B15F"/>
					<stop  offset="0.67" style="stop-color:#BE8C3C"/>
					<stop  offset="0.77" style="stop-color:#B17B32"/>
					<stop  offset="0.83" style="stop-color:#BB8332"/>
					<stop  offset="0.88" style="stop-color:#D4A245"/>
					<stop  offset="0.93" style="stop-color:#E1B453"/>
					<stop  offset="1" style="stop-color:#A4692A"/>
				</linearGradient>
				<rect x="151.2" y="39.2" class="st7" width="7.6" height="11.7"/>
			</g>
		</g>
		<g>
			<defs>
				<polygon id="SVGID_13_" points="178.2,39.2 178.2,50.9 185.5,50.9 185.5,49 180.5,49 180.5,39.2 				"/>
			</defs>
			<clipPath id="SVGID_14_">
				<use xlink:href="#SVGID_13_"  style="overflow:visible;"/>
			</clipPath>
			<g class="st8">
				
					<linearGradient id="SVGID_15_" gradientUnits="userSpaceOnUse" x1="-264.9729" y1="580.9569" x2="-263.9729" y2="580.9569" gradientTransform="matrix(7.176431e-16 -11.72 -11.72 -7.176431e-16 6990.6499 -3054.4702)">
					<stop  offset="0" style="stop-color:#A2682A"/>
					<stop  offset="8.000000e-02" style="stop-color:#BE8C3C"/>
					<stop  offset="0.18" style="stop-color:#BE8C3C"/>
					<stop  offset="0.27" style="stop-color:#D3B15F"/>
					<stop  offset="0.34" style="stop-color:#FAF0A0"/>
					<stop  offset="0.41" style="stop-color:#FFFFC2"/>
					<stop  offset="0.48" style="stop-color:#FAF0A0"/>
					<stop  offset="0.59" style="stop-color:#D3B15F"/>
					<stop  offset="0.67" style="stop-color:#BE8C3C"/>
					<stop  offset="0.77" style="stop-color:#B17B32"/>
					<stop  offset="0.83" style="stop-color:#BB8332"/>
					<stop  offset="0.88" style="stop-color:#D4A245"/>
					<stop  offset="0.93" style="stop-color:#E1B453"/>
					<stop  offset="1" style="stop-color:#A4692A"/>
				</linearGradient>
				<rect x="178.2" y="39.2" class="st9" width="7.2" height="11.7"/>
			</g>
		</g>
		<g>
			<defs>
				<rect id="SVGID_16_" x="204.6" y="39.2" width="2.1" height="11.7"/>
			</defs>
			<clipPath id="SVGID_17_">
				<use xlink:href="#SVGID_16_"  style="overflow:visible;"/>
			</clipPath>
			<g class="st10">
				
					<linearGradient id="SVGID_18_" gradientUnits="userSpaceOnUse" x1="-264.9729" y1="580.9561" x2="-263.9729" y2="580.9561" gradientTransform="matrix(7.176431e-16 -11.72 -11.72 -7.176431e-16 7014.4502 -3054.4702)">
					<stop  offset="0" style="stop-color:#A2682A"/>
					<stop  offset="8.000000e-02" style="stop-color:#BE8C3C"/>
					<stop  offset="0.18" style="stop-color:#BE8C3C"/>
					<stop  offset="0.27" style="stop-color:#D3B15F"/>
					<stop  offset="0.34" style="stop-color:#FAF0A0"/>
					<stop  offset="0.41" style="stop-color:#FFFFC2"/>
					<stop  offset="0.48" style="stop-color:#FAF0A0"/>
					<stop  offset="0.59" style="stop-color:#D3B15F"/>
					<stop  offset="0.67" style="stop-color:#BE8C3C"/>
					<stop  offset="0.77" style="stop-color:#B17B32"/>
					<stop  offset="0.83" style="stop-color:#BB8332"/>
					<stop  offset="0.88" style="stop-color:#D4A245"/>
					<stop  offset="0.93" style="stop-color:#E1B453"/>
					<stop  offset="1" style="stop-color:#A4692A"/>
				</linearGradient>
				<rect x="204.6" y="39.2" class="st11" width="2.1" height="11.7"/>
			</g>
		</g>
		<g>
			<defs>
				<path id="SVGID_19_" d="M227.5,40.7c-0.9,1.3-1.3,2.8-1.3,4.4c0,1,0.2,2.1,0.5,3.1c0.3,0.9,0.8,1.6,1.6,2.2
					c0.7,0.6,1.7,0.9,2.6,0.8c1.1,0.1,2.2-0.4,3.1-1.1c0.8-0.8,1.3-1.8,1.4-2.9l-2-0.2c0,0.6-0.3,1.3-0.7,1.8
					c-0.4,0.5-1,0.7-1.6,0.7c-0.8,0-1.5-0.4-1.9-1.1c-0.5-1-0.8-2.1-0.7-3.2c-0.1-1.1,0.2-2.2,0.6-3.2c0.4-0.7,1.1-1.1,1.9-1.1
					c1.2,0,2,0.9,2.4,2.7l2-0.2c-0.1-1.2-0.6-2.3-1.5-3.1c-1.9-1.6-4.7-1.4-6.3,0.5C227.6,40.6,227.6,40.7,227.5,40.7"/>
			</defs>
			<clipPath id="SVGID_20_">
				<use xlink:href="#SVGID_19_"  style="overflow:visible;"/>
			</clipPath>
			<g class="st12">
				
					<linearGradient id="SVGID_21_" gradientUnits="userSpaceOnUse" x1="-264.5695" y1="581.4482" x2="-263.5695" y2="581.4482" gradientTransform="matrix(7.396867e-16 -12.08 -12.08 -7.396867e-16 7254.6997 -3144.6699)">
					<stop  offset="0" style="stop-color:#A2682A"/>
					<stop  offset="8.000000e-02" style="stop-color:#BE8C3C"/>
					<stop  offset="0.18" style="stop-color:#BE8C3C"/>
					<stop  offset="0.27" style="stop-color:#D3B15F"/>
					<stop  offset="0.34" style="stop-color:#FAF0A0"/>
					<stop  offset="0.41" style="stop-color:#FFFFC2"/>
					<stop  offset="0.48" style="stop-color:#FAF0A0"/>
					<stop  offset="0.59" style="stop-color:#D3B15F"/>
					<stop  offset="0.67" style="stop-color:#BE8C3C"/>
					<stop  offset="0.77" style="stop-color:#B17B32"/>
					<stop  offset="0.83" style="stop-color:#BB8332"/>
					<stop  offset="0.88" style="stop-color:#D4A245"/>
					<stop  offset="0.93" style="stop-color:#E1B453"/>
					<stop  offset="1" style="stop-color:#A4692A"/>
				</linearGradient>
				<rect x="226.2" y="39" class="st13" width="9.1" height="12.1"/>
			</g>
		</g>
		<g>
			<defs>
				<path id="SVGID_22_" d="M257,48.3c-0.5-1-0.8-2.1-0.7-3.2c0-2.9,0.9-4.4,2.7-4.4c0.8,0,1.6,0.4,2,1.2c0.5,1,0.7,2.1,0.6,3.2
					c0.1,1.2-0.2,2.4-0.8,3.4c-0.5,0.6-1.2,1-1.9,1C258.1,49.5,257.4,49.1,257,48.3 M255.4,40.7c-0.9,1.2-1.4,2.7-1.4,4.3
					c0,1.5,0.4,3.1,1.3,4.3c0.8,1.2,2.2,1.8,3.6,1.8c1.4,0,2.8-0.6,3.6-1.7c1-1.3,1.5-2.8,1.4-4.4c0.1-1.5-0.4-3.1-1.3-4.3
					c-0.8-1.1-2.2-1.8-3.6-1.7C257.6,38.9,256.3,39.6,255.4,40.7"/>
			</defs>
			<clipPath id="SVGID_23_">
				<use xlink:href="#SVGID_22_"  style="overflow:visible;"/>
			</clipPath>
			<g class="st14">
				
					<linearGradient id="SVGID_24_" gradientUnits="userSpaceOnUse" x1="-264.5695" y1="581.4474" x2="-263.5695" y2="581.4474" gradientTransform="matrix(7.396867e-16 -12.08 -12.08 -7.396867e-16 7282.8799 -3144.6699)">
					<stop  offset="0" style="stop-color:#A2682A"/>
					<stop  offset="8.000000e-02" style="stop-color:#BE8C3C"/>
					<stop  offset="0.18" style="stop-color:#BE8C3C"/>
					<stop  offset="0.27" style="stop-color:#D3B15F"/>
					<stop  offset="0.34" style="stop-color:#FAF0A0"/>
					<stop  offset="0.41" style="stop-color:#FFFFC2"/>
					<stop  offset="0.48" style="stop-color:#FAF0A0"/>
					<stop  offset="0.59" style="stop-color:#D3B15F"/>
					<stop  offset="0.67" style="stop-color:#BE8C3C"/>
					<stop  offset="0.77" style="stop-color:#B17B32"/>
					<stop  offset="0.83" style="stop-color:#BB8332"/>
					<stop  offset="0.88" style="stop-color:#D4A245"/>
					<stop  offset="0.93" style="stop-color:#E1B453"/>
					<stop  offset="1" style="stop-color:#A4692A"/>
				</linearGradient>
				<rect x="254" y="39" class="st15" width="10" height="12.1"/>
			</g>
		</g>
		<g>
			<defs>
				<rect id="SVGID_25_" x="283.5" y="39.2" width="2.1" height="11.7"/>
			</defs>
			<clipPath id="SVGID_26_">
				<use xlink:href="#SVGID_25_"  style="overflow:visible;"/>
			</clipPath>
			<g class="st16">
				
					<linearGradient id="SVGID_27_" gradientUnits="userSpaceOnUse" x1="-264.9729" y1="580.9569" x2="-263.9729" y2="580.9569" gradientTransform="matrix(7.176431e-16 -11.72 -11.72 -7.176431e-16 7093.3999 -3054.4702)">
					<stop  offset="0" style="stop-color:#A2682A"/>
					<stop  offset="8.000000e-02" style="stop-color:#BE8C3C"/>
					<stop  offset="0.18" style="stop-color:#BE8C3C"/>
					<stop  offset="0.27" style="stop-color:#D3B15F"/>
					<stop  offset="0.34" style="stop-color:#FAF0A0"/>
					<stop  offset="0.41" style="stop-color:#FFFFC2"/>
					<stop  offset="0.48" style="stop-color:#FAF0A0"/>
					<stop  offset="0.59" style="stop-color:#D3B15F"/>
					<stop  offset="0.67" style="stop-color:#BE8C3C"/>
					<stop  offset="0.77" style="stop-color:#B17B32"/>
					<stop  offset="0.83" style="stop-color:#BB8332"/>
					<stop  offset="0.88" style="stop-color:#D4A245"/>
					<stop  offset="0.93" style="stop-color:#E1B453"/>
					<stop  offset="1" style="stop-color:#A4692A"/>
				</linearGradient>
				<rect x="283.5" y="39.2" class="st17" width="2.1" height="11.7"/>
			</g>
		</g>
		<g>
			<defs>
				<polygon id="SVGID_28_" points="313,39.2 313,47.4 312.3,46.1 308.1,39.2 305.8,39.2 305.8,50.9 307.5,50.9 307.5,42.3 
					307.8,42.9 308.2,43.4 312.6,50.9 314.7,50.9 314.7,39.2 				"/>
			</defs>
			<clipPath id="SVGID_29_">
				<use xlink:href="#SVGID_28_"  style="overflow:visible;"/>
			</clipPath>
			<g class="st18">
				
					<linearGradient id="SVGID_30_" gradientUnits="userSpaceOnUse" x1="-264.9729" y1="580.9569" x2="-263.9729" y2="580.9569" gradientTransform="matrix(7.176431e-16 -11.72 -11.72 -7.176431e-16 7119.0503 -3054.4702)">
					<stop  offset="0" style="stop-color:#A2682A"/>
					<stop  offset="8.000000e-02" style="stop-color:#BE8C3C"/>
					<stop  offset="0.18" style="stop-color:#BE8C3C"/>
					<stop  offset="0.27" style="stop-color:#D3B15F"/>
					<stop  offset="0.34" style="stop-color:#FAF0A0"/>
					<stop  offset="0.41" style="stop-color:#FFFFC2"/>
					<stop  offset="0.48" style="stop-color:#FAF0A0"/>
					<stop  offset="0.59" style="stop-color:#D3B15F"/>
					<stop  offset="0.67" style="stop-color:#BE8C3C"/>
					<stop  offset="0.77" style="stop-color:#B17B32"/>
					<stop  offset="0.83" style="stop-color:#BB8332"/>
					<stop  offset="0.88" style="stop-color:#D4A245"/>
					<stop  offset="0.93" style="stop-color:#E1B453"/>
					<stop  offset="1" style="stop-color:#A4692A"/>
				</linearGradient>
				<rect x="305.8" y="39.2" class="st19" width="8.9" height="11.7"/>
			</g>
		</g>
		<g>
			<defs>
				<rect id="SVGID_31_" x="-24.3" y="-2.3" width="92" height="97.2"/>
			</defs>
			<clipPath id="SVGID_32_">
				<use xlink:href="#SVGID_31_"  style="overflow:visible;"/>
			</clipPath>
			<g class="st20">
				<g>
					<defs>
						<rect id="SVGID_33_" x="-24.3" y="-2.3" width="92" height="97.2"/>
					</defs>
					<clipPath id="SVGID_34_">
						<use xlink:href="#SVGID_33_"  style="overflow:visible;"/>
					</clipPath>
					<g class="st21">
						
							<image style="overflow:visible;enable-background:new    ;" width="94" height="100" xlink:href="9CA2E957.png"  transform="matrix(0.9689 0 0 0.9689 -23.87 -2.2264)">
						</image>
					</g>
				</g>
			</g>
		</g>
		<g>
			<defs>
				<path id="SVGID_35_" d="M27.7,54.8c-0.6,0.2-1.2,0.5-1.8,0.8c-1.4,0.7-2.8,1.7-4,2.7c-2,2.1-3.4,4.6-4.2,7.3
					c-0.6,1.7-1.1,3.4-1.6,5.2c0.9,3.2,2.9,6.1,5.7,8c2.5,1.5,5.4,2.4,8.3,2.8c1.9,0.2,3.9-0.4,5.3-1.7c1.8-1.9,3-4.3,3.5-6.9
					c0.9-3.8-0.5-9-3.8-9.6c-3.3-0.6-6.1,2.9-6.1,2.9c1.8-1.6,4.1-0.9,6-0.2c3.3,1.3,3.7,6.4,2.5,9.8c-0.7,1.8-1.9,3.3-3.6,4.3
					c-2.7,1.6-6.3,0.5-8.8-0.9c-2.8-1.5-3.8-4.7-3.8-8.2c0-2.1,0.4-4.2,1-6.2c0.8-2.3,1.9-4.4,3.2-6.4c0.8-1.3,1.6-2.6,2.5-3.9
					c1.3-1.9,0,0,0,0C27.9,54.9,27.8,54.9,27.7,54.8"/>
			</defs>
			<clipPath id="SVGID_36_">
				<use xlink:href="#SVGID_35_"  style="overflow:visible;"/>
			</clipPath>
			<g class="st22">
				
					<linearGradient id="SVGID_37_" gradientUnits="userSpaceOnUse" x1="-259.225" y1="606.6428" x2="-258.225" y2="606.6428" gradientTransform="matrix(-22.98 0 0 22.98 -5919.3198 -13872.2695)">
					<stop  offset="0" style="stop-color:#A2682A"/>
					<stop  offset="8.000000e-02" style="stop-color:#BE8C3C"/>
					<stop  offset="0.18" style="stop-color:#BE8C3C"/>
					<stop  offset="0.27" style="stop-color:#D3B15F"/>
					<stop  offset="0.34" style="stop-color:#FAF0A0"/>
					<stop  offset="0.41" style="stop-color:#FFFFC2"/>
					<stop  offset="0.48" style="stop-color:#FAF0A0"/>
					<stop  offset="0.59" style="stop-color:#D3B15F"/>
					<stop  offset="0.67" style="stop-color:#BE8C3C"/>
					<stop  offset="0.77" style="stop-color:#B17B32"/>
					<stop  offset="0.83" style="stop-color:#BB8332"/>
					<stop  offset="0.88" style="stop-color:#D4A245"/>
					<stop  offset="0.93" style="stop-color:#E1B453"/>
					<stop  offset="1" style="stop-color:#A4692A"/>
				</linearGradient>
				<rect x="16.1" y="54.8" class="st23" width="23.6" height="27.2"/>
			</g>
		</g>
		<g>
			<defs>
				<path id="SVGID_38_" d="M47.7,29.9c-1.6,0.8-3.3,1.4-5,1.7c-3.4,0.6-6.8,0.5-10.2,1c-3.1,0.4-5,2-7.2,4.5c-1.9,2-3.5,4.2-5,6.5
					c-1.2,1.9-3.3,5-3.5,7.5c0-0.5,1.1-1.3,1.9-1.8c2-2,4.6-3.2,7.5-3.6c2.3-0.1,4.5,0,6.7,0.3c2.2,0.2,4.5,0.4,6.7,0.3
					c2,0,3.9-0.5,5.6-1.5c1.6-1.2,2.8-2.7,3.6-4.5c0.8-2.2,1.5-4.5,1.9-6.9c0.6-2.2,1-4.5,1.2-6.8C50.6,27.8,49.2,29,47.7,29.9"/>
			</defs>
			<clipPath id="SVGID_39_">
				<use xlink:href="#SVGID_38_"  style="overflow:visible;"/>
			</clipPath>
			<g class="st24">
				
					<linearGradient id="SVGID_40_" gradientUnits="userSpaceOnUse" x1="-256.0455" y1="604.0131" x2="-255.0447" y2="604.0131" gradientTransform="matrix(-35.15 0 0 35.15 -8947.7607 -21192.3301)">
					<stop  offset="0" style="stop-color:#A2682A"/>
					<stop  offset="8.000000e-02" style="stop-color:#BE8C3C"/>
					<stop  offset="0.18" style="stop-color:#BE8C3C"/>
					<stop  offset="0.27" style="stop-color:#D3B15F"/>
					<stop  offset="0.34" style="stop-color:#FAF0A0"/>
					<stop  offset="0.41" style="stop-color:#FFFFC2"/>
					<stop  offset="0.48" style="stop-color:#FAF0A0"/>
					<stop  offset="0.59" style="stop-color:#D3B15F"/>
					<stop  offset="0.67" style="stop-color:#BE8C3C"/>
					<stop  offset="0.77" style="stop-color:#B17B32"/>
					<stop  offset="0.83" style="stop-color:#BB8332"/>
					<stop  offset="0.88" style="stop-color:#D4A245"/>
					<stop  offset="0.93" style="stop-color:#E1B453"/>
					<stop  offset="1" style="stop-color:#A4692A"/>
				</linearGradient>
				<rect x="16.7" y="26.5" class="st25" width="35.2" height="24.5"/>
			</g>
		</g>
		<g>
			<defs>
				<path id="SVGID_41_" d="M39.8,47.5c-2.3,0-4.5-0.1-6.7-0.4c-2.2-0.3-4.5-0.4-6.8-0.3c-3.9,0.5-7.3,2.7-9.3,6
					c-1.5,2.9-2.2,6.2-2.3,9.5c-0.1,2.9,0.1,5.8,0.6,8.7c0.4-3.2,1.3-6.3,2.8-9.1c0.7-1.2,1.5-2.4,2.5-3.4c1.1-1.4,2.5-2.6,4-3.6
					c2.8-1.5,5.9-2.3,9.1-2.3c0.9,0,1.8,0,2.7,0.1c1.2,0.2,2.3,0.3,3.5,0.2c1.2-0.2,2.3-0.6,3.3-1.2c1.7-1,2.3-3.5,2.9-5.4
					c0-0.2,0.2-0.9,0.2-0.9C44.5,46.8,42.2,47.5,39.8,47.5"/>
			</defs>
			<clipPath id="SVGID_42_">
				<use xlink:href="#SVGID_41_"  style="overflow:visible;"/>
			</clipPath>
			<g class="st26">
				
					<linearGradient id="SVGID_43_" gradientUnits="userSpaceOnUse" x1="-256.709" y1="604.5781" x2="-255.709" y2="604.5781" gradientTransform="matrix(-31.62 0 0 31.62 -8070.6406 -19058.6309)">
					<stop  offset="0" style="stop-color:#A2682A"/>
					<stop  offset="8.000000e-02" style="stop-color:#BE8C3C"/>
					<stop  offset="0.18" style="stop-color:#BE8C3C"/>
					<stop  offset="0.27" style="stop-color:#D3B15F"/>
					<stop  offset="0.34" style="stop-color:#FAF0A0"/>
					<stop  offset="0.41" style="stop-color:#FFFFC2"/>
					<stop  offset="0.48" style="stop-color:#FAF0A0"/>
					<stop  offset="0.59" style="stop-color:#D3B15F"/>
					<stop  offset="0.67" style="stop-color:#BE8C3C"/>
					<stop  offset="0.77" style="stop-color:#B17B32"/>
					<stop  offset="0.83" style="stop-color:#BB8332"/>
					<stop  offset="0.88" style="stop-color:#D4A245"/>
					<stop  offset="0.93" style="stop-color:#E1B453"/>
					<stop  offset="1" style="stop-color:#A4692A"/>
				</linearGradient>
				<rect x="14.6" y="45.3" class="st27" width="31.8" height="25.7"/>
			</g>
		</g>
		<g>
			<defs>
				<rect id="SVGID_44_" x="32.4" y="63.5" width="6.7" height="16"/>
			</defs>
			<clipPath id="SVGID_45_">
				<use xlink:href="#SVGID_44_"  style="overflow:visible;"/>
			</clipPath>
			<g class="st28">
				<path class="st29" d="M35,63.6c-0.9-0.2-1.7-0.1-2.5,0.3c0.5-0.1,0.9-0.1,1.4,0c2.6,0.5,4,3.8,4.1,7.1c0.2,1.6,0.1,3.3-0.4,4.8
					l0,0c-0.2,0.7-0.4,1.3-0.6,1.9c-0.3,0.6-0.6,1.1-1,1.7l0,0c1.5-1.8,2.5-4,2.9-6.3C39.7,69.2,38.3,64.1,35,63.6"/>
			</g>
		</g>
		<path class="st30" d="M22.8,33.6c-3.8,1.3-6,5.4-6,5.4L15,37.5l1.9,1.4C16.9,39,19,34.8,22.8,33.6c3.9-1.3,5-3.9,5.2-4.7
			C27.8,29.7,26.7,32.3,22.8,33.6"/>
		<g>
			<defs>
				<path id="SVGID_46_" d="M22.8,33.6c-3.8,1.3-6,5.4-6,5.4L15,37.5l1.9,1.4C16.9,39,19,34.8,22.8,33.6L22.8,33.6 M22.9,33.6
					c3.7-1.2,4.9-3.8,5.2-4.6C27.8,29.8,26.6,32.3,22.9,33.6 M28,28.9L28,28.9"/>
			</defs>
			<clipPath id="SVGID_47_">
				<use xlink:href="#SVGID_46_"  style="overflow:visible;"/>
			</clipPath>
			<g class="st31">
				
					<linearGradient id="SVGID_48_" gradientUnits="userSpaceOnUse" x1="-247.2725" y1="596.7568" x2="-246.2725" y2="596.7568" gradientTransform="matrix(77.67 0 0 -77.67 19200.3496 46384.0195)">
					<stop  offset="0" style="stop-color:#35190B"/>
					<stop  offset="0.16" style="stop-color:#D0B075"/>
					<stop  offset="0.26" style="stop-color:#B3945C"/>
					<stop  offset="0.38" style="stop-color:#967742"/>
					<stop  offset="0.48" style="stop-color:#836533"/>
					<stop  offset="0.56" style="stop-color:#7D5F2D"/>
					<stop  offset="0.61" style="stop-color:#866835"/>
					<stop  offset="0.7" style="stop-color:#A0814B"/>
					<stop  offset="0.82" style="stop-color:#C8A96E"/>
					<stop  offset="0.84" style="stop-color:#D0B075"/>
					<stop  offset="1" style="stop-color:#7D5F2D"/>
				</linearGradient>
				<rect x="15" y="28.9" class="st32" width="13" height="10.1"/>
			</g>
		</g>
		<path class="st30" d="M28,28.9L28,28.9L28,28.9"/>
		<g>
			<defs>
				<polyline id="SVGID_49_" points="28,28.9 28,28.9 28,28.9 				"/>
			</defs>
			<clipPath id="SVGID_50_">
				<use xlink:href="#SVGID_49_"  style="overflow:visible;"/>
			</clipPath>
			<g class="st33">
				
					<linearGradient id="SVGID_51_" gradientUnits="userSpaceOnUse" x1="-246.753" y1="596.6744" x2="-246.7529" y2="596.6744" gradientTransform="matrix(74.94 0 0 -74.94 18519.2598 44743.7031)">
					<stop  offset="0" style="stop-color:#35190B"/>
					<stop  offset="0.16" style="stop-color:#D0B075"/>
					<stop  offset="0.26" style="stop-color:#B3945C"/>
					<stop  offset="0.38" style="stop-color:#967742"/>
					<stop  offset="0.48" style="stop-color:#836533"/>
					<stop  offset="0.56" style="stop-color:#7D5F2D"/>
					<stop  offset="0.61" style="stop-color:#866835"/>
					<stop  offset="0.7" style="stop-color:#A0814B"/>
					<stop  offset="0.82" style="stop-color:#C8A96E"/>
					<stop  offset="0.84" style="stop-color:#D0B075"/>
					<stop  offset="1" style="stop-color:#7D5F2D"/>
				</linearGradient>
				<rect x="28" y="28.9" class="st34" width="0" height="0"/>
			</g>
		</g>
		<path class="st30" d="M20,42.7c-0.4,0.6-0.9,1.4-1.4,2.2C19.1,44.1,19.6,43.3,20,42.7"/>
		<g>
			<defs>
				<path id="SVGID_52_" d="M18.6,44.9c0.5-0.8,1-1.6,1.4-2.2C19.6,43.3,19.1,44.1,18.6,44.9"/>
			</defs>
			<clipPath id="SVGID_53_">
				<use xlink:href="#SVGID_52_"  style="overflow:visible;"/>
			</clipPath>
			<g class="st35">
				
					<linearGradient id="SVGID_54_" gradientUnits="userSpaceOnUse" x1="-247.2808" y1="596.7457" x2="-246.2508" y2="596.7457" gradientTransform="matrix(77.65 0 0 -77.65 19196.502 46381.0703)">
					<stop  offset="0" style="stop-color:#35190B"/>
					<stop  offset="0.16" style="stop-color:#D0B075"/>
					<stop  offset="0.26" style="stop-color:#B3945C"/>
					<stop  offset="0.38" style="stop-color:#967742"/>
					<stop  offset="0.48" style="stop-color:#836533"/>
					<stop  offset="0.56" style="stop-color:#7D5F2D"/>
					<stop  offset="0.61" style="stop-color:#866835"/>
					<stop  offset="0.7" style="stop-color:#A0814B"/>
					<stop  offset="0.82" style="stop-color:#C8A96E"/>
					<stop  offset="0.84" style="stop-color:#D0B075"/>
					<stop  offset="1" style="stop-color:#7D5F2D"/>
				</linearGradient>
				<rect x="18.6" y="42.7" class="st36" width="1.4" height="2.2"/>
			</g>
		</g>
		<path class="st30" d="M32.1,31.7c-3.1,0.4-5,2-7.2,4.4c-1.9,2-3.5,4.2-5,6.5c1.5-2.3,3.1-4.5,5-6.5C27.2,33.7,29,32.2,32.1,31.7
			c2.7-0.3,5.3-0.4,8-0.7C37.5,31.3,34.8,31.4,32.1,31.7"/>
		<g>
			<defs>
				<path id="SVGID_55_" d="M32.1,31.7c-3.1,0.4-5,2-7.2,4.4c-1.9,2-3.5,4.2-5,6.5c1.5-2.3,3.1-4.5,5-6.5
					C27.2,33.7,29,32.2,32.1,31.7c2.7-0.3,5.3-0.4,8-0.7C37.5,31.3,34.8,31.4,32.1,31.7"/>
			</defs>
			<clipPath id="SVGID_56_">
				<use xlink:href="#SVGID_55_"  style="overflow:visible;"/>
			</clipPath>
			<g class="st37">
				
					<linearGradient id="SVGID_57_" gradientUnits="userSpaceOnUse" x1="-247.2733" y1="596.7512" x2="-246.2733" y2="596.7512" gradientTransform="matrix(77.68 0 0 -77.68 19203.5391 46392.4688)">
					<stop  offset="0" style="stop-color:#35190B"/>
					<stop  offset="0.16" style="stop-color:#D0B075"/>
					<stop  offset="0.26" style="stop-color:#B3945C"/>
					<stop  offset="0.38" style="stop-color:#967742"/>
					<stop  offset="0.48" style="stop-color:#836533"/>
					<stop  offset="0.56" style="stop-color:#7D5F2D"/>
					<stop  offset="0.61" style="stop-color:#866835"/>
					<stop  offset="0.7" style="stop-color:#A0814B"/>
					<stop  offset="0.82" style="stop-color:#C8A96E"/>
					<stop  offset="0.84" style="stop-color:#D0B075"/>
					<stop  offset="1" style="stop-color:#7D5F2D"/>
				</linearGradient>
				<rect x="20" y="31" class="st38" width="20.2" height="11.6"/>
			</g>
		</g>
		<path class="st30" d="M28,28.9c0.1,0.3,0.1,0.6,0.1,0.9C28.1,29.6,28.1,29.2,28,28.9"/>
		<g>
			<defs>
				<path id="SVGID_58_" d="M28.1,29.9c0-0.3,0-0.6-0.1-0.9C28.1,29.2,28.1,29.6,28.1,29.9"/>
			</defs>
			<clipPath id="SVGID_59_">
				<use xlink:href="#SVGID_58_"  style="overflow:visible;"/>
			</clipPath>
			<g class="st39">
				
					<linearGradient id="SVGID_60_" gradientUnits="userSpaceOnUse" x1="-247.2778" y1="596.7645" x2="-246.2778" y2="596.7645" gradientTransform="matrix(77.86 0 0 -77.86 19247.8398 46493.4922)">
					<stop  offset="0" style="stop-color:#35190B"/>
					<stop  offset="0.16" style="stop-color:#D0B075"/>
					<stop  offset="0.26" style="stop-color:#B3945C"/>
					<stop  offset="0.38" style="stop-color:#967742"/>
					<stop  offset="0.48" style="stop-color:#836533"/>
					<stop  offset="0.56" style="stop-color:#7D5F2D"/>
					<stop  offset="0.61" style="stop-color:#866835"/>
					<stop  offset="0.7" style="stop-color:#A0814B"/>
					<stop  offset="0.82" style="stop-color:#C8A96E"/>
					<stop  offset="0.84" style="stop-color:#D0B075"/>
					<stop  offset="1" style="stop-color:#7D5F2D"/>
				</linearGradient>
				<rect x="28" y="28.9" class="st40" width="0.1" height="0.9"/>
			</g>
		</g>
		<g>
			<defs>
				<path id="SVGID_61_" d="M19.9,16.9c-0.4,0.2-3.5,1.5-3.5,1.5S19.5,17.1,19.9,16.9L19.9,16.9 M19.9,16.9L19.9,16.9 M19.9,16.9
					L19.9,16.9 M19.9,16.9c0.7-0.3,5.5-2.1,8.8-1s6.3,4,8.2,6.7c1.5,2.2,2.8,6.6,3.2,8.4c-0.5-1.8-1.8-6.2-3.2-8.4
					C35,19.9,32,17,28.7,15.9c-0.7-0.2-1.5-0.3-2.3-0.3C24.2,15.7,22,16.1,19.9,16.9"/>
			</defs>
			<clipPath id="SVGID_62_">
				<use xlink:href="#SVGID_61_"  style="overflow:visible;"/>
			</clipPath>
			<g class="st41">
				<g>
					
						<linearGradient id="SVGID_63_" gradientUnits="userSpaceOnUse" x1="-251.8522" y1="596.7842" x2="-250.8421" y2="596.7842" gradientTransform="matrix(5.832993e-15 -95.26 -95.26 -5.832993e-15 56877.9219 -23921.1211)">
						<stop  offset="0" style="stop-color:#2A0B00"/>
						<stop  offset="0.21" style="stop-color:#2A0B00"/>
						<stop  offset="1" style="stop-color:#FFFAD4"/>
					</linearGradient>
					<rect x="16.4" y="14.8" class="st42" width="23.8" height="16.2"/>
				</g>
			</g>
		</g>
		<g>
			<defs>
				<path id="SVGID_64_" d="M18,45.7c0.5-1.1,1.1-2.6,1.7-3.8C19.1,43.1,18.5,44.6,18,45.7 M25.9,34.2c-2.4,2.2-4.5,4.8-6.1,7.6
					L19.7,42l0.1-0.1C21.5,39,23.5,36.5,25.9,34.2c1.3-1.1,2.1-2.6,2.2-4.3C28,31.6,27.2,33.2,25.9,34.2"/>
			</defs>
			<clipPath id="SVGID_65_">
				<use xlink:href="#SVGID_64_"  style="overflow:visible;"/>
			</clipPath>
			<g class="st43">
				<g>
					
						<linearGradient id="SVGID_66_" gradientUnits="userSpaceOnUse" x1="-251.8421" y1="596.7944" x2="-250.8421" y2="596.7944" gradientTransform="matrix(5.832993e-15 -95.26 -95.26 -5.832993e-15 56873.7227 -23920.1602)">
						<stop  offset="0" style="stop-color:#2A0B00"/>
						<stop  offset="0.21" style="stop-color:#2A0B00"/>
						<stop  offset="1" style="stop-color:#FFFAD4"/>
					</linearGradient>
					<rect x="18" y="29.9" class="st44" width="10.1" height="15.8"/>
				</g>
			</g>
		</g>
		<g>
			<defs>
				<path id="SVGID_67_" d="M20.5,24.3c0.1-0.7,0.8-1.2,1.5-1.1c0.7,0.1,1.2,0.8,1.1,1.5c-0.1,0.6-0.7,1.1-1.3,1.1
					C21,25.8,20.4,25.1,20.5,24.3 M19.9,16.9c-0.4,0.2-3.5,1.5-3.5,1.5c1.6,2.4,2.4,5.3,2.4,8.2c-0.1,3.9-1.4,7.7-3.7,10.9l1.9,1.4
					c0,0,2.2-4.1,6-5.4s5-3.9,5.2-4.7l0,0l0,0c0.1,0.3,0.1,0.6,0.1,0.9c-0.1,1.7-0.9,3.2-2.2,4.3c-2.4,2.2-4.5,4.8-6.1,7.6
					c-0.6,1.2-1.3,2.7-1.8,3.9c-0.1,0.3-0.2,0.5-0.3,0.8c0.3-0.5,0.6-1,0.9-1.5c0.5-0.8,1-1.6,1.4-2.2c1.5-2.3,3.1-4.5,5-6.5
					c2.3-2.5,4.1-4,7.2-4.4c2.7-0.3,5.3-0.4,8-0.7c-0.5-1.8-1.8-6.2-3.2-8.4c-1.9-2.8-4.9-5.7-8.2-6.7c-0.7-0.2-1.5-0.3-2.3-0.3
					C24.2,15.6,22,16,19.9,16.9"/>
			</defs>
			<clipPath id="SVGID_68_">
				<use xlink:href="#SVGID_67_"  style="overflow:visible;"/>
			</clipPath>
			<g class="st45">
				
					<linearGradient id="SVGID_69_" gradientUnits="userSpaceOnUse" x1="-258.4462" y1="606.015" x2="-257.4462" y2="606.015" gradientTransform="matrix(-25.14 0 0 25.14 -6456.6196 -15204.2295)">
					<stop  offset="0" style="stop-color:#A2682A"/>
					<stop  offset="8.000000e-02" style="stop-color:#BE8C3C"/>
					<stop  offset="0.18" style="stop-color:#BE8C3C"/>
					<stop  offset="0.27" style="stop-color:#D3B15F"/>
					<stop  offset="0.34" style="stop-color:#FAF0A0"/>
					<stop  offset="0.41" style="stop-color:#FFFFC2"/>
					<stop  offset="0.48" style="stop-color:#FAF0A0"/>
					<stop  offset="0.59" style="stop-color:#D3B15F"/>
					<stop  offset="0.67" style="stop-color:#BE8C3C"/>
					<stop  offset="0.77" style="stop-color:#B17B32"/>
					<stop  offset="0.83" style="stop-color:#BB8332"/>
					<stop  offset="0.88" style="stop-color:#D4A245"/>
					<stop  offset="0.93" style="stop-color:#E1B453"/>
					<stop  offset="1" style="stop-color:#A4692A"/>
				</linearGradient>
				<rect x="15" y="15.5" class="st46" width="25.1" height="30.9"/>
			</g>
		</g>
		<g>
			<defs>
				<rect id="SVGID_70_" x="17" y="26.5" width="34.9" height="23.2"/>
			</defs>
			<clipPath id="SVGID_71_">
				<use xlink:href="#SVGID_70_"  style="overflow:visible;"/>
			</clipPath>
			<g class="st47">
				<g>
					<defs>
						<path id="SVGID_72_" d="M47.7,29.9c-1.6,0.8-3.3,1.4-5,1.7c-3.4,0.6-6.8,0.5-10.2,1c-3.1,0.4-5,2-7.2,4.5
							c-1.9,2-3.5,4.2-5,6.5c-1.3,1.9-2.4,4-3.2,6.2c0.8-1.4,1.7-2.7,2.3-3.8c1.5-2.3,3.3-4.5,5.2-6.5c2.4-2.5,4.3-4,7.6-4.5
							c3.6-0.5,7.2-0.4,10.7-1c1.4-0.2,2.7-0.6,4-1.1c0.2-0.1,0.4-0.2,0.6-0.4c0.4-0.2,0.8-0.5,1.1-0.7c0.8-0.6,1.5-1.4,2-2.2
							c0.3-0.5,0.6-1,0.8-1.6c0.1-0.3,0.2-0.5,0.3-0.8c0-0.2,0.1-0.4,0.1-0.5v-0.2C50.6,27.8,49.2,29,47.7,29.9"/>
					</defs>
					<clipPath id="SVGID_73_">
						<use xlink:href="#SVGID_72_"  style="overflow:visible;"/>
					</clipPath>
					<g class="st48">
						<g>
							
								<linearGradient id="SVGID_74_" gradientUnits="userSpaceOnUse" x1="-243.9248" y1="593.9649" x2="-242.9248" y2="593.9649" gradientTransform="matrix(34.9 0 0 -34.9 8530.2607 20767.4609)">
								<stop  offset="0" style="stop-color:#FFFFFF"/>
								<stop  offset="0.61" style="stop-color:#FFFFFF"/>
								<stop  offset="1" style="stop-color:#FFFAD4"/>
							</linearGradient>
							<rect x="17" y="26.5" class="st49" width="34.9" height="23.2"/>
						</g>
					</g>
				</g>
			</g>
		</g>
		<g>
			<defs>
				<rect id="SVGID_75_" x="-8.4" y="15.5" width="48.6" height="26.7"/>
			</defs>
			<clipPath id="SVGID_76_">
				<use xlink:href="#SVGID_75_"  style="overflow:visible;"/>
			</clipPath>
			<g class="st50">
				<g>
					<defs>
						<path id="SVGID_77_" d="M28.9,19.3c3.2,1.4,6,4.7,7.6,7.7c0.7,1.4,1.2,2.8,1.5,4.3c0.7,0,1.4-0.1,2.1-0.2
							c-0.5-1.8-1.8-6.2-3.2-8.4c-1.9-2.8-4.9-5.7-8.2-6.7s-8.3,0.9-8.8,1.1s-3.5,1.5-3.5,1.5c0.4,0.5,0.7,1.1,1,1.7l2.7-0.8
							C20.5,19.2,25.7,17.9,28.9,19.3"/>
					</defs>
					<clipPath id="SVGID_78_">
						<use xlink:href="#SVGID_77_"  style="overflow:visible;"/>
					</clipPath>
					<g class="st51">
						<g>
							
								<linearGradient id="SVGID_79_" gradientUnits="userSpaceOnUse" x1="-241.0724" y1="591.6376" x2="-240.0724" y2="591.6376" gradientTransform="matrix(23.77 0 0 -23.77 5746.7002 14086.2207)">
								<stop  offset="0" style="stop-color:#FFFFFF"/>
								<stop  offset="0.61" style="stop-color:#FFFFFF"/>
								<stop  offset="1" style="stop-color:#FFFAD4"/>
							</linearGradient>
							<rect x="16.4" y="14.8" class="st52" width="23.8" height="16.4"/>
						</g>
					</g>
				</g>
			</g>
		</g>
		<g>
			<defs>
				<rect id="SVGID_80_" x="14.7" y="45.3" width="31.6" height="19.2"/>
			</defs>
			<clipPath id="SVGID_81_">
				<use xlink:href="#SVGID_80_"  style="overflow:visible;"/>
			</clipPath>
			<g class="st53">
				<g>
					<defs>
						<path id="SVGID_82_" d="M17,54.7c2-3.3,5.4-5.5,9.3-6c2.8-0.4,9.1,0.8,13.5,0.7c2.1,0,4.1-0.6,5.9-1.8c0.1-0.5,0.3-1,0.4-1.4
							c0-0.2,0.2-0.9,0.2-0.9c-1.9,1.5-4.2,2.3-6.5,2.2c-4.4,0.1-10.6-1-13.5-0.7c-3.9,0.5-7.3,2.7-9.3,6c-1.5,2.9-2.2,6.2-2.3,9.5
							c0,0.7,0,1.5,0,2.2c0-0.1,0-0.3,0-0.4C14.8,60.9,15.5,57.7,17,54.7"/>
					</defs>
					<clipPath id="SVGID_83_">
						<use xlink:href="#SVGID_82_"  style="overflow:visible;"/>
					</clipPath>
					<g class="st54">
						<g>
							
								<linearGradient id="SVGID_84_" gradientUnits="userSpaceOnUse" x1="-243.291" y1="593.4604" x2="-242.2907" y2="593.4604" gradientTransform="matrix(31.62 0 0 -31.62 7707.3203 18820.1211)">
								<stop  offset="0" style="stop-color:#FFFFFF"/>
								<stop  offset="0.61" style="stop-color:#FFFFFF"/>
								<stop  offset="1" style="stop-color:#FFFAD4"/>
							</linearGradient>
							<rect x="14.7" y="45.3" class="st55" width="31.6" height="19.2"/>
						</g>
					</g>
				</g>
			</g>
		</g>
		<g>
			<defs>
				<rect id="SVGID_85_" x="20.1" y="54.8" width="11.8" height="26.7"/>
			</defs>
			<clipPath id="SVGID_86_">
				<use xlink:href="#SVGID_85_"  style="overflow:visible;"/>
			</clipPath>
			<g class="st56">
				<g>
					<defs>
						<path id="SVGID_87_" d="M21.1,65.4c-0.7,2-1,4.1-1,6.2c0,3.5,1,6.6,3.8,8.2c2.3,1.3,5.5,2.3,8,1.3c-2.4,0.2-4.8-0.4-6.8-1.6
							c-2.8-1.5-3.8-4.7-3.8-8.2c0-2.1,0.4-4.2,1-6.2c0.8-2.3,1.9-4.4,3.2-6.4c0.8-1.3,1.7-2.6,2.5-3.9c0.1-0.1-0.3,0-0.3,0
							c-0.3,0.1-0.6,0.2-0.9,0.3c-0.8,1.3-1.7,2.5-2.5,3.8C22.9,61,21.8,63.2,21.1,65.4"/>
					</defs>
					<clipPath id="SVGID_88_">
						<use xlink:href="#SVGID_87_"  style="overflow:visible;"/>
					</clipPath>
					<g class="st57">
						<g>
							
								<linearGradient id="SVGID_89_" gradientUnits="userSpaceOnUse" x1="-231.9779" y1="584.0857" x2="-230.9779" y2="584.0857" gradientTransform="matrix(11.78 0 0 -11.78 2752.7 6948.9097)">
								<stop  offset="0" style="stop-color:#FFFFFF"/>
								<stop  offset="0.43" style="stop-color:#FFFAD4"/>
								<stop  offset="1" style="stop-color:#FFFAD4"/>
							</linearGradient>
							<rect x="20.1" y="54.7" class="st58" width="11.8" height="27.4"/>
						</g>
					</g>
				</g>
			</g>
		</g>
	</g>
</g>
</svg>
