<?xml version="1.0" encoding="utf-8"?>
<!-- Generator: Adobe Illustrator 23.0.3, SVG Export Plug-In . SVG Version: 6.00 Build 0)  -->
<svg version="1.1" id="Capa_1" xmlns="http://www.w3.org/2000/svg" xmlns:xlink="http://www.w3.org/1999/xlink" x="0px" y="0px"
	 viewBox="0 0 338.5 97.2" style="enable-background:new 0 0 338.5 97.2;" xml:space="preserve">
<style type="text/css">
	.st0{clip-path:url(#SVGID_2_);}
	.st1{fill:url(#SVGID_3_);}
	.st2{clip-path:url(#SVGID_5_);}
	.st3{fill:url(#SVGID_6_);}
	.st4{clip-path:url(#SVGID_8_);}
	.st5{fill:url(#SVGID_9_);}
	.st6{clip-path:url(#SVGID_11_);}
	.st7{fill:url(#SVGID_12_);}
	.st8{clip-path:url(#SVGID_14_);}
	.st9{fill:url(#SVGID_15_);}
	.st10{clip-path:url(#SVGID_17_);}
	.st11{fill:url(#SVGID_18_);}
	.st12{clip-path:url(#SVGID_20_);}
	.st13{fill:url(#SVGID_21_);}
	.st14{clip-path:url(#SVGID_23_);}
	.st15{fill:url(#SVGID_24_);}
	.st16{clip-path:url(#SVGID_26_);}
	.st17{fill:url(#SVGID_27_);}
	.st18{clip-path:url(#SVGID_29_);}
	.st19{fill:url(#SVGID_30_);}
	.st20{clip-path:url(#SVGID_32_);}
	.st21{clip-path:url(#SVGID_36_);}
	.st22{fill:url(#SVGID_37_);}
	.st23{clip-path:url(#SVGID_39_);}
	.st24{fill:url(#SVGID_40_);}
	.st25{clip-path:url(#SVGID_42_);}
	.st26{fill:url(#SVGID_43_);}
	.st27{clip-path:url(#SVGID_45_);}
	.st28{fill:#FFFFFF;}
	.st29{fill:#7C411E;}
	.st30{clip-path:url(#SVGID_47_);}
	.st31{fill:url(#SVGID_48_);}
	.st32{clip-path:url(#SVGID_50_);}
	.st33{fill:url(#SVGID_51_);}
	.st34{clip-path:url(#SVGID_53_);}
	.st35{fill:url(#SVGID_54_);}
	.st36{clip-path:url(#SVGID_56_);}
	.st37{fill:url(#SVGID_57_);}
	.st38{clip-path:url(#SVGID_59_);}
	.st39{fill:url(#SVGID_60_);}
	.st40{clip-path:url(#SVGID_62_);}
	.st41{fill:url(#SVGID_63_);}
	.st42{clip-path:url(#SVGID_65_);}
	.st43{fill:url(#SVGID_66_);}
	.st44{clip-path:url(#SVGID_68_);}
	.st45{fill:url(#SVGID_69_);}
	.st46{clip-path:url(#SVGID_71_);}
	.st47{clip-path:url(#SVGID_73_);}
	.st48{fill:url(#SVGID_74_);}
	.st49{clip-path:url(#SVGID_76_);}
	.st50{clip-path:url(#SVGID_78_);}
	.st51{fill:url(#SVGID_79_);}
	.st52{clip-path:url(#SVGID_81_);}
	.st53{clip-path:url(#SVGID_83_);}
	.st54{fill:url(#SVGID_84_);}
	.st55{clip-path:url(#SVGID_86_);}
	.st56{clip-path:url(#SVGID_88_);}
	.st57{fill:url(#SVGID_89_);}
</style>
<title>logo-FC</title>
<g>
	<g id="Capa_1-2">
		<g>
			<defs>
				<polygon id="SVGID_1_" points="73.4,55.6 71.4,55.6 71.4,43.9 78.2,43.9 78.2,45.7 73.4,45.7 73.4,48.9 77.2,48.9 77.2,50.7 
					73.4,50.7 				"/>
			</defs>
			<clipPath id="SVGID_2_">
				<use xlink:href="#SVGID_1_"  style="overflow:visible;"/>
			</clipPath>
			<g class="st0">
				
					<linearGradient id="SVGID_3_" gradientUnits="userSpaceOnUse" x1="-265.3723" y1="581.1447" x2="-264.3723" y2="581.1447" gradientTransform="matrix(7.176431e-16 -11.72 -11.72 -7.176431e-16 6885.8403 -3054.4702)">
					<stop  offset="0" style="stop-color:#A2682A"/>
					<stop  offset="8.000000e-02" style="stop-color:#BE8C3C"/>
					<stop  offset="0.18" style="stop-color:#BE8C3C"/>
					<stop  offset="0.27" style="stop-color:#D3B15F"/>
					<stop  offset="0.34" style="stop-color:#FAF0A0"/>
					<stop  offset="0.41" style="stop-color:#FFFFC2"/>
					<stop  offset="0.48" style="stop-color:#FAF0A0"/>
					<stop  offset="0.59" style="stop-color:#D3B15F"/>
					<stop  offset="0.67" style="stop-color:#BE8C3C"/>
					<stop  offset="0.77" style="stop-color:#B17B32"/>
					<stop  offset="0.83" style="stop-color:#BB8332"/>
					<stop  offset="0.88" style="stop-color:#D4A245"/>
					<stop  offset="0.93" style="stop-color:#E1B453"/>
					<stop  offset="1" style="stop-color:#A4692A"/>
				</linearGradient>
				<rect x="71.4" y="43.9" class="st1" width="6.8" height="11.7"/>
			</g>
		</g>
		<g>
			<defs>
				<rect id="SVGID_4_" x="95.8" y="43.9" width="1.9" height="11.7"/>
			</defs>
			<clipPath id="SVGID_5_">
				<use xlink:href="#SVGID_4_"  style="overflow:visible;"/>
			</clipPath>
			<g class="st2">
				
					<linearGradient id="SVGID_6_" gradientUnits="userSpaceOnUse" x1="-265.3723" y1="581.3094" x2="-264.3723" y2="581.3094" gradientTransform="matrix(7.176431e-16 -11.72 -11.72 -7.176431e-16 6909.7002 -3054.4702)">
					<stop  offset="0" style="stop-color:#A2682A"/>
					<stop  offset="8.000000e-02" style="stop-color:#BE8C3C"/>
					<stop  offset="0.18" style="stop-color:#BE8C3C"/>
					<stop  offset="0.27" style="stop-color:#D3B15F"/>
					<stop  offset="0.34" style="stop-color:#FAF0A0"/>
					<stop  offset="0.41" style="stop-color:#FFFFC2"/>
					<stop  offset="0.48" style="stop-color:#FAF0A0"/>
					<stop  offset="0.59" style="stop-color:#D3B15F"/>
					<stop  offset="0.67" style="stop-color:#BE8C3C"/>
					<stop  offset="0.77" style="stop-color:#B17B32"/>
					<stop  offset="0.83" style="stop-color:#BB8332"/>
					<stop  offset="0.88" style="stop-color:#D4A245"/>
					<stop  offset="0.93" style="stop-color:#E1B453"/>
					<stop  offset="1" style="stop-color:#A4692A"/>
				</linearGradient>
				<rect x="95.8" y="43.9" class="st3" width="1.9" height="11.7"/>
			</g>
		</g>
		<g>
			<defs>
				<path id="SVGID_7_" d="M118.2,45.5h1.8c0.8,0,1.6,0.4,2.1,1.2c0.5,0.9,0.8,1.9,0.8,2.9c0.1,1.1-0.3,2.3-0.9,3.2
					c-0.6,0.7-1.4,1.1-2.2,1.1h-1.6L118.2,45.5z M116.2,43.9v11.7h3.5c1.5,0.1,2.9-0.5,3.9-1.7c0.9-1.1,1.4-2.6,1.4-4.2
					c0-1.5-0.4-3-1.3-4.2c-0.9-1.1-2.2-1.8-3.5-1.7H116.2z"/>
			</defs>
			<clipPath id="SVGID_8_">
				<use xlink:href="#SVGID_7_"  style="overflow:visible;"/>
			</clipPath>
			<g class="st4">
				
					<linearGradient id="SVGID_9_" gradientUnits="userSpaceOnUse" x1="-265.3723" y1="581.4901" x2="-264.3723" y2="581.4901" gradientTransform="matrix(7.176431e-16 -11.72 -11.72 -7.176431e-16 6935.6699 -3054.4702)">
					<stop  offset="0" style="stop-color:#A2682A"/>
					<stop  offset="8.000000e-02" style="stop-color:#BE8C3C"/>
					<stop  offset="0.18" style="stop-color:#BE8C3C"/>
					<stop  offset="0.27" style="stop-color:#D3B15F"/>
					<stop  offset="0.34" style="stop-color:#FAF0A0"/>
					<stop  offset="0.41" style="stop-color:#FFFFC2"/>
					<stop  offset="0.48" style="stop-color:#FAF0A0"/>
					<stop  offset="0.59" style="stop-color:#D3B15F"/>
					<stop  offset="0.67" style="stop-color:#BE8C3C"/>
					<stop  offset="0.77" style="stop-color:#B17B32"/>
					<stop  offset="0.83" style="stop-color:#BB8332"/>
					<stop  offset="0.88" style="stop-color:#D4A245"/>
					<stop  offset="0.93" style="stop-color:#E1B453"/>
					<stop  offset="1" style="stop-color:#A4692A"/>
				</linearGradient>
				<rect x="116.2" y="43.9" class="st5" width="8.8" height="11.7"/>
			</g>
		</g>
		<g>
			<defs>
				<polygon id="SVGID_10_" points="143,43.9 143,55.6 150,55.6 150,53.8 144.9,53.8 144.9,50.5 148.9,50.5 148.9,48.8 144.9,48.8 
					144.9,45.6 149.9,45.6 149.9,43.9 				"/>
			</defs>
			<clipPath id="SVGID_11_">
				<use xlink:href="#SVGID_10_"  style="overflow:visible;"/>
			</clipPath>
			<g class="st6">
				
					<linearGradient id="SVGID_12_" gradientUnits="userSpaceOnUse" x1="-265.3723" y1="581.6855" x2="-264.3723" y2="581.6855" gradientTransform="matrix(7.176431e-16 -11.72 -11.72 -7.176431e-16 6963.8301 -3054.4702)">
					<stop  offset="0" style="stop-color:#A2682A"/>
					<stop  offset="8.000000e-02" style="stop-color:#BE8C3C"/>
					<stop  offset="0.18" style="stop-color:#BE8C3C"/>
					<stop  offset="0.27" style="stop-color:#D3B15F"/>
					<stop  offset="0.34" style="stop-color:#FAF0A0"/>
					<stop  offset="0.41" style="stop-color:#FFFFC2"/>
					<stop  offset="0.48" style="stop-color:#FAF0A0"/>
					<stop  offset="0.59" style="stop-color:#D3B15F"/>
					<stop  offset="0.67" style="stop-color:#BE8C3C"/>
					<stop  offset="0.77" style="stop-color:#B17B32"/>
					<stop  offset="0.83" style="stop-color:#BB8332"/>
					<stop  offset="0.88" style="stop-color:#D4A245"/>
					<stop  offset="0.93" style="stop-color:#E1B453"/>
					<stop  offset="1" style="stop-color:#A4692A"/>
				</linearGradient>
				<rect x="143" y="43.9" class="st7" width="7" height="11.7"/>
			</g>
		</g>
		<g>
			<defs>
				<polygon id="SVGID_13_" points="167.8,43.9 167.8,55.6 174.4,55.6 174.4,53.7 169.8,53.7 169.8,43.9 				"/>
			</defs>
			<clipPath id="SVGID_14_">
				<use xlink:href="#SVGID_13_"  style="overflow:visible;"/>
			</clipPath>
			<g class="st8">
				
					<linearGradient id="SVGID_15_" gradientUnits="userSpaceOnUse" x1="-265.3723" y1="581.8721" x2="-264.3723" y2="581.8721" gradientTransform="matrix(7.176431e-16 -11.72 -11.72 -7.176431e-16 6990.6499 -3054.4702)">
					<stop  offset="0" style="stop-color:#A2682A"/>
					<stop  offset="8.000000e-02" style="stop-color:#BE8C3C"/>
					<stop  offset="0.18" style="stop-color:#BE8C3C"/>
					<stop  offset="0.27" style="stop-color:#D3B15F"/>
					<stop  offset="0.34" style="stop-color:#FAF0A0"/>
					<stop  offset="0.41" style="stop-color:#FFFFC2"/>
					<stop  offset="0.48" style="stop-color:#FAF0A0"/>
					<stop  offset="0.59" style="stop-color:#D3B15F"/>
					<stop  offset="0.67" style="stop-color:#BE8C3C"/>
					<stop  offset="0.77" style="stop-color:#B17B32"/>
					<stop  offset="0.83" style="stop-color:#BB8332"/>
					<stop  offset="0.88" style="stop-color:#D4A245"/>
					<stop  offset="0.93" style="stop-color:#E1B453"/>
					<stop  offset="1" style="stop-color:#A4692A"/>
				</linearGradient>
				<rect x="167.8" y="43.9" class="st9" width="6.6" height="11.7"/>
			</g>
		</g>
		<g>
			<defs>
				<rect id="SVGID_16_" x="192" y="43.9" width="1.9" height="11.7"/>
			</defs>
			<clipPath id="SVGID_17_">
				<use xlink:href="#SVGID_16_"  style="overflow:visible;"/>
			</clipPath>
			<g class="st10">
				
					<linearGradient id="SVGID_18_" gradientUnits="userSpaceOnUse" x1="-265.3723" y1="582.0364" x2="-264.3723" y2="582.0364" gradientTransform="matrix(7.176431e-16 -11.72 -11.72 -7.176431e-16 7014.4502 -3054.4702)">
					<stop  offset="0" style="stop-color:#A2682A"/>
					<stop  offset="8.000000e-02" style="stop-color:#BE8C3C"/>
					<stop  offset="0.18" style="stop-color:#BE8C3C"/>
					<stop  offset="0.27" style="stop-color:#D3B15F"/>
					<stop  offset="0.34" style="stop-color:#FAF0A0"/>
					<stop  offset="0.41" style="stop-color:#FFFFC2"/>
					<stop  offset="0.48" style="stop-color:#FAF0A0"/>
					<stop  offset="0.59" style="stop-color:#D3B15F"/>
					<stop  offset="0.67" style="stop-color:#BE8C3C"/>
					<stop  offset="0.77" style="stop-color:#B17B32"/>
					<stop  offset="0.83" style="stop-color:#BB8332"/>
					<stop  offset="0.88" style="stop-color:#D4A245"/>
					<stop  offset="0.93" style="stop-color:#E1B453"/>
					<stop  offset="1" style="stop-color:#A4692A"/>
				</linearGradient>
				<rect x="192" y="43.9" class="st11" width="1.9" height="11.7"/>
			</g>
		</g>
		<g>
			<defs>
				<path id="SVGID_19_" d="M213.1,45.4c-0.8,1.3-1.2,2.8-1.2,4.4c0,1,0.2,2.1,0.5,3.1c0.3,0.9,0.8,1.6,1.4,2.2
					c0.7,0.6,1.5,0.9,2.4,0.8c1,0.1,2.1-0.4,2.8-1.1c0.7-0.8,1.2-1.8,1.2-2.9l-1.8-0.2c0,0.6-0.3,1.3-0.7,1.8
					c-0.4,0.5-0.9,0.7-1.5,0.7c-0.7,0-1.4-0.4-1.7-1.1c-0.5-1-0.7-2.1-0.6-3.2c-0.1-1.1,0.1-2.2,0.6-3.2c0.3-0.7,1-1.1,1.7-1.1
					c1.1,0,1.8,0.9,2.2,2.7l1.8-0.2c-0.1-1.2-0.6-2.3-1.3-3.1c-1.7-1.6-4.3-1.4-5.8,0.5C213.2,45.3,213.1,45.3,213.1,45.4"/>
			</defs>
			<clipPath id="SVGID_20_">
				<use xlink:href="#SVGID_19_"  style="overflow:visible;"/>
			</clipPath>
			<g class="st12">
				
					<linearGradient id="SVGID_21_" gradientUnits="userSpaceOnUse" x1="-264.9568" y1="582.6659" x2="-263.9568" y2="582.6659" gradientTransform="matrix(7.396867e-16 -12.08 -12.08 -7.396867e-16 7254.6997 -3144.6699)">
					<stop  offset="0" style="stop-color:#A2682A"/>
					<stop  offset="8.000000e-02" style="stop-color:#BE8C3C"/>
					<stop  offset="0.18" style="stop-color:#BE8C3C"/>
					<stop  offset="0.27" style="stop-color:#D3B15F"/>
					<stop  offset="0.34" style="stop-color:#FAF0A0"/>
					<stop  offset="0.41" style="stop-color:#FFFFC2"/>
					<stop  offset="0.48" style="stop-color:#FAF0A0"/>
					<stop  offset="0.59" style="stop-color:#D3B15F"/>
					<stop  offset="0.67" style="stop-color:#BE8C3C"/>
					<stop  offset="0.77" style="stop-color:#B17B32"/>
					<stop  offset="0.83" style="stop-color:#BB8332"/>
					<stop  offset="0.88" style="stop-color:#D4A245"/>
					<stop  offset="0.93" style="stop-color:#E1B453"/>
					<stop  offset="1" style="stop-color:#A4692A"/>
				</linearGradient>
				<rect x="211.9" y="43.7" class="st13" width="8.4" height="12.1"/>
			</g>
		</g>
		<g>
			<defs>
				<path id="SVGID_22_" d="M240.2,53c-0.5-1-0.7-2.1-0.6-3.2c0-2.9,0.8-4.4,2.5-4.4c0.8,0,1.5,0.4,1.8,1.2c0.4,1,0.6,2.1,0.6,3.2
					c0.1,1.2-0.1,2.4-0.7,3.4c-0.4,0.6-1.1,1-1.8,1C241.2,54.2,240.5,53.7,240.2,53 M238.7,45.4c-0.9,1.2-1.3,2.7-1.3,4.3
					c0,1.5,0.4,3.1,1.2,4.3c0.8,1.2,2,1.8,3.3,1.8c1.3,0,2.5-0.6,3.4-1.7c0.9-1.3,1.3-2.8,1.3-4.4c0.1-1.5-0.4-3.1-1.2-4.3
					c-0.8-1.1-2-1.8-3.3-1.7C240.7,43.6,239.5,44.3,238.7,45.4"/>
			</defs>
			<clipPath id="SVGID_23_">
				<use xlink:href="#SVGID_22_"  style="overflow:visible;"/>
			</clipPath>
			<g class="st14">
				
					<linearGradient id="SVGID_24_" gradientUnits="userSpaceOnUse" x1="-264.9568" y1="582.8549" x2="-263.9568" y2="582.8549" gradientTransform="matrix(7.396867e-16 -12.08 -12.08 -7.396867e-16 7282.8799 -3144.6699)">
					<stop  offset="0" style="stop-color:#A2682A"/>
					<stop  offset="8.000000e-02" style="stop-color:#BE8C3C"/>
					<stop  offset="0.18" style="stop-color:#BE8C3C"/>
					<stop  offset="0.27" style="stop-color:#D3B15F"/>
					<stop  offset="0.34" style="stop-color:#FAF0A0"/>
					<stop  offset="0.41" style="stop-color:#FFFFC2"/>
					<stop  offset="0.48" style="stop-color:#FAF0A0"/>
					<stop  offset="0.59" style="stop-color:#D3B15F"/>
					<stop  offset="0.67" style="stop-color:#BE8C3C"/>
					<stop  offset="0.77" style="stop-color:#B17B32"/>
					<stop  offset="0.83" style="stop-color:#BB8332"/>
					<stop  offset="0.88" style="stop-color:#D4A245"/>
					<stop  offset="0.93" style="stop-color:#E1B453"/>
					<stop  offset="1" style="stop-color:#A4692A"/>
				</linearGradient>
				<rect x="237.4" y="43.7" class="st15" width="9.2" height="12.1"/>
			</g>
		</g>
		<g>
			<defs>
				<rect id="SVGID_25_" x="264.5" y="43.9" width="1.9" height="11.7"/>
			</defs>
			<clipPath id="SVGID_26_">
				<use xlink:href="#SVGID_25_"  style="overflow:visible;"/>
			</clipPath>
			<g class="st16">
				
					<linearGradient id="SVGID_27_" gradientUnits="userSpaceOnUse" x1="-265.3723" y1="582.5851" x2="-264.3723" y2="582.5851" gradientTransform="matrix(7.176431e-16 -11.72 -11.72 -7.176431e-16 7093.3999 -3054.4702)">
					<stop  offset="0" style="stop-color:#A2682A"/>
					<stop  offset="8.000000e-02" style="stop-color:#BE8C3C"/>
					<stop  offset="0.18" style="stop-color:#BE8C3C"/>
					<stop  offset="0.27" style="stop-color:#D3B15F"/>
					<stop  offset="0.34" style="stop-color:#FAF0A0"/>
					<stop  offset="0.41" style="stop-color:#FFFFC2"/>
					<stop  offset="0.48" style="stop-color:#FAF0A0"/>
					<stop  offset="0.59" style="stop-color:#D3B15F"/>
					<stop  offset="0.67" style="stop-color:#BE8C3C"/>
					<stop  offset="0.77" style="stop-color:#B17B32"/>
					<stop  offset="0.83" style="stop-color:#BB8332"/>
					<stop  offset="0.88" style="stop-color:#D4A245"/>
					<stop  offset="0.93" style="stop-color:#E1B453"/>
					<stop  offset="1" style="stop-color:#A4692A"/>
				</linearGradient>
				<rect x="264.5" y="43.9" class="st17" width="1.9" height="11.7"/>
			</g>
		</g>
		<g>
			<defs>
				<polygon id="SVGID_28_" points="291.6,43.9 291.6,52.1 290.9,50.8 287.1,43.9 285,43.9 285,55.6 286.6,55.6 286.6,47 
					286.8,47.6 287.2,48.1 291.2,55.6 293.1,55.6 293.1,43.9 				"/>
			</defs>
			<clipPath id="SVGID_29_">
				<use xlink:href="#SVGID_28_"  style="overflow:visible;"/>
			</clipPath>
			<g class="st18">
				
					<linearGradient id="SVGID_30_" gradientUnits="userSpaceOnUse" x1="-265.3723" y1="582.7632" x2="-264.3723" y2="582.7632" gradientTransform="matrix(7.176431e-16 -11.72 -11.72 -7.176431e-16 7119.0503 -3054.4702)">
					<stop  offset="0" style="stop-color:#A2682A"/>
					<stop  offset="8.000000e-02" style="stop-color:#BE8C3C"/>
					<stop  offset="0.18" style="stop-color:#BE8C3C"/>
					<stop  offset="0.27" style="stop-color:#D3B15F"/>
					<stop  offset="0.34" style="stop-color:#FAF0A0"/>
					<stop  offset="0.41" style="stop-color:#FFFFC2"/>
					<stop  offset="0.48" style="stop-color:#FAF0A0"/>
					<stop  offset="0.59" style="stop-color:#D3B15F"/>
					<stop  offset="0.67" style="stop-color:#BE8C3C"/>
					<stop  offset="0.77" style="stop-color:#B17B32"/>
					<stop  offset="0.83" style="stop-color:#BB8332"/>
					<stop  offset="0.88" style="stop-color:#D4A245"/>
					<stop  offset="0.93" style="stop-color:#E1B453"/>
					<stop  offset="1" style="stop-color:#A4692A"/>
				</linearGradient>
				<rect x="285" y="43.9" class="st19" width="8.1" height="11.7"/>
			</g>
		</g>
		<g>
			<defs>
				<polygon id="SVGID_31_" points="-22.8,-0.8 73,-0.5 92.9,99.5 -2.8,99.3 				"/>
			</defs>
			<clipPath id="SVGID_32_">
				<use xlink:href="#SVGID_31_"  style="overflow:visible;"/>
			</clipPath>
			<g class="st20">
				<g>
					<defs>
						<polygon id="SVGID_33_" points="-22.8,-0.8 73,-0.5 92.9,99.5 -2.8,99.3 						"/>
					</defs>
					<clipPath id="SVGID_34_">
						<use xlink:href="#SVGID_33_"  style="overflow:visible;"/>
					</clipPath>
				</g>
			</g>
		</g>
		<g>
			<defs>
				<path id="SVGID_35_" d="M25.8,56.3c-0.6,0.2-1.1,0.5-1.7,0.8c-1.4,0.7-2.6,1.7-3.7,2.7c-1.9,2.1-3.2,4.6-3.9,7.3
					c-0.5,1.7-1.1,3.4-1.5,5.2c0.9,3.2,2.7,6.1,5.3,8c2.4,1.5,5,2.4,7.7,2.8c1.8,0.2,3.6-0.4,5-1.7c1.7-1.9,2.8-4.3,3.2-6.9
					c0.8-3.8-0.5-9-3.6-9.6S27,68,27,68c1.6-1.6,3.8-0.9,5.6-0.2c3.1,1.3,3.5,6.4,2.4,9.8c-0.6,1.8-1.8,3.3-3.3,4.3
					c-2.5,1.6-5.9,0.5-8.3-0.9c-2.6-1.5-3.6-4.7-3.5-8.2c0-2.1,0.3-4.2,0.9-6.2c0.7-2.3,1.7-4.4,3-6.4c0.8-1.3,1.5-2.6,2.3-3.9
					c1.2-1.9,0,0,0,0C26,56.4,25.9,56.4,25.8,56.3"/>
			</defs>
			<clipPath id="SVGID_36_">
				<use xlink:href="#SVGID_35_"  style="overflow:visible;"/>
			</clipPath>
			<g class="st21">
				
					<linearGradient id="SVGID_37_" gradientUnits="userSpaceOnUse" x1="-259.1171" y1="606.7081" x2="-258.1826" y2="606.7081" gradientTransform="matrix(-22.98 0 0 22.98 -5919.3198 -13872.2695)">
					<stop  offset="0" style="stop-color:#A2682A"/>
					<stop  offset="8.000000e-02" style="stop-color:#BE8C3C"/>
					<stop  offset="0.18" style="stop-color:#BE8C3C"/>
					<stop  offset="0.27" style="stop-color:#D3B15F"/>
					<stop  offset="0.34" style="stop-color:#FAF0A0"/>
					<stop  offset="0.41" style="stop-color:#FFFFC2"/>
					<stop  offset="0.48" style="stop-color:#FAF0A0"/>
					<stop  offset="0.59" style="stop-color:#D3B15F"/>
					<stop  offset="0.67" style="stop-color:#BE8C3C"/>
					<stop  offset="0.77" style="stop-color:#B17B32"/>
					<stop  offset="0.83" style="stop-color:#BB8332"/>
					<stop  offset="0.88" style="stop-color:#D4A245"/>
					<stop  offset="0.93" style="stop-color:#E1B453"/>
					<stop  offset="1" style="stop-color:#A4692A"/>
				</linearGradient>
				<rect x="15" y="56.3" class="st22" width="22" height="27.2"/>
			</g>
		</g>
		<g>
			<defs>
				<path id="SVGID_38_" d="M44.5,31.4c-1.5,0.8-3,1.4-4.7,1.7c-3.2,0.6-6.4,0.5-9.6,1c-2.9,0.4-4.7,2-6.7,4.5
					c-1.7,2-3.3,4.2-4.7,6.5c-1.1,1.9-3.1,5-3.3,7.5c0-0.5,1-1.3,1.8-1.8c1.9-2,4.3-3.2,7-3.6c2.1-0.1,4.2,0,6.3,0.3
					c2.1,0.2,4.2,0.4,6.3,0.3c1.8,0,3.6-0.5,5.2-1.5c1.5-1.2,2.6-2.7,3.4-4.5c0.8-2.2,1.4-4.5,1.8-6.9c0.6-2.2,1-4.5,1.1-6.8
					C47.3,29.3,46,30.5,44.5,31.4"/>
			</defs>
			<clipPath id="SVGID_39_">
				<use xlink:href="#SVGID_38_"  style="overflow:visible;"/>
			</clipPath>
			<g class="st23">
				
					<linearGradient id="SVGID_40_" gradientUnits="userSpaceOnUse" x1="-255.9478" y1="604.0558" x2="-255.0125" y2="604.0558" gradientTransform="matrix(-35.15 0 0 35.15 -8947.7607 -21192.3301)">
					<stop  offset="0" style="stop-color:#A2682A"/>
					<stop  offset="8.000000e-02" style="stop-color:#BE8C3C"/>
					<stop  offset="0.18" style="stop-color:#BE8C3C"/>
					<stop  offset="0.27" style="stop-color:#D3B15F"/>
					<stop  offset="0.34" style="stop-color:#FAF0A0"/>
					<stop  offset="0.41" style="stop-color:#FFFFC2"/>
					<stop  offset="0.48" style="stop-color:#FAF0A0"/>
					<stop  offset="0.59" style="stop-color:#D3B15F"/>
					<stop  offset="0.67" style="stop-color:#BE8C3C"/>
					<stop  offset="0.77" style="stop-color:#B17B32"/>
					<stop  offset="0.83" style="stop-color:#BB8332"/>
					<stop  offset="0.88" style="stop-color:#D4A245"/>
					<stop  offset="0.93" style="stop-color:#E1B453"/>
					<stop  offset="1" style="stop-color:#A4692A"/>
				</linearGradient>
				<rect x="15.6" y="28" class="st24" width="32.9" height="24.5"/>
			</g>
		</g>
		<g>
			<defs>
				<path id="SVGID_41_" d="M37.2,49c-2.1,0-4.2-0.1-6.3-0.4c-2.1-0.3-4.2-0.4-6.3-0.3c-3.6,0.5-6.8,2.7-8.7,6
					c-1.4,2.9-2.1,6.2-2.1,9.5c-0.1,2.9,0.1,5.8,0.6,8.7c0.4-3.2,1.3-6.3,2.6-9.1c0.7-1.2,1.4-2.4,2.3-3.4c1.1-1.4,2.3-2.6,3.7-3.6
					c2.6-1.5,5.5-2.3,8.5-2.3c0.8,0,1.7,0,2.5,0.1c1.1,0.2,2.2,0.3,3.3,0.2c1.1-0.2,2.2-0.6,3.1-1.2c1.6-1,2.2-3.5,2.7-5.4
					c0-0.2,0.2-0.9,0.2-0.9C41.5,48.3,39.4,49.1,37.2,49"/>
			</defs>
			<clipPath id="SVGID_42_">
				<use xlink:href="#SVGID_41_"  style="overflow:visible;"/>
			</clipPath>
			<g class="st25">
				
					<linearGradient id="SVGID_43_" gradientUnits="userSpaceOnUse" x1="-256.6123" y1="604.6256" x2="-255.6777" y2="604.6256" gradientTransform="matrix(-31.62 0 0 31.62 -8070.6406 -19058.6309)">
					<stop  offset="0" style="stop-color:#A2682A"/>
					<stop  offset="8.000000e-02" style="stop-color:#BE8C3C"/>
					<stop  offset="0.18" style="stop-color:#BE8C3C"/>
					<stop  offset="0.27" style="stop-color:#D3B15F"/>
					<stop  offset="0.34" style="stop-color:#FAF0A0"/>
					<stop  offset="0.41" style="stop-color:#FFFFC2"/>
					<stop  offset="0.48" style="stop-color:#FAF0A0"/>
					<stop  offset="0.59" style="stop-color:#D3B15F"/>
					<stop  offset="0.67" style="stop-color:#BE8C3C"/>
					<stop  offset="0.77" style="stop-color:#B17B32"/>
					<stop  offset="0.83" style="stop-color:#BB8332"/>
					<stop  offset="0.88" style="stop-color:#D4A245"/>
					<stop  offset="0.93" style="stop-color:#E1B453"/>
					<stop  offset="1" style="stop-color:#A4692A"/>
				</linearGradient>
				<rect x="13.6" y="46.8" class="st26" width="29.7" height="25.7"/>
			</g>
		</g>
		<g>
			<defs>
				<rect id="SVGID_44_" x="30.3" y="65" width="6.2" height="16"/>
			</defs>
			<clipPath id="SVGID_45_">
				<use xlink:href="#SVGID_44_"  style="overflow:visible;"/>
			</clipPath>
			<g class="st27">
				<path class="st28" d="M32.7,65.1c-0.8-0.2-1.6-0.1-2.4,0.3c0.4-0.1,0.9-0.1,1.3,0c2.5,0.5,3.7,3.8,3.8,7.1
					c0.2,1.6,0.1,3.3-0.4,4.8l0,0c-0.1,0.7-0.3,1.3-0.6,1.9c-0.3,0.6-0.6,1.1-0.9,1.7l0,0c1.4-1.8,2.3-4,2.7-6.3
					C37.1,70.7,35.8,65.6,32.7,65.1"/>
			</g>
		</g>
		<path class="st29" d="M21.3,35.1c-3.6,1.3-5.6,5.4-5.6,5.4L14,39l1.7,1.4C15.7,40.5,17.8,36.3,21.3,35.1c3.6-1.3,4.7-3.9,4.9-4.7
			C26,31.2,24.9,33.8,21.3,35.1"/>
		<g>
			<defs>
				<path id="SVGID_46_" d="M21.3,35.1c-3.6,1.3-5.6,5.4-5.6,5.4L14,39l1.7,1.4C15.7,40.5,17.8,36.3,21.3,35.1L21.3,35.1 M21.3,35.1
					c3.5-1.2,4.6-3.8,4.8-4.6C25.9,31.3,24.8,33.8,21.3,35.1 M26.2,30.4L26.2,30.4"/>
			</defs>
			<clipPath id="SVGID_47_">
				<use xlink:href="#SVGID_46_"  style="overflow:visible;"/>
			</clipPath>
			<g class="st30">
				
					<linearGradient id="SVGID_48_" gradientUnits="userSpaceOnUse" x1="-247.2682" y1="596.7374" x2="-246.3336" y2="596.7374" gradientTransform="matrix(77.67 0 0 -77.67 19200.3496 46384.0195)">
					<stop  offset="0" style="stop-color:#35190B"/>
					<stop  offset="0.16" style="stop-color:#D0B075"/>
					<stop  offset="0.26" style="stop-color:#B3945C"/>
					<stop  offset="0.38" style="stop-color:#967742"/>
					<stop  offset="0.48" style="stop-color:#836533"/>
					<stop  offset="0.56" style="stop-color:#7D5F2D"/>
					<stop  offset="0.61" style="stop-color:#866835"/>
					<stop  offset="0.7" style="stop-color:#A0814B"/>
					<stop  offset="0.82" style="stop-color:#C8A96E"/>
					<stop  offset="0.84" style="stop-color:#D0B075"/>
					<stop  offset="1" style="stop-color:#7D5F2D"/>
				</linearGradient>
				<rect x="14" y="30.4" class="st31" width="12.1" height="10.1"/>
			</g>
		</g>
		<path class="st29" d="M26.2,30.4L26.2,30.4L26.2,30.4"/>
		<g>
			<defs>
				<polyline id="SVGID_49_" points="26.2,30.4 26.2,30.4 26.2,30.4 				"/>
			</defs>
			<clipPath id="SVGID_50_">
				<use xlink:href="#SVGID_49_"  style="overflow:visible;"/>
			</clipPath>
			<g class="st32">
				
					<linearGradient id="SVGID_51_" gradientUnits="userSpaceOnUse" x1="-246.7773" y1="596.6544" x2="-246.7772" y2="596.6544" gradientTransform="matrix(74.94 0 0 -74.94 18519.2598 44743.7031)">
					<stop  offset="0" style="stop-color:#35190B"/>
					<stop  offset="0.16" style="stop-color:#D0B075"/>
					<stop  offset="0.26" style="stop-color:#B3945C"/>
					<stop  offset="0.38" style="stop-color:#967742"/>
					<stop  offset="0.48" style="stop-color:#836533"/>
					<stop  offset="0.56" style="stop-color:#7D5F2D"/>
					<stop  offset="0.61" style="stop-color:#866835"/>
					<stop  offset="0.7" style="stop-color:#A0814B"/>
					<stop  offset="0.82" style="stop-color:#C8A96E"/>
					<stop  offset="0.84" style="stop-color:#D0B075"/>
					<stop  offset="1" style="stop-color:#7D5F2D"/>
				</linearGradient>
				<rect x="26.1" y="30.4" class="st33" width="0" height="0"/>
			</g>
		</g>
		<path class="st29" d="M18.6,44.2c-0.4,0.6-0.8,1.4-1.3,2.2C17.8,45.6,18.3,44.8,18.6,44.2"/>
		<g>
			<defs>
				<path id="SVGID_52_" d="M17.3,46.4c0.5-0.8,0.9-1.6,1.3-2.2C18.3,44.8,17.8,45.6,17.3,46.4"/>
			</defs>
			<clipPath id="SVGID_53_">
				<use xlink:href="#SVGID_52_"  style="overflow:visible;"/>
			</clipPath>
			<g class="st34">
				
					<linearGradient id="SVGID_54_" gradientUnits="userSpaceOnUse" x1="-247.2769" y1="596.7264" x2="-246.3143" y2="596.7264" gradientTransform="matrix(77.65 0 0 -77.65 19196.502 46381.0703)">
					<stop  offset="0" style="stop-color:#35190B"/>
					<stop  offset="0.16" style="stop-color:#D0B075"/>
					<stop  offset="0.26" style="stop-color:#B3945C"/>
					<stop  offset="0.38" style="stop-color:#967742"/>
					<stop  offset="0.48" style="stop-color:#836533"/>
					<stop  offset="0.56" style="stop-color:#7D5F2D"/>
					<stop  offset="0.61" style="stop-color:#866835"/>
					<stop  offset="0.7" style="stop-color:#A0814B"/>
					<stop  offset="0.82" style="stop-color:#C8A96E"/>
					<stop  offset="0.84" style="stop-color:#D0B075"/>
					<stop  offset="1" style="stop-color:#7D5F2D"/>
				</linearGradient>
				<rect x="17.3" y="44.2" class="st35" width="1.3" height="2.2"/>
			</g>
		</g>
		<path class="st29" d="M30,33.2c-2.9,0.4-4.7,2-6.7,4.5c-1.7,2-3.3,4.2-4.7,6.5c1.4-2.3,2.9-4.5,4.7-6.5
			C25.4,35.2,27.1,33.7,30,33.2c2.5-0.3,5-0.4,7.5-0.7C35,32.8,32.5,32.9,30,33.2"/>
		<g>
			<defs>
				<path id="SVGID_55_" d="M30,33.2c-2.9,0.4-4.7,2-6.7,4.5c-1.7,2-3.3,4.2-4.7,6.5c1.4-2.3,2.9-4.5,4.7-6.5
					C25.4,35.2,27.1,33.7,30,33.2c2.5-0.3,5-0.4,7.5-0.7C35,32.8,32.5,32.9,30,33.2"/>
			</defs>
			<clipPath id="SVGID_56_">
				<use xlink:href="#SVGID_55_"  style="overflow:visible;"/>
			</clipPath>
			<g class="st36">
				
					<linearGradient id="SVGID_57_" gradientUnits="userSpaceOnUse" x1="-247.2695" y1="596.7319" x2="-246.335" y2="596.7319" gradientTransform="matrix(77.68 0 0 -77.68 19203.5391 46392.4688)">
					<stop  offset="0" style="stop-color:#35190B"/>
					<stop  offset="0.16" style="stop-color:#D0B075"/>
					<stop  offset="0.26" style="stop-color:#B3945C"/>
					<stop  offset="0.38" style="stop-color:#967742"/>
					<stop  offset="0.48" style="stop-color:#836533"/>
					<stop  offset="0.56" style="stop-color:#7D5F2D"/>
					<stop  offset="0.61" style="stop-color:#866835"/>
					<stop  offset="0.7" style="stop-color:#A0814B"/>
					<stop  offset="0.82" style="stop-color:#C8A96E"/>
					<stop  offset="0.84" style="stop-color:#D0B075"/>
					<stop  offset="1" style="stop-color:#7D5F2D"/>
				</linearGradient>
				<rect x="18.6" y="32.5" class="st37" width="18.9" height="11.6"/>
			</g>
		</g>
		<path class="st29" d="M26.2,30.4c0.1,0.3,0.1,0.6,0.1,0.9C26.3,31.1,26.2,30.7,26.2,30.4"/>
		<g>
			<defs>
				<path id="SVGID_58_" d="M26.3,31.4c0-0.3,0-0.6-0.1-0.9C26.2,30.7,26.3,31.1,26.3,31.4"/>
			</defs>
			<clipPath id="SVGID_59_">
				<use xlink:href="#SVGID_58_"  style="overflow:visible;"/>
			</clipPath>
			<g class="st38">
				
					<linearGradient id="SVGID_60_" gradientUnits="userSpaceOnUse" x1="-247.2736" y1="596.7452" x2="-246.3391" y2="596.7452" gradientTransform="matrix(77.86 0 0 -77.86 19247.8398 46493.4922)">
					<stop  offset="0" style="stop-color:#35190B"/>
					<stop  offset="0.16" style="stop-color:#D0B075"/>
					<stop  offset="0.26" style="stop-color:#B3945C"/>
					<stop  offset="0.38" style="stop-color:#967742"/>
					<stop  offset="0.48" style="stop-color:#836533"/>
					<stop  offset="0.56" style="stop-color:#7D5F2D"/>
					<stop  offset="0.61" style="stop-color:#866835"/>
					<stop  offset="0.7" style="stop-color:#A0814B"/>
					<stop  offset="0.82" style="stop-color:#C8A96E"/>
					<stop  offset="0.84" style="stop-color:#D0B075"/>
					<stop  offset="1" style="stop-color:#7D5F2D"/>
				</linearGradient>
				<rect x="26.2" y="30.4" class="st39" width="0.1" height="0.9"/>
			</g>
		</g>
		<g>
			<defs>
				<path id="SVGID_61_" d="M18.6,18.4c-0.4,0.2-3.3,1.5-3.3,1.5S18.2,18.6,18.6,18.4L18.6,18.4 M18.6,18.4L18.6,18.4 M18.6,18.4
					L18.6,18.4 M18.6,18.4c0.7-0.3,5.2-2.1,8.2-1s5.9,4,7.7,6.7c1.4,2.2,2.6,6.6,3,8.4c-0.4-1.8-1.7-6.2-3-8.4
					c-1.7-2.8-4.6-5.7-7.7-6.7c-0.7-0.2-1.4-0.3-2.1-0.3C22.6,17.2,20.5,17.6,18.6,18.4"/>
			</defs>
			<clipPath id="SVGID_62_">
				<use xlink:href="#SVGID_61_"  style="overflow:visible;"/>
			</clipPath>
			<g class="st40">
				<g>
					
						<linearGradient id="SVGID_63_" gradientUnits="userSpaceOnUse" x1="-251.8679" y1="596.8038" x2="-250.8579" y2="596.8038" gradientTransform="matrix(5.832993e-15 -95.26 -95.26 -5.832993e-15 56877.9219 -23921.1211)">
						<stop  offset="0" style="stop-color:#2A0B00"/>
						<stop  offset="0.21" style="stop-color:#2A0B00"/>
						<stop  offset="1" style="stop-color:#FFFAD4"/>
					</linearGradient>
					<rect x="15.3" y="16.3" class="st41" width="22.2" height="16.2"/>
				</g>
			</g>
		</g>
		<g>
			<defs>
				<path id="SVGID_64_" d="M16.8,47.2c0.4-1.1,1-2.6,1.6-3.8C17.9,44.6,17.3,46.1,16.8,47.2 M24.2,35.7C22,38,20,40.5,18.5,43.3
					l-0.1,0.1l0.1-0.1C20,40.5,22,38,24.2,35.7c1.2-1.1,2-2.6,2.1-4.3C26.2,33.1,25.4,34.7,24.2,35.7"/>
			</defs>
			<clipPath id="SVGID_65_">
				<use xlink:href="#SVGID_64_"  style="overflow:visible;"/>
			</clipPath>
			<g class="st42">
				<g>
					
						<linearGradient id="SVGID_66_" gradientUnits="userSpaceOnUse" x1="-251.8579" y1="596.8105" x2="-250.8579" y2="596.8105" gradientTransform="matrix(5.832993e-15 -95.26 -95.26 -5.832993e-15 56873.7227 -23920.1602)">
						<stop  offset="0" style="stop-color:#2A0B00"/>
						<stop  offset="0.21" style="stop-color:#2A0B00"/>
						<stop  offset="1" style="stop-color:#FFFAD4"/>
					</linearGradient>
					<rect x="16.8" y="31.4" class="st43" width="9.5" height="15.8"/>
				</g>
			</g>
		</g>
		<g>
			<defs>
				<path id="SVGID_67_" d="M19.1,25.8c0.1-0.7,0.8-1.2,1.4-1.1c0.7,0.1,1.1,0.8,1,1.5c-0.1,0.6-0.6,1.1-1.2,1.1
					C19.6,27.3,19.1,26.6,19.1,25.8 M18.6,18.4c-0.4,0.2-3.3,1.5-3.3,1.5c1.5,2.4,2.3,5.3,2.2,8.2C17.4,32,16.2,35.8,14,39l1.7,1.4
					c0,0,2-4.1,5.6-5.4s4.7-3.9,4.8-4.7l0,0l0,0c0.1,0.3,0.1,0.6,0.1,0.9c-0.1,1.7-0.8,3.2-2.1,4.3c-2.2,2.2-4.2,4.8-5.7,7.6
					c-0.6,1.2-1.2,2.7-1.7,3.9c-0.1,0.3-0.2,0.5-0.3,0.8c0.3-0.5,0.5-1,0.8-1.5c0.5-0.8,0.9-1.6,1.3-2.2c1.4-2.3,2.9-4.5,4.7-6.5
					c2.1-2.5,3.8-4,6.7-4.5c2.5-0.3,5-0.4,7.5-0.7c-0.4-1.8-1.7-6.2-3-8.4c-1.7-2.8-4.6-5.7-7.7-6.7c-0.7-0.2-1.4-0.3-2.1-0.3
					C22.6,17.1,20.6,17.5,18.6,18.4"/>
			</defs>
			<clipPath id="SVGID_68_">
				<use xlink:href="#SVGID_67_"  style="overflow:visible;"/>
			</clipPath>
			<g class="st44">
				
					<linearGradient id="SVGID_69_" gradientUnits="userSpaceOnUse" x1="-258.3397" y1="606.0747" x2="-257.4051" y2="606.0747" gradientTransform="matrix(-25.14 0 0 25.14 -6456.6196 -15204.2295)">
					<stop  offset="0" style="stop-color:#A2682A"/>
					<stop  offset="8.000000e-02" style="stop-color:#BE8C3C"/>
					<stop  offset="0.18" style="stop-color:#BE8C3C"/>
					<stop  offset="0.27" style="stop-color:#D3B15F"/>
					<stop  offset="0.34" style="stop-color:#FAF0A0"/>
					<stop  offset="0.41" style="stop-color:#FFFFC2"/>
					<stop  offset="0.48" style="stop-color:#FAF0A0"/>
					<stop  offset="0.59" style="stop-color:#D3B15F"/>
					<stop  offset="0.67" style="stop-color:#BE8C3C"/>
					<stop  offset="0.77" style="stop-color:#B17B32"/>
					<stop  offset="0.83" style="stop-color:#BB8332"/>
					<stop  offset="0.88" style="stop-color:#D4A245"/>
					<stop  offset="0.93" style="stop-color:#E1B453"/>
					<stop  offset="1" style="stop-color:#A4692A"/>
				</linearGradient>
				<rect x="14" y="17" class="st45" width="23.5" height="30.9"/>
			</g>
		</g>
		<g>
			<defs>
				<rect id="SVGID_70_" x="15.9" y="28" width="32.6" height="23.2"/>
			</defs>
			<clipPath id="SVGID_71_">
				<use xlink:href="#SVGID_70_"  style="overflow:visible;"/>
			</clipPath>
			<g class="st46">
				<g>
					<defs>
						<path id="SVGID_72_" d="M44.5,31.4c-1.5,0.8-3,1.4-4.7,1.7c-3.2,0.6-6.4,0.5-9.6,1c-2.9,0.4-4.7,2-6.7,4.5
							c-1.7,2-3.3,4.2-4.7,6.5c-1.2,1.9-2.3,4-3,6.2c0.7-1.4,1.6-2.7,2.2-3.8c1.4-2.3,3.1-4.5,4.9-6.5c2.2-2.5,4-4,7.1-4.5
							c3.3-0.5,6.7-0.4,10-1c1.3-0.2,2.5-0.6,3.7-1.1c0.2-0.1,0.4-0.2,0.6-0.4c0.4-0.2,0.7-0.5,1.1-0.7c0.7-0.6,1.4-1.4,1.9-2.2
							c0.3-0.5,0.5-1,0.7-1.6c0.1-0.3,0.2-0.5,0.3-0.8c0-0.2,0.1-0.4,0.1-0.5V28C47.3,29.3,46,30.5,44.5,31.4"/>
					</defs>
					<clipPath id="SVGID_73_">
						<use xlink:href="#SVGID_72_"  style="overflow:visible;"/>
					</clipPath>
					<g class="st47">
						<g>
							
								<linearGradient id="SVGID_74_" gradientUnits="userSpaceOnUse" x1="-243.9576" y1="593.9218" x2="-243.0231" y2="593.9218" gradientTransform="matrix(34.9 0 0 -34.9 8530.2607 20767.4609)">
								<stop  offset="0" style="stop-color:#FFFFFF"/>
								<stop  offset="0.61" style="stop-color:#FFFFFF"/>
								<stop  offset="1" style="stop-color:#FFFAD4"/>
							</linearGradient>
							<rect x="15.9" y="28" class="st48" width="32.6" height="23.2"/>
						</g>
					</g>
				</g>
			</g>
		</g>
		<g>
			<defs>
				<polygon id="SVGID_75_" points="12,19.9 37.5,17 37.5,43.8 12,46.6 				"/>
			</defs>
			<clipPath id="SVGID_76_">
				<use xlink:href="#SVGID_75_"  style="overflow:visible;"/>
			</clipPath>
			<g class="st49">
				<g>
					<defs>
						<path id="SVGID_77_" d="M27,20.8c3,1.4,5.6,4.7,7.1,7.7c0.6,1.4,1.1,2.8,1.4,4.3c0.7,0,1.3-0.1,2-0.2c-0.4-1.8-1.7-6.2-3-8.4
							c-1.7-2.8-4.6-5.7-7.7-6.7s-7.8,0.9-8.2,1.1c-0.4,0.2-3.3,1.5-3.3,1.5c0.4,0.5,0.7,1.1,0.9,1.7l2.5-0.8
							C19.2,20.7,24,19.4,27,20.8"/>
					</defs>
					<clipPath id="SVGID_78_">
						<use xlink:href="#SVGID_77_"  style="overflow:visible;"/>
					</clipPath>
					<g class="st50">
						<g>
							
								<linearGradient id="SVGID_79_" gradientUnits="userSpaceOnUse" x1="-241.4989" y1="591.5604" x2="-240.5644" y2="591.5604" gradientTransform="matrix(23.77 0 0 -23.77 5746.7002 14086.2207)">
								<stop  offset="0" style="stop-color:#FFFFFF"/>
								<stop  offset="0.61" style="stop-color:#FFFFFF"/>
								<stop  offset="1" style="stop-color:#FFFAD4"/>
							</linearGradient>
							<rect x="6.2" y="16.6" class="st51" width="22.2" height="16.4"/>
						</g>
					</g>
				</g>
			</g>
		</g>
		<g>
			<defs>
				<rect id="SVGID_80_" x="13.7" y="46.8" width="29.6" height="19.2"/>
			</defs>
			<clipPath id="SVGID_81_">
				<use xlink:href="#SVGID_80_"  style="overflow:visible;"/>
			</clipPath>
			<g class="st52">
				<g>
					<defs>
						<path id="SVGID_82_" d="M15.9,56.2c1.9-3.3,5.1-5.5,8.7-6c2.7-0.4,8.5,0.8,12.6,0.7c2,0,3.9-0.6,5.5-1.8
							c0.1-0.5,0.3-1,0.4-1.4c0-0.2,0.2-0.9,0.2-0.9c-1.7,1.5-3.9,2.3-6.1,2.2c-4.1,0.1-10-1-12.6-0.7c-3.6,0.5-6.8,2.7-8.7,6
							c-1.4,2.9-2.1,6.2-2.1,9.5c0,0.7,0,1.5,0,2.2c0-0.1,0-0.3,0-0.4C13.8,62.4,14.5,59.2,15.9,56.2"/>
					</defs>
					<clipPath id="SVGID_83_">
						<use xlink:href="#SVGID_82_"  style="overflow:visible;"/>
					</clipPath>
					<g class="st53">
						<g>
							
								<linearGradient id="SVGID_84_" gradientUnits="userSpaceOnUse" x1="-243.3214" y1="593.4129" x2="-242.3865" y2="593.4129" gradientTransform="matrix(31.62 0 0 -31.62 7707.3203 18820.1211)">
								<stop  offset="0" style="stop-color:#FFFFFF"/>
								<stop  offset="0.61" style="stop-color:#FFFFFF"/>
								<stop  offset="1" style="stop-color:#FFFAD4"/>
							</linearGradient>
							<rect x="13.7" y="46.8" class="st54" width="29.6" height="19.2"/>
						</g>
					</g>
				</g>
			</g>
		</g>
		<g>
			<defs>
				<rect id="SVGID_85_" x="18.7" y="56.3" width="11" height="26.7"/>
			</defs>
			<clipPath id="SVGID_86_">
				<use xlink:href="#SVGID_85_"  style="overflow:visible;"/>
			</clipPath>
			<g class="st55">
				<g>
					<defs>
						<path id="SVGID_87_" d="M19.7,66.9c-0.6,2-0.9,4.1-0.9,6.2c0,3.5,0.9,6.6,3.5,8.2c2.2,1.3,5.1,2.3,7.5,1.3
							c-2.2,0.2-4.5-0.4-6.4-1.6c-2.6-1.5-3.6-4.7-3.5-8.2c0-2.1,0.3-4.2,0.9-6.2c0.7-2.3,1.7-4.4,3-6.4c0.8-1.3,1.5-2.6,2.3-3.9
							c0.1-0.1-0.2,0-0.3,0c-0.3,0.1-0.6,0.2-0.9,0.3c-0.8,1.3-1.5,2.5-2.3,3.8C21.4,62.5,20.4,64.7,19.7,66.9"/>
					</defs>
					<clipPath id="SVGID_88_">
						<use xlink:href="#SVGID_87_"  style="overflow:visible;"/>
					</clipPath>
					<g class="st56">
						<g>
							
								<linearGradient id="SVGID_89_" gradientUnits="userSpaceOnUse" x1="-232.0903" y1="583.9581" x2="-231.1557" y2="583.9581" gradientTransform="matrix(11.78 0 0 -11.78 2752.7 6948.9097)">
								<stop  offset="0" style="stop-color:#FFFFFF"/>
								<stop  offset="0.43" style="stop-color:#FFFAD4"/>
								<stop  offset="1" style="stop-color:#FFFAD4"/>
							</linearGradient>
							<rect x="18.7" y="56.2" class="st57" width="11" height="27.4"/>
						</g>
					</g>
				</g>
			</g>
		</g>
	</g>
</g>
</svg>
