<svg xmlns="http://www.w3.org/2000/svg" xmlns:xlink="http://www.w3.org/1999/xlink" viewBox="0 0 302.6 460.82"><defs><style>.cls-1{clip-path:url(#clip-path);}.cls-2{fill:none;}.cls-3{fill:url(#Degradado_sin_nombre_50);}.cls-4{clip-path:url(#clip-path-2);}.cls-5{fill:url(#Degradado_sin_nombre_50-2);}.cls-6{clip-path:url(#clip-path-3);}.cls-7{fill:url(#Degradado_sin_nombre_59);}.cls-8{clip-path:url(#clip-path-4);}.cls-9{fill:url(#Degradado_sin_nombre_59-2);}.cls-10{clip-path:url(#clip-path-5);}.cls-11{fill:url(#Degradado_sin_nombre_59-3);}.cls-12{clip-path:url(#clip-path-6);}.cls-13{fill:url(#Degradado_sin_nombre_61);}.cls-14{clip-path:url(#clip-path-7);}.cls-15{fill:url(#Degradado_sin_nombre_52);}.cls-16{clip-path:url(#clip-path-8);}.cls-17{fill:url(#Degradado_sin_nombre_52-2);}.cls-18{clip-path:url(#clip-path-9);}.cls-19{fill:url(#Degradado_sin_nombre_52-3);}.cls-20{opacity:0.5;}.cls-21{clip-path:url(#clip-path-10);}.cls-22{fill:#fff;}.cls-23{fill:#7c411e;}.cls-24{clip-path:url(#clip-path-11);}.cls-25{fill:url(#Degradado_sin_nombre_47);}.cls-26{clip-path:url(#clip-path-12);}.cls-27{fill:url(#Degradado_sin_nombre_47-2);}.cls-28{clip-path:url(#clip-path-13);}.cls-29{fill:url(#Degradado_sin_nombre_47-3);}.cls-30{clip-path:url(#clip-path-14);}.cls-31{fill:url(#Degradado_sin_nombre_47-4);}.cls-32{clip-path:url(#clip-path-15);}.cls-33{mask:url(#mask);}.cls-34{fill:url(#Degradado_sin_nombre_51);}.cls-35{clip-path:url(#clip-path-16);}.cls-36{mask:url(#mask-2);}.cls-37{fill:url(#Degradado_sin_nombre_51-2);}.cls-38{clip-path:url(#clip-path-17);}.cls-39{fill:url(#Degradado_sin_nombre_52-4);}.cls-40{clip-path:url(#clip-path-18);}.cls-41{clip-path:url(#clip-path-19);}.cls-42{mask:url(#mask-3);}.cls-43{fill:url(#Degradado_sin_nombre_60);}.cls-44{clip-path:url(#clip-path-20);}.cls-45{clip-path:url(#clip-path-21);}.cls-46{mask:url(#mask-4);}.cls-47{fill:url(#Degradado_sin_nombre_60-2);}.cls-48{clip-path:url(#clip-path-22);}.cls-49{clip-path:url(#clip-path-23);}.cls-50{mask:url(#mask-5);}.cls-51{fill:url(#Degradado_sin_nombre_60-3);}.cls-52{clip-path:url(#clip-path-24);}.cls-53{clip-path:url(#clip-path-25);}.cls-54{mask:url(#mask-6);}.cls-55{fill:url(#Degradado_sin_nombre_62);}.cls-56{opacity:0.65;}.cls-57{clip-path:url(#clip-path-26);}.cls-58{clip-path:url(#clip-path-27);}.cls-59{fill:url(#Degradado_sin_nombre_101);}.cls-60{clip-path:url(#clip-path-29);}.cls-61{fill:url(#Degradado_sin_nombre_101-2);}.cls-62{clip-path:url(#clip-path-31);}.cls-63{fill:url(#Degradado_sin_nombre_101-3);}.cls-64{clip-path:url(#clip-path-33);}.cls-65{clip-path:url(#clip-path-34);}.cls-66{fill:url(#Degradado_sin_nombre_101-4);}.cls-67{clip-path:url(#clip-path-36);}.cls-68{fill:url(#Degradado_sin_nombre_101-5);}.cls-69{fill:url(#Degradado_sin_nombre_101-6);}.cls-70{clip-path:url(#clip-path-40);}.cls-71{fill:url(#Degradado_sin_nombre_101-7);}.cls-72{fill:url(#Degradado_sin_nombre_101-8);}.cls-73{clip-path:url(#clip-path-44);}.cls-74{fill:url(#Degradado_sin_nombre_101-9);}.cls-75{fill:url(#Degradado_sin_nombre_101-10);}.cls-76{clip-path:url(#clip-path-48);}.cls-77{fill:url(#Degradado_sin_nombre_101-11);}.cls-78{fill:url(#Degradado_sin_nombre_101-12);}.cls-79{clip-path:url(#clip-path-52);}.cls-80{fill:url(#Degradado_sin_nombre_101-13);}.cls-81{clip-path:url(#clip-path-54);}.cls-82{fill:url(#Degradado_sin_nombre_101-14);}.cls-83{clip-path:url(#clip-path-56);}.cls-84{fill:url(#Degradado_sin_nombre_101-15);}.cls-85{clip-path:url(#clip-path-58);}.cls-86{clip-path:url(#clip-path-59);}.cls-87{fill:url(#Degradado_sin_nombre_101-16);}.cls-88{clip-path:url(#clip-path-61);}.cls-89{clip-path:url(#clip-path-62);}.cls-90{fill:url(#Degradado_sin_nombre_101-17);}.cls-91{clip-path:url(#clip-path-64);}.cls-92{clip-path:url(#clip-path-65);}.cls-93{fill:url(#Degradado_sin_nombre_101-18);}.cls-94{clip-path:url(#clip-path-67);}.cls-95{clip-path:url(#clip-path-68);}.cls-96{fill:url(#Degradado_sin_nombre_101-19);}</style><clipPath id="clip-path"><path class="cls-2" d="M200.65,29s25-8.45,28.68-9.78C225.68,20.53,200.65,29,200.65,29m28.71-9.79h0m0,0,.06,0-.06,0m.06,0,0,0,0,0m0,0,.07,0-.07,0m.07,0h0m0,0h0m0,0h0m0,0c5-1.74,44.64-14.11,70.84-7.08,26.74,7.17,51.21,26.74,66.22,45.66,11.84,14.93,22.25,45.09,26.12,57.14-3.87-12-14.28-42.21-26.12-57.14-15-18.92-39.48-38.49-66.22-45.67a72.4,72.4,0,0,0-18.54-2.14c-23.29,0-48.39,7.87-52.3,9.23"/></clipPath><linearGradient id="Degradado_sin_nombre_50" x1="-569.93" y1="-455.52" x2="-568.93" y2="-455.52" gradientTransform="translate(294983.77 -368320.11) rotate(-90) scale(646.92)" gradientUnits="userSpaceOnUse"><stop offset="0" stop-color="#fff"/><stop offset="0.21" stop-color="#fff"/><stop offset="1"/></linearGradient><clipPath id="clip-path-2"><path class="cls-2" d="M214,210.07c3.81-7.7,9.24-18.07,14.34-26.12-5.1,8.05-10.53,18.42-14.34,26.12m64-77.75c-24.46,19.9-41.1,38.16-49.58,51.54l-.06.09.06-.09c8.48-13.38,25.12-31.64,49.58-51.54,14.91-12.13,17.83-22.8,17.83-29.28,0,6.48-2.92,17.15-17.83,29.28"/></clipPath><linearGradient id="Degradado_sin_nombre_50-2" x1="-569.93" y1="-455.52" x2="-568.93" y2="-455.52" gradientTransform="translate(294946.85 -368330.7) rotate(-90) scale(646.93)" xlink:href="#Degradado_sin_nombre_50"/><clipPath id="clip-path-3"><path class="cls-2" d="M453.51,107.37A160.57,160.57,0,0,1,413,118.56c-27.38,4-55.22,3.72-82.69,6.76-25.24,2.79-40.15,13.28-58.4,30.16a320.81,320.81,0,0,0-40,44c-8,10.8-21.11,27.14-26.2,41.79,6.12-9.46,13.59-18.54,18.93-25.39a328.53,328.53,0,0,1,42-44c19.16-16.88,34.81-27.38,61.3-30.16,28.85-3,58.06-2.73,86.79-6.77a183.33,183.33,0,0,0,32.68-7.53c1.74-.78,3.46-1.58,5.18-2.42,3.1-1.52,6.17-3.12,9.12-4.92,6.05-4.32,11.87-8.82,16.31-14.92a84.08,84.08,0,0,0,6.47-10.58A30,30,0,0,0,487,89c.34-1.18.55-2.4.79-3.6,0-.44,0-.88,0-1.31C476.46,93,467,101.51,453.51,107.37"/></clipPath><linearGradient id="Degradado_sin_nombre_59" x1="-571.15" y1="-455.65" x2="-570.15" y2="-455.65" gradientTransform="translate(161339.71 128713.77) scale(282.12)" gradientUnits="userSpaceOnUse"><stop offset="0" stop-color="#fff"/><stop offset="0.61" stop-color="#fff"/><stop offset="1"/></linearGradient><clipPath id="clip-path-4"><path class="cls-2" d="M302,31.38c25.91,9.78,48.32,31.67,61.39,52,4.8,7.47,9,18.19,12.32,28.77,5.71-.36,11.42-.76,17.12-1.28-3.87-12.06-14.28-42.21-26.13-57.14-15-18.92-39.47-38.49-66.21-45.67S233,13.91,229.36,15.22,200.65,25,200.65,25a68.07,68.07,0,0,1,7.9,11.66c7.93-1.83,19.57-4.54,22-5.15,3.7-.94,45.56-9.91,71.47-.13"/></clipPath><linearGradient id="Degradado_sin_nombre_59-2" x1="-571.6" y1="-455.93" x2="-570.6" y2="-455.93" gradientTransform="translate(110038.88 87667.09) scale(192.16)" xlink:href="#Degradado_sin_nombre_59"/><clipPath id="clip-path-5"><path class="cls-2" d="M205.73,275.17c16.22-23.86,47.2-37.56,75.22-40.53,23-2.46,73.88,5.37,109.11,4.4,24.28-.68,40.2-7.63,47.74-11.88,1.17-3.22,2.21-6.43,3.21-9.48.38-1.17,1.89-6.2,1.89-6.2s-17.61,14.19-52.84,15.17S304,219.8,281,222.25c-28,3-59,16.69-75.22,40.53-12.55,18.45-17,42.24-18.23,64.17-.26,4.93-.27,10-.12,14.94l.12-2.56c1.18-21.93,5.68-45.72,18.23-64.16"/></clipPath><linearGradient id="Degradado_sin_nombre_59-3" x1="-571.25" y1="-455.71" x2="-570.25" y2="-455.71" gradientTransform="translate(146211.37 116767.32) scale(255.62)" xlink:href="#Degradado_sin_nombre_59"/><clipPath id="clip-path-6"><path class="cls-2" d="M238.53,348.14a118.88,118.88,0,0,0-8,42c-.16,23.7,8.2,44.86,30.61,55.25,18.68,8.66,44,15.41,64.62,9-18.55,2.37-39.31-3.61-55.24-11-22.41-10.39-30.76-31.56-30.6-55.26a118.78,118.78,0,0,1,8-42c6.27-16.35,15.63-29.8,26-43.72q9.91-13.31,20.27-26.26c.68-.83-2.06.09-2.28.14a61,61,0,0,0-7.47,2.36q-10.15,12.72-19.9,25.78c-10.36,13.91-19.73,27.37-26,43.71"/></clipPath><linearGradient id="Degradado_sin_nombre_61" x1="-573.05" y1="-456.73" x2="-572.05" y2="-456.73" gradientTransform="translate(54803.88 43863.57) scale(95.23)" gradientUnits="userSpaceOnUse"><stop offset="0" stop-color="#fff"/><stop offset="0.43"/><stop offset="1"/></linearGradient><clipPath id="clip-path-7" transform="translate(-186.03)"><path class="cls-2" d="M291.94,276.29a84.12,84.12,0,0,0-14.59,5.34c-11.36,5.15-22.57,10.89-32.4,18.61-16.69,13.08-26.37,30.51-34,49.93-4.57,11.65-9.09,23.38-12.65,35.37,9.22,27.58,31,46,45.66,54.42s48.51,17.19,66.83,18.43,34.2-4.11,43.12-11.23S375,426.36,382,400.42s-4.23-60.89-31.06-65-49,19.6-49,19.6c14.07-10.61,33.16-6.32,48.13-1.21,26.64,9.09,30.22,43.64,20.62,66.64-5.22,12.5-16.55,23.27-28.58,29.21-21.6,10.69-50.69,3.4-71.51-6.24C248.16,433,239.81,411.84,240,388.14a118.55,118.55,0,0,1,8-42c6.29-16.35,15.64-29.8,26-43.72q9.92-13.31,20.28-26.26c.21-.26.09-.35-.19-.35a10.76,10.76,0,0,0-2.1.49"/></clipPath><linearGradient id="Degradado_sin_nombre_52" x1="-568.7" y1="-454.26" x2="-567.7" y2="-454.26" gradientTransform="translate(-105426.34 -84000.9) rotate(180) scale(185.73)" gradientUnits="userSpaceOnUse"><stop offset="0" stop-color="#a2682a"/><stop offset="0.08" stop-color="#be8c3c"/><stop offset="0.18" stop-color="#be8c3c"/><stop offset="0.27" stop-color="#d3b15f"/><stop offset="0.34" stop-color="#f4efa0"/><stop offset="0.41" stop-color="#f5f8c1"/><stop offset="0.48" stop-color="#f4efa0"/><stop offset="0.59" stop-color="#d3b15f"/><stop offset="0.67" stop-color="#be8c3c"/><stop offset="0.77" stop-color="#b17b32"/><stop offset="0.83" stop-color="#bb8332"/><stop offset="0.88" stop-color="#d4a245"/><stop offset="0.93" stop-color="#e1b453"/><stop offset="1" stop-color="#a4692a"/></linearGradient><clipPath id="clip-path-8" transform="translate(-186.03)"><path class="cls-2" d="M453.51,107.37A160.57,160.57,0,0,1,413,118.56c-27.38,4-55.22,3.72-82.69,6.76-25.24,2.79-40.15,13.28-58.4,30.16a320.81,320.81,0,0,0-40,44c-9.69,13-26.71,34.12-28.23,50.55.28-3.05,8.65-8.53,15.18-12.41,16.84-13.87,39.34-22,60.2-24.26,12.38-1.31,32.85.35,54.61,2,18.64,1.42,38.24,2.84,54.5,2.39,21.78-.6,36.82-6.25,45.14-10.48,12.05-7.77,23.16-18,29.32-30.58,7.17-14.69,11.56-30.56,15.57-46.34,3.74-14.71,9.85-31,9.63-46.29C476.46,93,467,101.51,453.51,107.37"/></clipPath><linearGradient id="Degradado_sin_nombre_52-2" x1="-569.21" y1="-454.55" x2="-568.21" y2="-454.55" gradientTransform="translate(-161443.88 -128995.51) rotate(180) scale(284.16)" xlink:href="#Degradado_sin_nombre_52"/><clipPath id="clip-path-9" transform="translate(-186.03)"><path class="cls-2" d="M390.06,226.65c-16.25.45-35.84-1-54.49-2.4-21.76-1.66-42.23-3.32-54.62-2-28,3-59,16.69-75.22,40.53-12.55,18.45-17,42.24-18.23,64.17-1.47,27.4,4.89,58.71,4.89,58.71,4.12-20.58,10.49-44.36,22.24-61.9,5.68-8.48,12.8-16,20-23.15,9.64-9.55,20.29-18,32.41-24.22,21.74-11.12,49.43-14.85,73.55-15.57a212.35,212.35,0,0,1,21.7.49c9.58.71,18.72,2.66,28.38,1.47a83.79,83.79,0,0,0,27-8.24c13.63-6.81,18.89-23.37,23.3-36.86.39-1.17,1.9-6.2,1.9-6.2s-17.62,14.2-52.85,15.17"/></clipPath><linearGradient id="Degradado_sin_nombre_52-3" x1="-569.1" y1="-454.48" x2="-568.1" y2="-454.48" gradientTransform="translate(-145219.62 -115878.58) rotate(180) scale(255.62)" xlink:href="#Degradado_sin_nombre_52"/><clipPath id="clip-path-10" transform="translate(-186.03)"><rect class="cls-2" x="330.29" y="334.96" width="53.76" height="108.44"/></clipPath><clipPath id="clip-path-11" transform="translate(-186.03)"><path class="cls-2" d="M252.85,128.08c-30.67,8.48-48.2,36.53-48.2,36.53l-15.08-9.78,15.08,9.78s17.53-28.05,48.2-36.53h0m0,0c29.76-8.23,39.55-25.38,41.58-31.15-2,5.77-11.82,22.92-41.58,31.15m41.58-31.15c.06-.17.11-.34.16-.49,0,.15-.1.32-.16.49"/></clipPath><linearGradient id="Degradado_sin_nombre_47" x1="-570.61" y1="-455.35" x2="-569.61" y2="-455.35" gradientTransform="translate(358135.27 286045.98) scale(627.91)" gradientUnits="userSpaceOnUse"><stop offset="0" stop-color="#35190d"/><stop offset="0.16" stop-color="#d0b075"/><stop offset="0.26" stop-color="#b3945c"/><stop offset="0.38" stop-color="#967742"/><stop offset="0.48" stop-color="#836533"/><stop offset="0.56" stop-color="#7d5f2d"/><stop offset="0.61" stop-color="#866835"/><stop offset="0.7" stop-color="#a0814b"/><stop offset="0.82" stop-color="#c8a96e"/><stop offset="0.84" stop-color="#d0b075"/><stop offset="1" stop-color="#7d5f2d"/></linearGradient><clipPath id="clip-path-12" transform="translate(-186.03)"><path class="cls-2" d="M294.72,100.7a2.55,2.55,0,0,0-.1-.24c0,.05.06.13.1.24"/></clipPath><linearGradient id="Degradado_sin_nombre_47-2" x1="-570.21" y1="-455.36" x2="-570.21" y2="-455.36" gradientTransform="translate(347527.99 277542.74) scale(609.29)" xlink:href="#Degradado_sin_nombre_47"/><clipPath id="clip-path-13" transform="translate(-186.03)"><path class="cls-2" d="M229.61,189.71l.28-.37c-.1.12-.19.25-.28.37m.28-.37a322,322,0,0,1,39.77-43.65,321.38,321.38,0,0,0-39.77,43.65m98.17-73.82c-25.23,2.79-40.14,13.28-58.4,30.17,18.26-16.89,33.17-27.38,58.4-30.17,21.49-2.37,43.21-2.71,64.75-4.67-21.54,2-43.26,2.3-64.75,4.67"/></clipPath><linearGradient id="Degradado_sin_nombre_47-3" x1="-570.61" y1="-455.35" x2="-569.61" y2="-455.35" gradientTransform="translate(358167.65 286091.18) scale(627.96)" xlink:href="#Degradado_sin_nombre_47"/><clipPath id="clip-path-14" transform="translate(-186.03)"><path class="cls-2" d="M295.79,107a17.44,17.44,0,0,0-1.07-6.31,17.44,17.44,0,0,1,1.07,6.31"/></clipPath><linearGradient id="Degradado_sin_nombre_47-4" x1="-570.61" y1="-455.35" x2="-569.61" y2="-455.35" gradientTransform="translate(358970.71 286686.5) scale(629.37)" xlink:href="#Degradado_sin_nombre_47"/><clipPath id="clip-path-15" transform="translate(-186.03)"><path class="cls-2" d="M200.65,29s25-8.45,28.68-9.78C225.68,20.53,200.65,29,200.65,29m28.71-9.79h0m0,0,.06,0-.06,0m.06,0,0,0,0,0m0,0,.07,0-.07,0m.07,0h0m0,0h0m0,0h0m0,0c5-1.74,44.64-14.11,70.84-7.08,26.74,7.17,51.21,26.74,66.22,45.66,11.84,14.93,22.25,45.09,26.12,57.14-3.87-12-14.28-42.21-26.12-57.14-15-18.92-39.48-38.49-66.22-45.67a72.4,72.4,0,0,0-18.54-2.14c-23.29,0-48.39,7.87-52.3,9.23"/></clipPath><mask id="mask" x="14.62" y="4.99" width="192.16" height="109.83" maskUnits="userSpaceOnUse"><g transform="translate(-186.03)"><g id="SVGID"><g class="cls-1"><rect class="cls-3" x="200.65" y="4.99" width="192.16" height="109.83"/></g></g></g></mask><linearGradient id="Degradado_sin_nombre_51" x1="-569.93" y1="-455.52" x2="-568.93" y2="-455.52" gradientTransform="translate(294797.8 -368320.06) rotate(-90) scale(646.92)" gradientUnits="userSpaceOnUse"><stop offset="0" stop-color="#2a0b06"/><stop offset="0.21" stop-color="#2a0b06"/><stop offset="1" stop-color="#f7f6d3"/></linearGradient><clipPath id="clip-path-16" transform="translate(-186.03)"><path class="cls-2" d="M214,210.07c3.81-7.7,9.24-18.07,14.34-26.12-5.1,8.05-10.53,18.42-14.34,26.12m64-77.75c-24.46,19.9-41.1,38.16-49.58,51.54l-.06.09.06-.09c8.48-13.38,25.12-31.64,49.58-51.54,14.91-12.13,17.83-22.8,17.83-29.28,0,6.48-2.92,17.15-17.83,29.28"/></clipPath><mask id="mask-2" x="27.95" y="103.04" width="81.81" height="107.03" maskUnits="userSpaceOnUse"><g transform="translate(-186.03)"><g id="SVGID-2" data-name="SVGID"><g class="cls-4"><rect class="cls-5" x="213.98" y="103.04" width="81.81" height="107.03"/></g></g></g></mask><linearGradient id="Degradado_sin_nombre_51-2" x1="-569.93" y1="-455.52" x2="-568.93" y2="-455.52" gradientTransform="translate(294760.82 -368330.7) rotate(-90) scale(646.93)" xlink:href="#Degradado_sin_nombre_51"/><clipPath id="clip-path-17" transform="translate(-186.03)"><path class="cls-2" d="M233.73,65.55a10.58,10.58,0,1,1,10.58,10.58,10.58,10.58,0,0,1-10.58-10.58m-4.37-50.33c-3.58,1.3-28.7,9.78-28.71,9.78S220,46.41,219.74,80.78c-.18,20.62-7.43,45.91-30.18,74.05l15.09,9.78s17.53-28.05,48.19-36.53S293,101.66,294.59,96.44l0,0s.05.12.1.24a17.34,17.34,0,0,1,1.07,6.31c0,6.48-2.92,17.15-17.83,29.28-24.47,19.9-41.1,38.16-49.58,51.54-5.12,8.06-10.58,18.48-14.4,26.21-.95,1.93-1.81,3.7-2.53,5.22,2.2-3.57,4.58-7.09,7-10.46,4-5.62,8-10.81,11.19-15.12a321.37,321.37,0,0,1,40.05-44c18.26-16.89,33.17-27.38,58.4-30.16,21.49-2.38,43.21-2.72,64.75-4.68-3.87-12.06-14.28-42.21-26.13-57.14-15-18.92-39.47-38.49-66.21-45.67A72.48,72.48,0,0,0,281.92,5.9c-23.91,0-49.74,8.29-52.56,9.32"/></clipPath><linearGradient id="Degradado_sin_nombre_52-4" x1="-568.83" y1="-454.33" x2="-567.83" y2="-454.33" gradientTransform="translate(-115405.29 -92229.42) rotate(180) scale(203.25)" xlink:href="#Degradado_sin_nombre_52"/><clipPath id="clip-path-18" transform="translate(-186.03)"><rect class="cls-2" x="205.7" y="84.1" width="282.13" height="157.19"/></clipPath><clipPath id="clip-path-19" transform="translate(-186.03)"><path class="cls-2" d="M453.51,107.37A160.57,160.57,0,0,1,413,118.56c-27.38,4-55.22,3.72-82.69,6.76-25.24,2.79-40.15,13.28-58.4,30.16a320.81,320.81,0,0,0-40,44c-8,10.8-21.11,27.14-26.2,41.79,6.12-9.46,13.59-18.54,18.93-25.39a328.53,328.53,0,0,1,42-44c19.16-16.88,34.81-27.38,61.3-30.16,28.85-3,58.06-2.73,86.79-6.77a183.33,183.33,0,0,0,32.68-7.53c1.74-.78,3.46-1.58,5.18-2.42,3.1-1.52,6.17-3.12,9.12-4.92,6.05-4.32,11.87-8.82,16.31-14.92a84.08,84.08,0,0,0,6.47-10.58A30,30,0,0,0,487,89c.34-1.18.55-2.4.79-3.6,0-.44,0-.88,0-1.31C476.46,93,467,101.51,453.51,107.37"/></clipPath><mask id="mask-3" x="19.66" y="84.1" width="282.13" height="157.19" maskUnits="userSpaceOnUse"><g transform="translate(-186.03)"><g id="SVGID-3" data-name="SVGID"><g class="cls-6"><rect class="cls-7" x="205.7" y="84.1" width="282.13" height="157.19"/></g></g></g></mask><linearGradient id="Degradado_sin_nombre_60" x1="-571.15" y1="-455.65" x2="-570.15" y2="-455.65" gradientTransform="translate(161153.68 128713.77) scale(282.12)" gradientUnits="userSpaceOnUse"><stop offset="0" stop-color="#fff"/><stop offset="0.61" stop-color="#fff"/><stop offset="1" stop-color="#f7f6d3"/></linearGradient><clipPath id="clip-path-20" transform="translate(-186.03)"><rect class="cls-2" y="5.9" width="392.82" height="181.06"/></clipPath><clipPath id="clip-path-21" transform="translate(-186.03)"><path class="cls-2" d="M302,31.38c25.91,9.78,48.32,31.67,61.39,52,4.8,7.47,9,18.19,12.32,28.77,5.71-.36,11.42-.76,17.12-1.28-3.87-12.06-14.28-42.21-26.13-57.14-15-18.92-39.47-38.49-66.21-45.67S233,13.91,229.36,15.22,200.65,25,200.65,25a68.07,68.07,0,0,1,7.9,11.66c7.93-1.83,19.57-4.54,22-5.15,3.7-.94,45.56-9.91,71.47-.13"/></clipPath><mask id="mask-4" x="14.62" y="0.87" width="192.16" height="111.27" maskUnits="userSpaceOnUse"><g transform="translate(-186.03)"><g id="SVGID-4" data-name="SVGID"><g class="cls-8"><rect class="cls-9" x="200.65" y="0.87" width="192.16" height="111.27"/></g></g></g></mask><linearGradient id="Degradado_sin_nombre_60-2" x1="-571.6" y1="-455.93" x2="-570.6" y2="-455.93" gradientTransform="translate(109852.82 87667.14) scale(192.16)" xlink:href="#Degradado_sin_nombre_60"/><clipPath id="clip-path-22" transform="translate(-186.03)"><rect class="cls-2" x="187.28" y="211.48" width="255.62" height="130.41"/></clipPath><clipPath id="clip-path-23" transform="translate(-186.03)"><path class="cls-2" d="M205.73,275.17c16.22-23.86,47.2-37.56,75.22-40.53,23-2.46,73.88,5.37,109.11,4.4,24.28-.68,40.2-7.63,47.74-11.88,1.17-3.22,2.21-6.43,3.21-9.48.38-1.17,1.89-6.2,1.89-6.2s-17.61,14.19-52.84,15.17S304,219.8,281,222.25c-28,3-59,16.69-75.22,40.53-12.55,18.45-17,42.24-18.23,64.17-.26,4.93-.27,10-.12,14.94l.12-2.56c1.18-21.93,5.68-45.72,18.23-64.16"/></clipPath><mask id="mask-5" x="1.19" y="211.48" width="255.68" height="130.41" maskUnits="userSpaceOnUse"><g transform="translate(-186.03)"><g id="SVGID-5" data-name="SVGID"><g class="cls-10"><rect class="cls-11" x="187.23" y="211.48" width="255.68" height="130.41"/></g></g></g></mask><linearGradient id="Degradado_sin_nombre_60-3" x1="-571.25" y1="-455.71" x2="-570.25" y2="-455.71" gradientTransform="translate(146025.34 116767.32) scale(255.62)" xlink:href="#Degradado_sin_nombre_60"/><clipPath id="clip-path-24" transform="translate(-186.03)"><rect class="cls-2" x="230.54" y="275.8" width="95.24" height="181.13"/></clipPath><clipPath id="clip-path-25" transform="translate(-186.03)"><path class="cls-2" d="M238.53,348.14a118.88,118.88,0,0,0-8,42c-.16,23.7,8.2,44.86,30.61,55.25,18.68,8.66,44,15.41,64.62,9-18.55,2.37-39.31-3.61-55.24-11-22.41-10.39-30.76-31.56-30.6-55.26a118.78,118.78,0,0,1,8-42c6.27-16.35,15.63-29.8,26-43.72q9.91-13.31,20.27-26.26c.68-.83-2.06.09-2.28.14a61,61,0,0,0-7.47,2.36q-10.15,12.72-19.9,25.78c-10.36,13.91-19.73,27.37-26,43.71"/></clipPath><mask id="mask-6" x="44.36" y="275.32" width="95.39" height="185.5" maskUnits="userSpaceOnUse"><g transform="translate(-186.03)"><g id="SVGID-6" data-name="SVGID"><g class="cls-12"><rect class="cls-13" x="230.39" y="275.32" width="95.39" height="185.5"/></g></g></g></mask><linearGradient id="Degradado_sin_nombre_62" x1="-573.05" y1="-456.73" x2="-572.05" y2="-456.73" gradientTransform="translate(54617.85 43863.57) scale(95.23)" gradientUnits="userSpaceOnUse"><stop offset="0" stop-color="#fff"/><stop offset="0.43" stop-color="#f7f6d3"/><stop offset="1" stop-color="#f7f6d3"/></linearGradient><clipPath id="clip-path-26" transform="translate(-186.03)"><rect class="cls-2" x="0.59" y="5.03" width="487.82" height="452.66"/></clipPath><clipPath id="clip-path-27" transform="translate(-186.03)"><path class="cls-2" d="M351.55,334.53c-26.83-4.14-49,19.6-49,19.6,14.06-10.61,33.16-6.32,48.12-1.21,26.64,9.09,30.23,43.64,20.62,66.64-5.22,12.5-16.54,23.26-28.58,29.21-21.6,10.7-50.68,3.4-71.51-6.24-22.41-10.39-30.76-31.56-30.6-55.26a118.56,118.56,0,0,1,8-42c6.28-16.35,15.64-29.8,26-43.72q9.91-13.31,20.28-26.25c.67-.84-2.07.08-2.29.13a84.42,84.42,0,0,0-14.59,5.34c-11.35,5.15-22.57,10.89-32.4,18.61-16.68,13.08-26.37,30.51-34,49.93-4.56,11.65-9.09,23.38-12.64,35.37,9.21,27.58,31,46,45.65,54.42s48.52,17.19,66.83,18.43,34.2-4.11,43.12-11.23,21.07-20.8,28.09-46.74-4.23-60.89-31.06-65"/></clipPath><linearGradient id="Degradado_sin_nombre_101" x1="-568.7" y1="-454.26" x2="-567.7" y2="-454.26" gradientTransform="translate(-105425.71 -84001.78) rotate(180) scale(185.73)" gradientUnits="userSpaceOnUse"><stop offset="0" stop-color="#717171"/><stop offset="0.26" stop-color="#e6e6e6"/><stop offset="0.37" stop-color="#fff"/><stop offset="0.48" stop-color="#e6e6e6"/><stop offset="0.52" stop-color="silver"/><stop offset="0.56" stop-color="#9d9d9d"/><stop offset="0.61" stop-color="#838383"/><stop offset="0.64" stop-color="#737373"/><stop offset="0.67" stop-color="#6e6e6e"/><stop offset="0.71" stop-color="#747474"/><stop offset="0.77" stop-color="#858585"/><stop offset="0.83" stop-color="#a2a2a2"/><stop offset="0.9" stop-color="#c9c9c9"/><stop offset="0.92" stop-color="#d9d9d9"/><stop offset="0.94" stop-color="#e0e0e0"/><stop offset="1" stop-color="#f8f8f8"/></linearGradient><clipPath id="clip-path-29" transform="translate(-186.03)"><path class="cls-2" d="M454.1,106.5a160.57,160.57,0,0,1-40.47,11.19c-27.37,4-55.21,3.72-82.69,6.76-25.23,2.79-40.14,13.28-58.4,30.16a321.39,321.39,0,0,0-40.05,44c-9.69,13-26.71,34.13-28.23,50.55.28-3.05,8.65-8.53,15.18-12.41,16.84-13.87,39.34-22,60.2-24.25,23-2.45,73.88,5.37,109.11,4.39,21.78-.59,36.82-6.25,45.14-10.48,12.05-7.77,23.16-18,29.32-30.58,7.18-14.69,11.56-30.56,15.57-46.34,3.74-14.71,9.85-31,9.63-46.29-11.36,8.89-20.79,17.41-34.31,23.27"/></clipPath><linearGradient id="Degradado_sin_nombre_101-2" x1="-569.21" y1="-454.55" x2="-568.21" y2="-454.55" gradientTransform="translate(-161443.38 -128996.51) rotate(180) scale(284.16)" xlink:href="#Degradado_sin_nombre_101"/><clipPath id="clip-path-31" transform="translate(-186.03)"><path class="cls-2" d="M281.54,221.38c-28,3-59,16.69-75.22,40.53-12.54,18.46-17,42.24-18.23,64.17-1.46,27.4,4.9,58.71,4.9,58.71,4.12-20.58,10.48-44.36,22.23-61.9,5.69-8.47,12.8-16,20-23.15,9.64-9.55,20.29-18,32.41-24.21,21.74-11.13,49.43-14.86,73.56-15.58a212.22,212.22,0,0,1,21.69.49c9.59.71,18.73,2.66,28.38,1.47a83.71,83.71,0,0,0,27-8.24c13.64-6.81,18.89-23.37,23.31-36.86.38-1.17,1.89-6.2,1.89-6.2s-17.61,14.2-52.84,15.17-86.11-6.85-109.12-4.4"/></clipPath><linearGradient id="Degradado_sin_nombre_101-3" x1="-569.1" y1="-454.48" x2="-568.1" y2="-454.48" gradientTransform="translate(-145219.12 -115879.33) rotate(180) scale(255.62)" xlink:href="#Degradado_sin_nombre_101"/><clipPath id="clip-path-33" transform="translate(-186.03)"><rect class="cls-2" x="330.89" y="334.09" width="53.76" height="108.44"/></clipPath><clipPath id="clip-path-34" transform="translate(-186.03)"><path class="cls-2" d="M351.55,334.58a45.43,45.43,0,0,0-20.67,1.82,43.2,43.2,0,0,1,11.28.19c21.27,3.28,32.74,25.9,33.09,48.06a65.33,65.33,0,0,1-3.11,32.69c0,.09,0,.17-.07.25A66.3,66.3,0,0,1,367,430.7a91.31,91.31,0,0,1-7.88,11.46c-.09.13-.18.24-.28.37,8.22-7.86,17.82-21,23.75-42.93,7-26-4.23-60.89-31.06-65"/></clipPath><linearGradient id="Degradado_sin_nombre_101-4" x1="-575.27" y1="-458.02" x2="-574.27" y2="-458.02" gradientTransform="translate(31071.75 25011.58) scale(53.76)" xlink:href="#Degradado_sin_nombre_101"/><clipPath id="clip-path-36" transform="translate(-186.03)"><path class="cls-2" d="M253.44,127.21c-30.67,8.48-48.2,36.53-48.2,36.53L190.16,154l15.08,9.78s17.53-28.05,48.2-36.53,40.12-26.42,41.74-31.64c-1.62,5.22-11.08,23.16-41.74,31.64"/></clipPath><linearGradient id="Degradado_sin_nombre_101-5" x1="-572.78" y1="-456.59" x2="-571.78" y2="-456.59" gradientTransform="translate(60161.06 48083.58) scale(105.03)" xlink:href="#Degradado_sin_nombre_101"/><linearGradient id="Degradado_sin_nombre_101-6" x1="-570.61" y1="-455.35" x2="-569.61" y2="-455.35" gradientTransform="translate(358136.27 286044.98) scale(627.91)" xlink:href="#Degradado_sin_nombre_101"/><clipPath id="clip-path-40" transform="translate(-186.03)"><path class="cls-2" d="M295.31,99.83c0-.11-.08-.19-.1-.24s.06.13.1.24"/></clipPath><linearGradient id="Degradado_sin_nombre_101-7" x1="-3323.94" y1="-2033.22" x2="-3322.94" y2="-2033.22" gradientTransform="translate(439.91 302.02) scale(0.1)" xlink:href="#Degradado_sin_nombre_101"/><linearGradient id="Degradado_sin_nombre_101-8" x1="-570.21" y1="-455.36" x2="-570.21" y2="-455.36" gradientTransform="translate(347528.49 277542.24) scale(609.29)" xlink:href="#Degradado_sin_nombre_101"/><clipPath id="clip-path-44" transform="translate(-186.03)"><path class="cls-2" d="M328.66,114.66c-25.23,2.78-40.15,13.27-58.4,30.16a321.44,321.44,0,0,0-40.06,44,321.44,321.44,0,0,1,40.06-44c18.25-16.89,33.16-27.38,58.4-30.16,21.49-2.38,43.2-2.72,64.74-4.68-21.54,2-43.25,2.3-64.74,4.68"/></clipPath><linearGradient id="Degradado_sin_nombre_101-9" x1="-571.85" y1="-456.06" x2="-570.85" y2="-456.06" gradientTransform="translate(93371.53 74579.03) scale(163.2)" xlink:href="#Degradado_sin_nombre_101"/><linearGradient id="Degradado_sin_nombre_101-10" x1="-570.61" y1="-455.35" x2="-569.61" y2="-455.35" gradientTransform="translate(358168.15 286090.68) scale(627.96)" xlink:href="#Degradado_sin_nombre_101"/><clipPath id="clip-path-48" transform="translate(-186.03)"><path class="cls-2" d="M295.31,99.83a17.14,17.14,0,0,1,1.08,6.31,17.14,17.14,0,0,0-1.08-6.31"/></clipPath><linearGradient id="Degradado_sin_nombre_101-11" x1="-826.03" y1="-601.72" x2="-825.03" y2="-601.72" gradientTransform="translate(993.88 747.37) scale(1.07)" xlink:href="#Degradado_sin_nombre_101"/><linearGradient id="Degradado_sin_nombre_101-12" x1="-570.61" y1="-455.35" x2="-569.61" y2="-455.35" gradientTransform="translate(358971.71 286685.5) scale(629.37)" xlink:href="#Degradado_sin_nombre_101"/><clipPath id="clip-path-52" transform="translate(-186.03)"><path class="cls-2" d="M301.06,11.15c26.74,7.17,51.21,26.74,66.22,45.67C379.12,71.74,389.53,101.9,393.4,114c-3.87-12.06-14.28-42.22-26.12-57.14-15-18.93-39.48-38.49-66.22-45.67S233.54,17,230,18.33s-28.7,9.78-28.7,9.78,25.12-8.48,28.7-9.78S274.31,4,301.06,11.15"/></clipPath><linearGradient id="Degradado_sin_nombre_101-13" x1="-569.93" y1="-455.52" x2="-568.93" y2="-455.52" gradientTransform="translate(294798.3 -368321.06) rotate(-90) scale(646.92)" xlink:href="#Degradado_sin_nombre_101"/><clipPath id="clip-path-54" transform="translate(-186.03)"><path class="cls-2" d="M278.55,131.45c14.92-12.12,17.83-22.79,17.84-29.28,0,6.48-2.92,17.16-17.84,29.28-24.46,19.9-41.1,38.16-49.58,51.54-5.11,8.06-10.57,18.48-14.39,26.21,3.82-7.72,9.28-18.15,14.39-26.21,8.48-13.38,25.12-31.64,49.58-51.54"/></clipPath><linearGradient id="Degradado_sin_nombre_101-14" x1="-569.93" y1="-455.52" x2="-568.93" y2="-455.52" gradientTransform="translate(294761.82 -368331.2) rotate(-90) scale(646.93)" xlink:href="#Degradado_sin_nombre_101"/><clipPath id="clip-path-56" transform="translate(-186.03)"><path class="cls-2" d="M270.26,144.82c18.25-16.88,33.16-27.38,58.4-30.16,21.49-2.38,43.2-2.72,64.74-4.68-3.87-12.06-14.28-42.21-26.12-57.14-15-18.92-39.47-38.49-66.22-45.66S233.54,13.05,230,14.35s-28.7,9.78-28.7,9.78,19.36,21.42,19.08,55.78c-.18,20.63-7.42,45.91-30.17,74.05l15.08,9.78s17.53-28.05,48.2-36.53,40.12-26.42,41.74-31.64a.14.14,0,0,1,0,.05,1.73,1.73,0,0,1,.1.24,17.14,17.14,0,0,1,1.08,6.31c0,6.49-2.92,17.16-17.84,29.28-24.46,19.9-41.1,38.16-49.58,51.54-5.11,8.06-10.57,18.49-14.4,26.21-.95,1.93-1.81,3.7-2.52,5.22,2.19-3.57,4.57-7.09,7-10.46,4-5.61,8-10.81,11.19-15.12a321.44,321.44,0,0,1,40.06-44M244.9,75.26a10.58,10.58,0,1,1,10.58-10.58A10.58,10.58,0,0,1,244.9,75.26"/></clipPath><linearGradient id="Degradado_sin_nombre_101-15" x1="-568.83" y1="-454.31" x2="-567.83" y2="-454.31" gradientTransform="translate(-115404.66 -92230.29) rotate(180) scale(203.25)" xlink:href="#Degradado_sin_nombre_101"/><clipPath id="clip-path-58" transform="translate(-186.03)"><rect class="cls-2" x="206.29" y="83.23" width="282.12" height="157.19"/></clipPath><clipPath id="clip-path-59" transform="translate(-186.03)"><path class="cls-2" d="M454.1,106.5a160.57,160.57,0,0,1-40.47,11.19c-27.37,4-55.21,3.72-82.69,6.76-25.23,2.79-40.14,13.28-58.4,30.16a321.39,321.39,0,0,0-40.05,44c-8,10.8-21.1,27.14-26.2,41.79,6.12-9.46,13.59-18.54,18.93-25.39a328.53,328.53,0,0,1,42-44c19.16-16.88,34.82-27.37,61.3-30.16,28.85-3,58.06-2.73,86.8-6.76A183,183,0,0,0,448,126.56c1.74-.78,3.46-1.58,5.18-2.42,3.1-1.51,6.18-3.12,9.12-4.92,6.06-4.31,11.87-8.81,16.32-14.92a85.82,85.82,0,0,0,6.46-10.57,30.31,30.31,0,0,0,2.5-5.58c.34-1.19.55-2.4.79-3.61,0-.43,0-.87,0-1.31-11.36,8.89-20.79,17.41-34.31,23.27"/></clipPath><linearGradient id="Degradado_sin_nombre_101-16" x1="-571.15" y1="-455.65" x2="-570.15" y2="-455.65" gradientTransform="translate(161154.3 128713.02) scale(282.12)" xlink:href="#Degradado_sin_nombre_101"/><clipPath id="clip-path-61" transform="translate(-186.03)"><rect class="cls-2" x="0.59" y="5.03" width="392.81" height="181.06"/></clipPath><clipPath id="clip-path-62" transform="translate(-186.03)"><path class="cls-2" d="M302.58,30.51c25.9,9.78,48.32,31.67,61.38,52,4.8,7.47,9,18.19,12.32,28.78,5.72-.36,11.42-.77,17.12-1.29-3.87-12-14.28-42.21-26.12-57.14-15-18.92-39.48-38.49-66.22-45.66S233.54,13.05,230,14.35s-28.7,9.78-28.7,9.78a67.74,67.74,0,0,1,7.89,11.66c7.93-1.83,19.57-4.54,22-5.15,3.7-.94,45.55-9.9,71.47-.13"/></clipPath><linearGradient id="Degradado_sin_nombre_101-17" x1="-571.6" y1="-455.93" x2="-570.6" y2="-455.93" gradientTransform="translate(109853.32 87666.26) scale(192.16)" xlink:href="#Degradado_sin_nombre_101"/><clipPath id="clip-path-64" transform="translate(-186.03)"><rect class="cls-2" x="187.88" y="210.61" width="255.62" height="130.41"/></clipPath><clipPath id="clip-path-65" transform="translate(-186.03)"><path class="cls-2" d="M206.32,274.3c16.22-23.86,47.21-37.56,75.22-40.53,23-2.46,73.89,5.38,109.12,4.4,24.27-.68,40.19-7.63,47.73-11.88,1.18-3.22,2.22-6.42,3.22-9.48.38-1.17,1.89-6.2,1.89-6.2s-17.61,14.2-52.84,15.17-86.11-6.85-109.12-4.4c-28,3-59,16.69-75.22,40.53-12.54,18.46-17,42.24-18.23,64.17-.26,4.93-.27,10-.11,14.94,0-.85.07-1.7.11-2.56,1.18-21.92,5.69-45.72,18.23-64.16"/></clipPath><linearGradient id="Degradado_sin_nombre_101-18" x1="-571.25" y1="-455.71" x2="-570.25" y2="-455.71" gradientTransform="translate(146025.97 116766.57) scale(255.62)" xlink:href="#Degradado_sin_nombre_101"/><clipPath id="clip-path-67" transform="translate(-186.03)"><rect class="cls-2" x="231.14" y="274.93" width="95.23" height="181.13"/></clipPath><clipPath id="clip-path-68" transform="translate(-186.03)"><path class="cls-2" d="M239.13,347.27a118.88,118.88,0,0,0-8,42c-.16,23.7,8.19,44.86,30.6,55.25,18.68,8.66,44,15.41,64.63,9-18.55,2.38-39.32-3.61-55.24-11-22.41-10.39-30.77-31.55-30.61-55.26a118.82,118.82,0,0,1,8-42c6.28-16.35,15.64-29.8,26-43.72q9.92-13.31,20.28-26.25c.67-.84-2.07.08-2.29.13a63.35,63.35,0,0,0-7.47,2.36q-10.15,12.72-19.9,25.79c-10.36,13.91-19.72,27.36-26,43.7"/></clipPath><linearGradient id="Degradado_sin_nombre_101-19" x1="-573.05" y1="-456.73" x2="-572.05" y2="-456.73" gradientTransform="translate(54618.41 43862.7) scale(95.23)" xlink:href="#Degradado_sin_nombre_101"/></defs><title>plan-platino-icon</title><g id="Capa_2" data-name="Capa 2"><g id="Capa_1-2" data-name="Capa 1"><g class="cls-14"><rect class="cls-15" x="12.29" y="275.8" width="190.7" height="184.53"/></g><g class="cls-16"><rect class="cls-17" x="17.64" y="84.1" width="284.37" height="165.96"/></g><g class="cls-18"><rect class="cls-19" y="211.48" width="256.87" height="174.17"/></g><g class="cls-20"><g class="cls-21"><path class="cls-22" d="M351,335.45a45.11,45.11,0,0,0-20.66,1.82,43.13,43.13,0,0,1,11.27.19c21.27,3.28,32.74,25.9,33.1,48.06a65.44,65.44,0,0,1-3.12,32.69,1.82,1.82,0,0,1-.07.25,65.69,65.69,0,0,1-5.05,13.11A92.31,92.31,0,0,1,358.55,443l-.28.37c8.22-7.86,17.82-21,23.74-42.94,7-25.94-4.23-60.88-31.06-65" transform="translate(-186.03)"/></g></g><path class="cls-23" d="M252.85,128.08c-30.67,8.48-48.2,36.53-48.2,36.53l-15.08-9.78,15.08,9.78s17.53-28.05,48.2-36.53S293,101.66,294.59,96.44c-1.62,5.22-11.09,23.16-41.74,31.64" transform="translate(-186.03)"/><g class="cls-24"><rect class="cls-25" x="3.53" y="96.44" width="105.03" height="68.17"/></g><path class="cls-23" d="M294.72,100.7a2.55,2.55,0,0,0-.1-.24c0,.05.06.13.1.24" transform="translate(-186.03)"/><g class="cls-26"><rect class="cls-27" x="108.59" y="100.46" width="0.1" height="0.24"/></g><path class="cls-23" d="M328.06,115.52c-25.23,2.79-40.14,13.28-58.4,30.17a321.37,321.37,0,0,0-40.05,44,321.37,321.37,0,0,1,40.05-44c18.26-16.89,33.17-27.38,58.4-30.17,21.49-2.37,43.21-2.71,64.75-4.67-21.54,2-43.26,2.3-64.75,4.67" transform="translate(-186.03)"/><g class="cls-28"><rect class="cls-29" x="43.58" y="110.85" width="163.2" height="78.86"/></g><path class="cls-23" d="M294.72,100.7a17.44,17.44,0,0,1,1.07,6.31,17.44,17.44,0,0,0-1.07-6.31" transform="translate(-186.03)"/><g class="cls-30"><rect class="cls-31" x="108.69" y="100.7" width="1.07" height="6.31"/></g><g class="cls-32"><g class="cls-33"><rect class="cls-34" x="14.62" y="4.99" width="192.16" height="109.83"/></g></g><g class="cls-35"><g class="cls-36"><rect class="cls-37" x="27.95" y="103.04" width="81.81" height="107.03"/></g></g><g class="cls-38"><rect class="cls-39" x="3.53" y="5.9" width="203.24" height="209.39"/></g><g class="cls-20"><g class="cls-40"><g class="cls-41"><g class="cls-42"><rect class="cls-43" x="19.66" y="84.1" width="282.13" height="157.19"/></g></g></g></g><g class="cls-20"><g class="cls-44"><g class="cls-45"><g class="cls-46"><rect class="cls-47" x="14.62" y="0.87" width="192.16" height="111.27"/></g></g></g></g><g class="cls-20"><g class="cls-48"><g class="cls-49"><g class="cls-50"><rect class="cls-51" x="1.19" y="211.48" width="255.68" height="130.41"/></g></g></g></g><g class="cls-20"><g class="cls-52"><g class="cls-53"><g class="cls-54"><rect class="cls-55" x="44.36" y="275.32" width="95.39" height="185.5"/></g></g></g></g><g class="cls-56"><g class="cls-57"><g class="cls-58"><rect class="cls-59" x="12.88" y="274.45" width="190.7" height="185.02"/></g></g><g class="cls-57"><g class="cls-60"><rect class="cls-61" x="18.23" y="83.23" width="284.37" height="165.96"/></g></g><g class="cls-57"><g class="cls-62"><rect class="cls-63" x="0.59" y="210.61" width="256.87" height="174.18"/></g></g><g class="cls-57"><g class="cls-20"><g class="cls-64"><g class="cls-65"><rect class="cls-66" x="144.85" y="333.44" width="58.73" height="109.1"/></g></g></g></g><g class="cls-57"><g class="cls-67"><rect class="cls-68" x="4.13" y="95.57" width="105.03" height="68.17"/></g></g><g class="cls-57"><g class="cls-67"><rect class="cls-69" x="4.13" y="95.57" width="105.03" height="68.17"/></g></g><g class="cls-57"><g class="cls-70"><rect class="cls-71" x="109.18" y="99.59" width="0.1" height="0.24"/></g></g><g class="cls-57"><g class="cls-70"><rect class="cls-72" x="109.18" y="99.59" width="0.1" height="0.24"/></g></g><g class="cls-57"><g class="cls-73"><rect class="cls-74" x="44.17" y="109.98" width="163.2" height="78.86"/></g></g><g class="cls-57"><g class="cls-73"><rect class="cls-75" x="44.17" y="109.98" width="163.2" height="78.86"/></g></g><g class="cls-57"><g class="cls-76"><rect class="cls-77" x="109.28" y="99.83" width="1.07" height="6.31"/></g></g><g class="cls-57"><g class="cls-76"><rect class="cls-78" x="109.28" y="99.83" width="1.07" height="6.31"/></g></g><g class="cls-57"><g class="cls-79"><rect class="cls-80" x="15.21" y="3.97" width="192.16" height="109.98"/></g></g><g class="cls-57"><g class="cls-81"><rect class="cls-82" x="28.54" y="102.17" width="81.81" height="107.03"/></g></g><g class="cls-57"><g class="cls-83"><rect class="cls-84" x="4.13" width="203.25" height="214.42"/></g></g><g class="cls-57"><g class="cls-20"><g class="cls-85"><g class="cls-86"><rect class="cls-87" x="20.26" y="83.23" width="282.13" height="157.19"/></g></g></g></g><g class="cls-57"><g class="cls-20"><g class="cls-88"><g class="cls-89"><rect class="cls-90" x="15.21" width="192.16" height="111.27"/></g></g></g></g><g class="cls-57"><g class="cls-20"><g class="cls-91"><g class="cls-92"><rect class="cls-93" x="1.79" y="210.61" width="255.68" height="130.41"/></g></g></g></g><g class="cls-57"><g class="cls-20"><g class="cls-94"><g class="cls-95"><rect class="cls-96" x="44.95" y="274.45" width="95.39" height="185.5"/></g></g></g></g></g></g></g></svg>