<svg xmlns="http://www.w3.org/2000/svg" xmlns:xlink="http://www.w3.org/1999/xlink" viewBox="0 0 309.95 472.06"><defs><style>.cls-1{clip-path:url(#clip-path);}.cls-2{fill:none;}.cls-3{fill:url(#Degradado_sin_nombre_39);}.cls-4{clip-path:url(#clip-path-2);}.cls-5{fill:url(#Degradado_sin_nombre_39-2);}.cls-6{clip-path:url(#clip-path-3);}.cls-7{fill:url(#Degradado_sin_nombre_39-3);}.cls-8{fill:url(#Degradado_sin_nombre_39-4);}.cls-9{clip-path:url(#clip-path-5);}.cls-10{fill:url(#Degradado_sin_nombre_39-5);}.cls-11{clip-path:url(#clip-path-6);}.cls-12{fill:url(#Degradado_sin_nombre_39-6);}.cls-13{clip-path:url(#clip-path-7);}.cls-14{fill:url(#Degradado_sin_nombre_39-7);}.cls-15{clip-path:url(#clip-path-8);}.cls-16{fill:url(#Degradado_sin_nombre_39-8);}.cls-17{clip-path:url(#clip-path-9);}.cls-18{fill:url(#Degradado_sin_nombre_39-9);}.cls-19{clip-path:url(#clip-path-10);}.cls-20{fill:url(#Degradado_sin_nombre_39-10);}.cls-21{clip-path:url(#clip-path-11);}.cls-22{fill:url(#Degradado_sin_nombre_39-11);}.cls-23{clip-path:url(#clip-path-12);}.cls-24{fill:url(#Degradado_sin_nombre_39-12);}.cls-25{clip-path:url(#clip-path-13);}.cls-26{fill:url(#Degradado_sin_nombre_39-13);}.cls-27{clip-path:url(#clip-path-14);}.cls-28{fill:url(#Degradado_sin_nombre_39-14);}.cls-29{fill:url(#Degradado_sin_nombre_39-15);}.cls-30{clip-path:url(#clip-path-16);}.cls-31{fill:url(#Degradado_sin_nombre_39-16);}.cls-32{fill:url(#Degradado_sin_nombre_39-17);}.cls-33{clip-path:url(#clip-path-18);}.cls-34{fill:url(#Degradado_sin_nombre_39-18);}.cls-35{fill:url(#Degradado_sin_nombre_39-19);}.cls-36{clip-path:url(#clip-path-20);}.cls-37{mask:url(#mask);}.cls-38{fill:url(#Degradado_sin_nombre_40);}.cls-39{clip-path:url(#clip-path-21);}.cls-40{mask:url(#mask-2);}.cls-41{fill:url(#Degradado_sin_nombre_40-2);}.cls-42{clip-path:url(#clip-path-22);}.cls-43{mask:url(#mask-3);}.cls-44{fill:url(#Degradado_sin_nombre_40-3);}.cls-45{opacity:0.5;}.cls-46{clip-path:url(#clip-path-23);}.cls-47{clip-path:url(#clip-path-24);}.cls-48{mask:url(#mask-4);}.cls-49{fill:url(#Degradado_sin_nombre_40-4);}.cls-50{clip-path:url(#clip-path-25);}.cls-51{mask:url(#mask-5);}.cls-52{fill:url(#Degradado_sin_nombre_40-5);}.cls-53{fill:url(#Degradado_sin_nombre_40-6);}.cls-54{clip-path:url(#clip-path-27);}.cls-55{mask:url(#mask-7);}.cls-56{fill:url(#Degradado_sin_nombre_40-7);}.cls-57{fill:url(#Degradado_sin_nombre_40-8);}.cls-58{clip-path:url(#clip-path-29);}.cls-59{mask:url(#mask-9);}.cls-60{fill:url(#Degradado_sin_nombre_40-9);}.cls-61{fill:url(#Degradado_sin_nombre_40-10);}.cls-62{clip-path:url(#clip-path-31);}.cls-63{mask:url(#mask-11);}.cls-64{fill:url(#Degradado_sin_nombre_40-11);}.cls-65{fill:url(#Degradado_sin_nombre_40-12);}.cls-66{clip-path:url(#clip-path-33);}.cls-67{mask:url(#mask-13);}.cls-68{fill:url(#Degradado_sin_nombre_40-13);}.cls-69{clip-path:url(#clip-path-34);}.cls-70{mask:url(#mask-14);}.cls-71{fill:url(#Degradado_sin_nombre_40-14);}.cls-72{clip-path:url(#clip-path-35);}.cls-73{mask:url(#mask-15);}.cls-74{fill:url(#Degradado_sin_nombre_40-15);}.cls-75{clip-path:url(#clip-path-36);}.cls-76{clip-path:url(#clip-path-37);}.cls-77{mask:url(#mask-16);}.cls-78{fill:url(#Degradado_sin_nombre_40-16);}.cls-79{clip-path:url(#clip-path-38);}.cls-80{clip-path:url(#clip-path-39);}.cls-81{mask:url(#mask-17);}.cls-82{fill:url(#Degradado_sin_nombre_40-17);}.cls-83{clip-path:url(#clip-path-40);}.cls-84{clip-path:url(#clip-path-41);}.cls-85{mask:url(#mask-18);}.cls-86{fill:url(#Degradado_sin_nombre_40-18);}.cls-87{clip-path:url(#clip-path-42);}.cls-88{clip-path:url(#clip-path-43);}.cls-89{mask:url(#mask-19);}.cls-90{fill:url(#Degradado_sin_nombre_40-19);}</style><clipPath id="clip-path"><path class="cls-2" d="M299.63,282.67a87.49,87.49,0,0,0-15,5.48c-11.65,5.29-23.16,11.18-33.25,19.1-17.13,13.43-27.07,31.32-34.87,51.25-4.69,12-9.34,24-13,36.3C213,423.11,235.31,442,250.4,450.65s49.8,17.64,68.59,18.92,35.1-4.22,44.26-11.53,21.62-21.35,28.82-48-4.34-62.49-31.88-66.73-50.33,20.11-50.33,20.11c14.44-10.89,34-6.48,49.39-1.24,27.35,9.33,31,44.79,21.17,68.4-5.36,12.83-17,23.87-29.34,30-22.16,11-52,3.49-73.39-6.41-23-10.66-31.57-32.39-31.41-56.71a122,122,0,0,1,8.19-43.12c6.45-16.78,16.06-30.58,26.69-44.87q10.18-13.65,20.82-27c.21-.26.09-.36-.19-.36a11.07,11.07,0,0,0-2.16.5"/></clipPath><linearGradient id="Degradado_sin_nombre_39" x1="-105.71" y1="-460.01" x2="-104.71" y2="-460.01" gradientTransform="translate(-19756.88 -87310.72) rotate(180) scale(190.62)" gradientUnits="userSpaceOnUse"><stop offset="0" stop-color="#fff"/><stop offset="0.12" stop-color="#fff"/><stop offset="0.35" stop-color="#fff"/><stop offset="0.47" stop-color="#f4f4f4"/><stop offset="0.68" stop-color="#d7d7d7"/><stop offset="0.75" stop-color="#ccc"/><stop offset="0.91" stop-color="#f0f0f0"/><stop offset="1" stop-color="#fff"/></linearGradient><clipPath id="clip-path-2"><path class="cls-2" d="M465.45,109.3a164.51,164.51,0,0,1-41.54,11.49c-28.09,4.14-56.67,3.82-84.86,6.94-25.9,2.86-41.21,13.63-59.94,31A330.31,330.31,0,0,0,238,203.87c-9.94,13.37-27.41,35-29,51.89.28-3.14,8.88-8.76,15.58-12.74,17.29-14.24,40.38-22.62,61.78-24.9,12.71-1.35,33.72.36,56.05,2.06,19.14,1.46,39.25,2.92,55.94,2.46,22.35-.62,37.79-6.42,46.32-10.77,12.37-8,23.78-18.43,30.1-31.38,7.36-15.07,11.86-31.36,16-47.56,3.84-15.09,10.1-31.82,9.88-47.51-11.66,9.12-21.33,17.87-35.21,23.88"/></clipPath><linearGradient id="Degradado_sin_nombre_39-2" x1="-106.21" y1="-460.29" x2="-105.21" y2="-460.29" gradientTransform="translate(-30474.69 -134069.16) rotate(180) scale(291.64)" xlink:href="#Degradado_sin_nombre_39"/><clipPath id="clip-path-3"><path class="cls-2" d="M303.58,108.94a17.85,17.85,0,0,0-1.1-6.48,17.85,17.85,0,0,1,1.1,6.48"/></clipPath><linearGradient id="Degradado_sin_nombre_39-3" x1="-356.45" y1="-603.69" x2="-355.45" y2="-603.69" gradientTransform="translate(694.25 769.21) scale(1.1)" xlink:href="#Degradado_sin_nombre_39"/><linearGradient id="Degradado_sin_nombre_39-4" x1="-107.58" y1="-461.08" x2="-106.58" y2="-461.08" gradientTransform="translate(69519.43 297933.52) scale(645.94)" xlink:href="#Degradado_sin_nombre_39"/><clipPath id="clip-path-5"><path class="cls-2" d="M205.93,28.85s24.89-8.4,29.25-10c-4.36,1.56-29.25,10-29.25,10m29.46-10-.21.07.21-.07.05,0-.05,0m.05,0h0m0,0,.06,0-.06,0m.06,0h0m0,0h0m0,0,.09,0-.09,0m.09,0,.1,0-.1,0m.1,0h0m0,0,.14,0-.14,0m.14,0h0m0,0h0m0,0,0,0,0,0m0,0,.33-.11-.33.11m.33-.11.18-.06-.18.06m.19-.06h0m0,0c7.85-2.58,46.13-13.86,71.81-7,27.45,7.37,52.56,27.45,68,46.87,12.15,15.32,22.84,46.27,26.81,58.65-4-12.38-14.66-43.33-26.81-58.65-15.4-19.42-40.51-39.5-68-46.87a74.34,74.34,0,0,0-19-2.2c-22.53,0-46.72,7.17-52.78,9.17"/></clipPath><linearGradient id="Degradado_sin_nombre_39-5" x1="-106.91" y1="-461.25" x2="-105.91" y2="-461.25" gradientTransform="translate(306550.65 -70595.29) rotate(-90) scale(663.95)" xlink:href="#Degradado_sin_nombre_39"/><clipPath id="clip-path-6"><path class="cls-2" d="M219.61,214.71c3.88-7.84,9.4-18.38,14.6-26.61-5.2,8.23-10.72,18.77-14.6,26.61m65.67-79.8c-25.11,20.42-42.18,39.17-50.89,52.9l-.18.29.18-.29c8.7-13.73,25.78-32.48,50.89-52.9,15.3-12.44,18.3-23.39,18.3-30,0,6.66-3,17.61-18.3,30.05"/></clipPath><linearGradient id="Degradado_sin_nombre_39-6" x1="-106.91" y1="-461.25" x2="-105.91" y2="-461.25" gradientTransform="translate(306512.69 -70600.51) rotate(-90) scale(663.97)" xlink:href="#Degradado_sin_nombre_39"/><clipPath id="clip-path-7"><path class="cls-2" d="M239.88,66.38a10.86,10.86,0,1,1,10.86,10.86,10.86,10.86,0,0,1-10.86-10.86m-4.49-51.65c-3.67,1.34-29.45,10-29.46,10s19.88,22,19.59,57.25c-.18,21.16-7.62,47.12-31,76L210,168.06s18-28.79,49.46-37.5,41.18-27.11,42.85-32.47l0,0s.05.12.1.24a17.85,17.85,0,0,1,1.1,6.48c0,6.66-3,17.61-18.3,30.05-25.11,20.42-42.19,39.17-50.89,52.9-5.25,8.27-10.85,19-14.78,26.9-1,2-1.85,3.8-2.59,5.36,2.25-3.67,4.69-7.28,7.15-10.74,4.08-5.76,8.2-11.09,11.48-15.52a330.29,330.29,0,0,1,41.11-45.18c18.74-17.33,34-28.1,59.94-30.95,22.06-2.45,44.34-2.79,66.45-4.8-4-12.38-14.66-43.33-26.81-58.65-15.4-19.42-40.51-39.5-68-46.87a74.42,74.42,0,0,0-19-2.19c-24.54,0-51,8.5-53.95,9.56"/></clipPath><linearGradient id="Degradado_sin_nombre_39-7" x1="-105.84" y1="-460.08" x2="-104.84" y2="-460.08" gradientTransform="translate(-21674.32 -95858.93) rotate(180) scale(208.6)" xlink:href="#Degradado_sin_nombre_39"/><clipPath id="clip-path-8"><path class="cls-2" d="M465.45,109.3a164.51,164.51,0,0,1-41.54,11.49c-28.09,4.14-56.67,3.82-84.86,6.94-25.9,2.86-41.21,13.63-59.94,31A330.31,330.31,0,0,0,238,203.87c-8.24,11.09-21.66,27.86-26.89,42.89,6.28-9.71,13.95-19,19.43-26.06a337.84,337.84,0,0,1,43.15-45.18c19.67-17.32,35.73-28.09,62.91-31,29.61-3.12,59.59-2.8,89.08-6.94a187.58,187.58,0,0,0,33.54-7.74c1.78-.8,3.55-1.62,5.31-2.48,3.19-1.56,6.34-3.2,9.36-5,6.22-4.43,12.19-9,16.75-15.31a85.39,85.39,0,0,0,6.63-10.86,30.25,30.25,0,0,0,2.57-5.72c.35-1.22.56-2.47.81-3.7,0-.45,0-.9,0-1.35-11.66,9.12-21.33,17.87-35.21,23.88"/></clipPath><linearGradient id="Degradado_sin_nombre_39-8" x1="-108.1" y1="-461.38" x2="-107.1" y2="-461.38" gradientTransform="translate(31510.91 133757.99) scale(289.55)" xlink:href="#Degradado_sin_nombre_39"/><clipPath id="clip-path-9"><path class="cls-2" d="M309.93,31.32c26.59,10,49.6,32.5,63,53.34,4.94,7.67,9.21,18.67,12.65,29.54,5.86-.37,11.72-.79,17.57-1.32-4-12.38-14.66-43.33-26.81-58.65-15.4-19.42-40.51-39.5-68-46.87s-69.3,6-73,7.37-29.46,10-29.46,10a69.83,69.83,0,0,1,8.11,12c8.14-1.89,20.09-4.67,22.54-5.29,3.8-1,46.76-10.17,73.35-.13"/></clipPath><linearGradient id="Degradado_sin_nombre_39-9" x1="-108.54" y1="-461.64" x2="-107.54" y2="-461.64" gradientTransform="translate(21612.08 91101.16) scale(197.22)" xlink:href="#Degradado_sin_nombre_39"/><clipPath id="clip-path-10"><path class="cls-2" d="M211.15,281.52c16.64-24.48,48.44-38.54,77.2-41.6,23.6-2.52,75.82,5.52,112,4.52,24.92-.7,41.26-7.83,49-12.19,1.2-3.3,2.27-6.59,3.29-9.73.39-1.2,1.94-6.36,1.94-6.36s-18.07,14.56-54.23,15.56-88.38-7-112-4.51c-28.76,3.06-60.56,17.13-77.2,41.6-12.88,18.94-17.5,43.35-18.71,65.86-.27,5.05-.29,10.23-.12,15.33,0-.88.07-1.75.12-2.63,1.21-22.5,5.83-46.92,18.71-65.85"/></clipPath><linearGradient id="Degradado_sin_nombre_39-10" x1="-108.2" y1="-461.43" x2="-107.2" y2="-461.43" gradientTransform="translate(28577.67 121341.17) scale(262.35)" xlink:href="#Degradado_sin_nombre_39"/><clipPath id="clip-path-11"><path class="cls-2" d="M244.81,356.42a122.26,122.26,0,0,0-8.19,43.12c-.16,24.33,8.41,46,31.41,56.71,19.18,8.88,45.17,15.81,66.33,9.21-19,2.44-40.35-3.7-56.69-11.28-23-10.66-31.58-32.38-31.42-56.71a121.82,121.82,0,0,1,8.2-43.12c6.44-16.78,16-30.58,26.68-44.87q10.19-13.65,20.81-26.94c.69-.87-2.12.08-2.35.13a64.77,64.77,0,0,0-7.66,2.43q-10.43,13-20.43,26.46c-10.63,14.27-20.24,28.08-26.69,44.86"/></clipPath><linearGradient id="Degradado_sin_nombre_39-11" x1="-109.95" y1="-462.42" x2="-108.95" y2="-462.42" gradientTransform="translate(10983.55 45573.89) scale(97.74)" xlink:href="#Degradado_sin_nombre_39"/><clipPath id="clip-path-12"><path class="cls-2" d="M400.33,231.72c-16.68.47-36.79-1-55.93-2.45-22.33-1.71-43.34-3.42-56-2.06-28.76,3.06-60.56,17.13-77.2,41.6-12.88,18.94-17.5,43.35-18.71,65.86-1.51,28.11,5,60.25,5,60.25,4.22-21.12,10.76-45.52,22.82-63.52,5.83-8.7,13.14-16.4,20.56-23.77,9.89-9.8,20.82-18.49,33.26-24.85,22.31-11.42,50.73-15.25,75.49-16a214.69,214.69,0,0,1,22.26.5c9.84.73,19.22,2.73,29.13,1.51a86.21,86.21,0,0,0,27.72-8.46c14-7,19.39-24,23.92-37.83.39-1.2,1.94-6.36,1.94-6.36s-18.07,14.56-54.23,15.56"/></clipPath><linearGradient id="Degradado_sin_nombre_39-12" x1="-106.11" y1="-460.23" x2="-105.11" y2="-460.23" gradientTransform="translate(-27382.88 -120438.77) rotate(180) scale(262.35)" xlink:href="#Degradado_sin_nombre_39"/><clipPath id="clip-path-13"><path class="cls-2" d="M360.19,343.39a46.45,46.45,0,0,0-21.2,1.87,43.69,43.69,0,0,1,11.57.19c21.83,3.37,33.6,26.59,34,49.33a67.21,67.21,0,0,1-3.19,33.55l-.08.26A67.4,67.4,0,0,1,376.07,442,93.52,93.52,0,0,1,368,453.8l-.29.39c8.44-8.07,18.29-21.58,24.37-44.07,7.2-26.63-4.34-62.49-31.88-66.73"/></clipPath><linearGradient id="Degradado_sin_nombre_39-13" x1="-112.12" y1="-463.69" x2="-111.12" y2="-463.69" gradientTransform="translate(6525.12 25982.4) scale(55.18)" xlink:href="#Degradado_sin_nombre_39"/><clipPath id="clip-path-14"><path class="cls-2" d="M259.5,130.56C228,139.27,210,168.05,210,168.05l-15.49-10,15.49,10s18-28.78,49.46-37.49h0m0,0c31-8.57,40.87-26.54,42.76-32.21C300.37,104,290.48,122,259.5,130.56m42.76-32.21.09-.26-.09.26"/></clipPath><linearGradient id="Degradado_sin_nombre_39-14" x1="-109.69" y1="-462.29" x2="-108.69" y2="-462.29" gradientTransform="translate(12018.41 49963.53) scale(107.79)" xlink:href="#Degradado_sin_nombre_39"/><linearGradient id="Degradado_sin_nombre_39-15" x1="-107.58" y1="-461.08" x2="-106.58" y2="-461.08" gradientTransform="translate(69358.33 297267.6) scale(644.44)" xlink:href="#Degradado_sin_nombre_39"/><clipPath id="clip-path-16"><path class="cls-2" d="M302.48,102.46c-.05-.12-.09-.2-.1-.24s.05.12.1.24"/></clipPath><linearGradient id="Degradado_sin_nombre_39-16" x1="-2790.79" y1="-1998.97" x2="-2789.8" y2="-1998.97" gradientTransform="translate(587.32 306.43) scale(0.1)" xlink:href="#Degradado_sin_nombre_39"/><linearGradient id="Degradado_sin_nombre_39-17" x1="-107.17" y1="-461.08" x2="-107.17" y2="-461.08" gradientTransform="translate(67319.25 288430.83) scale(625.33)" xlink:href="#Degradado_sin_nombre_39"/><clipPath id="clip-path-18"><path class="cls-2" d="M235.65,193.81c.1-.12.19-.25.29-.38-.1.13-.19.26-.29.38m.29-.38a330.75,330.75,0,0,1,40.82-44.8,330.75,330.75,0,0,0-40.82,44.8M336.7,117.68c-25.9,2.86-41.2,13.62-59.94,30.95,18.74-17.33,34-28.09,59.94-30.95,22.06-2.45,44.34-2.79,66.45-4.8-22.11,2-44.39,2.35-66.45,4.8"/></clipPath><linearGradient id="Degradado_sin_nombre_39-18" x1="-108.79" y1="-461.77" x2="-107.79" y2="-461.77" gradientTransform="translate(18457.18 77499) scale(167.5)" xlink:href="#Degradado_sin_nombre_39"/><linearGradient id="Degradado_sin_nombre_39-19" x1="-107.58" y1="-461.08" x2="-106.58" y2="-461.08" gradientTransform="translate(69364.77 297314.49) scale(644.49)" xlink:href="#Degradado_sin_nombre_39"/><clipPath id="clip-path-20" transform="translate(-190.93)"><path class="cls-2" d="M299.63,282.67a87.49,87.49,0,0,0-15,5.48c-11.65,5.29-23.16,11.18-33.25,19.1-17.13,13.43-27.07,31.32-34.87,51.25-4.69,12-9.34,24-13,36.3C213,423.11,235.31,442,250.4,450.65s49.8,17.64,68.59,18.92,35.1-4.22,44.26-11.53,21.62-21.35,28.82-48-4.34-62.49-31.88-66.73-50.33,20.11-50.33,20.11c14.44-10.89,34-6.48,49.39-1.24,27.35,9.33,31,44.79,21.17,68.4-5.36,12.83-17,23.87-29.34,30-22.16,11-52,3.49-73.39-6.41-23-10.66-31.57-32.39-31.41-56.71a122,122,0,0,1,8.19-43.12c6.45-16.78,16.06-30.58,26.69-44.87q10.18-13.65,20.82-27c.21-.26.09-.36-.19-.36a11.07,11.07,0,0,0-2.16.5"/></clipPath><mask id="mask" x="12.61" y="282.17" width="195.72" height="189.39" maskUnits="userSpaceOnUse"><g transform="translate(-190.93)"><g id="SVGID"><g class="cls-1"><rect class="cls-3" x="203.54" y="282.17" width="195.72" height="189.39"/></g></g></g></mask><linearGradient id="Degradado_sin_nombre_40" x1="-105.71" y1="-460.01" x2="-104.71" y2="-460.01" gradientTransform="translate(-19947.81 -87310.72) rotate(180) scale(190.62)" gradientUnits="userSpaceOnUse"><stop offset="0" stop-color="#aeadb3"/><stop offset="0" stop-color="#d8d9dd"/><stop offset="0.12" stop-color="#9799a0"/><stop offset="0.17" stop-color="#b1b2b7"/><stop offset="0.25" stop-color="#dbdcde"/><stop offset="0.31" stop-color="#f5f5f6"/><stop offset="0.35" stop-color="#fff"/><stop offset="0.4" stop-color="#f4f4f4"/><stop offset="0.48" stop-color="#d6d8d8"/><stop offset="0.58" stop-color="#a6a9aa"/><stop offset="0.71" stop-color="#646a6b"/><stop offset="0.75" stop-color="#505658"/><stop offset="0.8" stop-color="#747879"/><stop offset="0.89" stop-color="#b2b4b3"/><stop offset="0.96" stop-color="#d9d9d7"/><stop offset="1" stop-color="#e8e7e5"/><stop offset="1" stop-color="#efeeed"/></linearGradient><clipPath id="clip-path-21" transform="translate(-190.93)"><path class="cls-2" d="M465.45,109.3a164.51,164.51,0,0,1-41.54,11.49c-28.09,4.14-56.67,3.82-84.86,6.94-25.9,2.86-41.21,13.63-59.94,31A330.31,330.31,0,0,0,238,203.87c-9.94,13.37-27.41,35-29,51.89.28-3.14,8.88-8.76,15.58-12.74,17.29-14.24,40.38-22.62,61.78-24.9,12.71-1.35,33.72.36,56.05,2.06,19.14,1.46,39.25,2.92,55.94,2.46,22.35-.62,37.79-6.42,46.32-10.77,12.37-8,23.78-18.43,30.1-31.38,7.36-15.07,11.86-31.36,16-47.56,3.84-15.09,10.1-31.82,9.88-47.51-11.66,9.12-21.33,17.87-35.21,23.88"/></clipPath><mask id="mask-2" x="18.1" y="85.42" width="291.85" height="170.33" maskUnits="userSpaceOnUse"><g transform="translate(-190.93)"><g id="SVGID-2" data-name="SVGID"><g class="cls-4"><rect class="cls-5" x="209.03" y="85.42" width="291.85" height="170.33"/></g></g></g></mask><linearGradient id="Degradado_sin_nombre_40-2" x1="-106.21" y1="-460.29" x2="-105.21" y2="-460.29" gradientTransform="translate(-30665.62 -134069.16) rotate(180) scale(291.64)" xlink:href="#Degradado_sin_nombre_40"/><clipPath id="clip-path-22" transform="translate(-190.93)"><path class="cls-2" d="M400.33,231.72c-16.68.47-36.79-1-55.93-2.45-22.33-1.71-43.34-3.42-56-2.06-28.76,3.06-60.56,17.13-77.2,41.6-12.88,18.94-17.5,43.35-18.71,65.86-1.51,28.11,5,60.25,5,60.25,4.22-21.12,10.76-45.52,22.82-63.52,5.83-8.7,13.14-16.4,20.56-23.77,9.89-9.8,20.82-18.49,33.26-24.85,22.31-11.42,50.73-15.25,75.49-16a214.69,214.69,0,0,1,22.26.5c9.84.73,19.22,2.73,29.13,1.51a86.21,86.21,0,0,0,27.72-8.46c14-7,19.39-24,23.92-37.83.39-1.2,1.94-6.36,1.94-6.36s-18.07,14.56-54.23,15.56"/></clipPath><mask id="mask-3" x="0" y="216.16" width="263.64" height="178.76" maskUnits="userSpaceOnUse"><g transform="translate(-190.93)"><g id="SVGID-3" data-name="SVGID"><g class="cls-23"><rect class="cls-24" x="190.93" y="216.16" width="263.64" height="178.76"/></g></g></g></mask><linearGradient id="Degradado_sin_nombre_40-3" x1="-106.11" y1="-460.23" x2="-105.11" y2="-460.23" gradientTransform="translate(-27573.81 -120438.77) rotate(180) scale(262.35)" xlink:href="#Degradado_sin_nombre_40"/><clipPath id="clip-path-23" transform="translate(-190.93)"><rect class="cls-2" x="338.99" y="342.89" width="55.18" height="111.29"/></clipPath><clipPath id="clip-path-24" transform="translate(-190.93)"><path class="cls-2" d="M360.19,343.39a46.45,46.45,0,0,0-21.2,1.87,43.69,43.69,0,0,1,11.57.19c21.83,3.37,33.6,26.59,34,49.33a67.21,67.21,0,0,1-3.19,33.55l-.08.26A67.4,67.4,0,0,1,376.07,442,93.52,93.52,0,0,1,368,453.8l-.29.39c8.44-8.07,18.29-21.58,24.37-44.07,7.2-26.63-4.34-62.49-31.88-66.73"/></clipPath><mask id="mask-4" x="148.06" y="342.22" width="60.28" height="111.97" maskUnits="userSpaceOnUse"><g transform="translate(-190.93)"><g id="SVGID-4" data-name="SVGID"><g class="cls-25"><rect class="cls-26" x="338.99" y="342.22" width="60.28" height="111.97"/></g></g></g></mask><linearGradient id="Degradado_sin_nombre_40-4" x1="-112.12" y1="-463.69" x2="-111.12" y2="-463.69" gradientTransform="translate(6334.19 25982.4) scale(55.18)" xlink:href="#Degradado_sin_nombre_40"/><clipPath id="clip-path-25" transform="translate(-190.93)"><path class="cls-2" d="M259.5,130.56C228,139.27,210,168.05,210,168.05l-15.49-10,15.49,10s18-28.78,49.46-37.49h0m0,0c31-8.57,40.87-26.54,42.76-32.21C300.37,104,290.48,122,259.5,130.56m42.76-32.21.09-.26-.09.26"/></clipPath><mask id="mask-5" x="3.63" y="98.09" width="107.79" height="69.97" maskUnits="userSpaceOnUse"><g transform="translate(-190.93)"><g id="SVGID-5" data-name="SVGID"><g class="cls-27"><rect class="cls-28" x="194.55" y="98.09" width="107.79" height="69.97"/></g></g></g></mask><linearGradient id="Degradado_sin_nombre_40-5" x1="-109.69" y1="-462.29" x2="-108.69" y2="-462.29" gradientTransform="translate(11827.48 49963.53) scale(107.79)" xlink:href="#Degradado_sin_nombre_40"/><linearGradient id="Degradado_sin_nombre_40-6" x1="-107.58" y1="-461.08" x2="-106.58" y2="-461.08" gradientTransform="translate(69167.4 297267.6) scale(644.44)" xlink:href="#Degradado_sin_nombre_40"/><clipPath id="clip-path-27" transform="translate(-190.93)"><path class="cls-2" d="M302.48,102.46c-.05-.12-.09-.2-.1-.24s.05.12.1.24"/></clipPath><mask id="mask-7" x="111.45" y="102.22" width="0.1" height="0.25" maskUnits="userSpaceOnUse"><g transform="translate(-190.93)"><g id="SVGID-7" data-name="SVGID"><g class="cls-30"><rect class="cls-31" x="302.38" y="102.22" width="0.1" height="0.25"/></g></g></g></mask><linearGradient id="Degradado_sin_nombre_40-7" x1="-2790.79" y1="-1998.97" x2="-2789.8" y2="-1998.97" gradientTransform="translate(396.39 306.43) scale(0.1)" xlink:href="#Degradado_sin_nombre_40"/><linearGradient id="Degradado_sin_nombre_40-8" x1="-107.17" y1="-461.08" x2="-107.17" y2="-461.08" gradientTransform="translate(67128.27 288430.82) scale(625.33)" xlink:href="#Degradado_sin_nombre_40"/><clipPath id="clip-path-29" transform="translate(-190.93)"><path class="cls-2" d="M235.65,193.81c.1-.12.19-.25.29-.38-.1.13-.19.26-.29.38m.29-.38a330.75,330.75,0,0,1,40.82-44.8,330.75,330.75,0,0,0-40.82,44.8M336.7,117.68c-25.9,2.86-41.2,13.62-59.94,30.95,18.74-17.33,34-28.09,59.94-30.95,22.06-2.45,44.34-2.79,66.45-4.8-22.11,2-44.39,2.35-66.45,4.8"/></clipPath><mask id="mask-9" x="44.72" y="112.88" width="167.5" height="80.93" maskUnits="userSpaceOnUse"><g transform="translate(-190.93)"><g id="SVGID-9" data-name="SVGID"><g class="cls-33"><rect class="cls-34" x="235.65" y="112.88" width="167.5" height="80.93"/></g></g></g></mask><linearGradient id="Degradado_sin_nombre_40-9" x1="-108.79" y1="-461.77" x2="-107.79" y2="-461.77" gradientTransform="translate(18266.37 77498.95) scale(167.5)" xlink:href="#Degradado_sin_nombre_40"/><linearGradient id="Degradado_sin_nombre_40-10" x1="-107.58" y1="-461.08" x2="-106.58" y2="-461.08" gradientTransform="translate(69173.84 297314.49) scale(644.49)" xlink:href="#Degradado_sin_nombre_40"/><clipPath id="clip-path-31" transform="translate(-190.93)"><path class="cls-2" d="M303.58,108.94a17.85,17.85,0,0,0-1.1-6.48,17.85,17.85,0,0,1,1.1,6.48"/></clipPath><mask id="mask-11" x="111.55" y="102.46" width="1.1" height="6.47" maskUnits="userSpaceOnUse"><g transform="translate(-190.93)"><g id="SVGID-11" data-name="SVGID"><g class="cls-6"><rect class="cls-7" x="302.48" y="102.46" width="1.1" height="6.47"/></g></g></g></mask><linearGradient id="Degradado_sin_nombre_40-11" x1="-356.45" y1="-603.69" x2="-355.45" y2="-603.69" gradientTransform="translate(503.32 769.21) scale(1.1)" xlink:href="#Degradado_sin_nombre_40"/><linearGradient id="Degradado_sin_nombre_40-12" x1="-107.58" y1="-461.08" x2="-106.58" y2="-461.08" gradientTransform="translate(69328.5 297933.52) scale(645.94)" xlink:href="#Degradado_sin_nombre_40"/><clipPath id="clip-path-33" transform="translate(-190.93)"><path class="cls-2" d="M205.93,28.85s24.89-8.4,29.25-10c-4.36,1.56-29.25,10-29.25,10m29.46-10-.21.07.21-.07.05,0-.05,0m.05,0h0m0,0,.06,0-.06,0m.06,0h0m0,0h0m0,0,.09,0-.09,0m.09,0,.1,0-.1,0m.1,0h0m0,0,.14,0-.14,0m.14,0h0m0,0h0m0,0,0,0,0,0m0,0,.33-.11-.33.11m.33-.11.18-.06-.18.06m.19-.06h0m0,0c7.85-2.58,46.13-13.86,71.81-7,27.45,7.37,52.56,27.45,68,46.87,12.15,15.32,22.84,46.27,26.81,58.65-4-12.38-14.66-43.33-26.81-58.65-15.4-19.42-40.51-39.5-68-46.87a74.34,74.34,0,0,0-19-2.2c-22.53,0-46.72,7.17-52.78,9.17"/></clipPath><mask id="mask-13" x="15" y="4.55" width="197.22" height="112.4" maskUnits="userSpaceOnUse"><g transform="translate(-190.93)"><g id="SVGID-13" data-name="SVGID"><g class="cls-9"><rect class="cls-10" x="205.93" y="4.55" width="197.22" height="112.4"/></g></g></g></mask><linearGradient id="Degradado_sin_nombre_40-13" x1="-106.91" y1="-461.25" x2="-105.91" y2="-461.25" gradientTransform="translate(306359.72 -70595.29) rotate(-90) scale(663.95)" xlink:href="#Degradado_sin_nombre_40"/><clipPath id="clip-path-34" transform="translate(-190.93)"><path class="cls-2" d="M219.61,214.71c3.88-7.84,9.4-18.38,14.6-26.61-5.2,8.23-10.72,18.77-14.6,26.61m65.67-79.8c-25.11,20.42-42.18,39.17-50.89,52.9l-.18.29.18-.29c8.7-13.73,25.78-32.48,50.89-52.9,15.3-12.44,18.3-23.39,18.3-30,0,6.66-3,17.61-18.3,30.05"/></clipPath><mask id="mask-14" x="28.68" y="104.86" width="83.97" height="109.85" maskUnits="userSpaceOnUse"><g transform="translate(-190.93)"><g id="SVGID-14" data-name="SVGID"><g class="cls-11"><rect class="cls-12" x="219.61" y="104.86" width="83.96" height="109.85"/></g></g></g></mask><linearGradient id="Degradado_sin_nombre_40-14" x1="-106.91" y1="-461.25" x2="-105.91" y2="-461.25" gradientTransform="translate(306321.76 -70600.51) rotate(-90) scale(663.97)" xlink:href="#Degradado_sin_nombre_40"/><clipPath id="clip-path-35" transform="translate(-190.93)"><path class="cls-2" d="M239.88,66.38a10.86,10.86,0,1,1,10.86,10.86,10.86,10.86,0,0,1-10.86-10.86m-4.49-51.65c-3.67,1.34-29.45,10-29.46,10s19.88,22,19.59,57.25c-.18,21.16-7.62,47.12-31,76L210,168.06s18-28.79,49.46-37.5,41.18-27.11,42.85-32.47l0,0s.05.12.1.24a17.85,17.85,0,0,1,1.1,6.48c0,6.66-3,17.61-18.3,30.05-25.11,20.42-42.19,39.17-50.89,52.9-5.25,8.27-10.85,19-14.78,26.9-1,2-1.85,3.8-2.59,5.36,2.25-3.67,4.69-7.28,7.15-10.74,4.08-5.76,8.2-11.09,11.48-15.52a330.29,330.29,0,0,1,41.11-45.18c18.74-17.33,34-28.1,59.94-30.95,22.06-2.45,44.34-2.79,66.45-4.8-4-12.38-14.66-43.33-26.81-58.65-15.4-19.42-40.51-39.5-68-46.87a74.42,74.42,0,0,0-19-2.19c-24.54,0-51,8.5-53.95,9.56"/></clipPath><mask id="mask-15" x="3.63" y="5.17" width="208.6" height="214.9" maskUnits="userSpaceOnUse"><g transform="translate(-190.93)"><g id="SVGID-15" data-name="SVGID"><g class="cls-13"><rect class="cls-14" x="194.55" y="5.17" width="208.6" height="214.9"/></g></g></g></mask><linearGradient id="Degradado_sin_nombre_40-15" x1="-105.84" y1="-460.08" x2="-104.84" y2="-460.08" gradientTransform="translate(-21865.15 -95858.91) rotate(180) scale(208.6)" xlink:href="#Degradado_sin_nombre_40"/><clipPath id="clip-path-36" transform="translate(-190.93)"><rect class="cls-2" x="211.11" y="85.42" width="289.55" height="161.33"/></clipPath><clipPath id="clip-path-37" transform="translate(-190.93)"><path class="cls-2" d="M465.45,109.3a164.51,164.51,0,0,1-41.54,11.49c-28.09,4.14-56.67,3.82-84.86,6.94-25.9,2.86-41.21,13.63-59.94,31A330.31,330.31,0,0,0,238,203.87c-8.24,11.09-21.66,27.86-26.89,42.89,6.28-9.71,13.95-19,19.43-26.06a337.84,337.84,0,0,1,43.15-45.18c19.67-17.32,35.73-28.09,62.91-31,29.61-3.12,59.59-2.8,89.08-6.94a187.58,187.58,0,0,0,33.54-7.74c1.78-.8,3.55-1.62,5.31-2.48,3.19-1.56,6.34-3.2,9.36-5,6.22-4.43,12.19-9,16.75-15.31a85.39,85.39,0,0,0,6.63-10.86,30.25,30.25,0,0,0,2.57-5.72c.35-1.22.56-2.47.81-3.7,0-.45,0-.9,0-1.35-11.66,9.12-21.33,17.87-35.21,23.88"/></clipPath><mask id="mask-16" x="20.18" y="85.42" width="289.56" height="161.33" maskUnits="userSpaceOnUse"><g transform="translate(-190.93)"><g id="SVGID-16" data-name="SVGID"><g class="cls-15"><rect class="cls-16" x="211.11" y="85.42" width="289.56" height="161.33"/></g></g></g></mask><linearGradient id="Degradado_sin_nombre_40-16" x1="-108.1" y1="-461.38" x2="-107.1" y2="-461.38" gradientTransform="translate(31319.98 133757.99) scale(289.55)" xlink:href="#Degradado_sin_nombre_40"/><clipPath id="clip-path-38" transform="translate(-190.93)"><rect class="cls-2" y="5.17" width="403.15" height="185.83"/></clipPath><clipPath id="clip-path-39" transform="translate(-190.93)"><path class="cls-2" d="M309.93,31.32c26.59,10,49.6,32.5,63,53.34,4.94,7.67,9.21,18.67,12.65,29.54,5.86-.37,11.72-.79,17.57-1.32-4-12.38-14.66-43.33-26.81-58.65-15.4-19.42-40.51-39.5-68-46.87s-69.3,6-73,7.37-29.46,10-29.46,10a69.83,69.83,0,0,1,8.11,12c8.14-1.89,20.09-4.67,22.54-5.29,3.8-1,46.76-10.17,73.35-.13"/></clipPath><mask id="mask-17" x="15" y="0" width="197.22" height="114.2" maskUnits="userSpaceOnUse"><g transform="translate(-190.93)"><g id="SVGID-17" data-name="SVGID"><g class="cls-17"><rect class="cls-18" x="205.93" width="197.22" height="114.2"/></g></g></g></mask><linearGradient id="Degradado_sin_nombre_40-17" x1="-108.54" y1="-461.64" x2="-107.54" y2="-461.64" gradientTransform="translate(21421.13 91101.16) scale(197.22)" xlink:href="#Degradado_sin_nombre_40"/><clipPath id="clip-path-40" transform="translate(-190.93)"><rect class="cls-2" x="192.21" y="216.16" width="262.35" height="133.85"/></clipPath><clipPath id="clip-path-41" transform="translate(-190.93)"><path class="cls-2" d="M211.15,281.52c16.64-24.48,48.44-38.54,77.2-41.6,23.6-2.52,75.82,5.52,112,4.52,24.92-.7,41.26-7.83,49-12.19,1.2-3.3,2.27-6.59,3.29-9.73.39-1.2,1.94-6.36,1.94-6.36s-18.07,14.56-54.23,15.56-88.38-7-112-4.51c-28.76,3.06-60.56,17.13-77.2,41.6-12.88,18.94-17.5,43.35-18.71,65.86-.27,5.05-.29,10.23-.12,15.33,0-.88.07-1.75.12-2.63,1.21-22.5,5.83-46.92,18.71-65.85"/></clipPath><mask id="mask-18" x="1.23" y="216.16" width="262.41" height="133.85" maskUnits="userSpaceOnUse"><g transform="translate(-190.93)"><g id="SVGID-18" data-name="SVGID"><g class="cls-19"><rect class="cls-20" x="192.16" y="216.16" width="262.41" height="133.85"/></g></g></g></mask><linearGradient id="Degradado_sin_nombre_40-18" x1="-108.2" y1="-461.43" x2="-107.2" y2="-461.43" gradientTransform="translate(28386.74 121341.17) scale(262.35)" xlink:href="#Degradado_sin_nombre_40"/><clipPath id="clip-path-42" transform="translate(-190.93)"><rect class="cls-2" x="236.62" y="282.17" width="97.74" height="185.9"/></clipPath><clipPath id="clip-path-43" transform="translate(-190.93)"><path class="cls-2" d="M244.81,356.42a122.26,122.26,0,0,0-8.19,43.12c-.16,24.33,8.41,46,31.41,56.71,19.18,8.88,45.17,15.81,66.33,9.21-19,2.44-40.35-3.7-56.69-11.28-23-10.66-31.58-32.38-31.42-56.71a121.82,121.82,0,0,1,8.2-43.12c6.44-16.78,16-30.58,26.68-44.87q10.19-13.65,20.81-26.94c.69-.87-2.12.08-2.35.13a64.77,64.77,0,0,0-7.66,2.43q-10.43,13-20.43,26.46c-10.63,14.27-20.24,28.08-26.69,44.86"/></clipPath><mask id="mask-19" x="45.53" y="281.67" width="97.9" height="190.38" maskUnits="userSpaceOnUse"><g transform="translate(-190.93)"><g id="SVGID-19" data-name="SVGID"><g class="cls-21"><rect class="cls-22" x="236.46" y="281.67" width="97.9" height="190.38"/></g></g></g></mask><linearGradient id="Degradado_sin_nombre_40-19" x1="-109.95" y1="-462.42" x2="-108.95" y2="-462.42" gradientTransform="translate(10792.62 45573.89) scale(97.74)" xlink:href="#Degradado_sin_nombre_40"/></defs><title>plan-silver-icon</title><g id="Capa_2" data-name="Capa 2"><g id="Capa_1-2" data-name="Capa 1"><g class="cls-36"><g class="cls-37"><rect class="cls-38" x="12.61" y="282.17" width="195.72" height="189.39"/></g></g><g class="cls-39"><g class="cls-40"><rect class="cls-41" x="18.1" y="85.42" width="291.85" height="170.33"/></g></g><g class="cls-42"><g class="cls-43"><rect class="cls-44" y="216.16" width="263.64" height="178.76"/></g></g><g class="cls-45"><g class="cls-46"><g class="cls-47"><g class="cls-48"><rect class="cls-49" x="148.06" y="342.22" width="60.28" height="111.97"/></g></g></g></g><g class="cls-50"><g class="cls-51"><rect class="cls-52" x="3.63" y="98.09" width="107.79" height="69.97"/></g></g><g class="cls-50"><g class="cls-51"><rect class="cls-53" x="3.63" y="98.09" width="107.79" height="69.97"/></g></g><g class="cls-54"><g class="cls-55"><rect class="cls-56" x="111.45" y="102.22" width="0.1" height="0.25"/></g></g><g class="cls-54"><g class="cls-55"><rect class="cls-57" x="111.45" y="102.22" width="0.1" height="0.25"/></g></g><g class="cls-58"><g class="cls-59"><rect class="cls-60" x="44.72" y="112.88" width="167.5" height="80.93"/></g></g><g class="cls-58"><g class="cls-59"><rect class="cls-61" x="44.72" y="112.88" width="167.5" height="80.93"/></g></g><g class="cls-62"><g class="cls-63"><rect class="cls-64" x="111.55" y="102.46" width="1.1" height="6.47"/></g></g><g class="cls-62"><g class="cls-63"><rect class="cls-65" x="111.55" y="102.46" width="1.1" height="6.47"/></g></g><g class="cls-66"><g class="cls-67"><rect class="cls-68" x="15" y="4.55" width="197.22" height="112.4"/></g></g><g class="cls-69"><g class="cls-70"><rect class="cls-71" x="28.68" y="104.86" width="83.96" height="109.85"/></g></g><g class="cls-72"><g class="cls-73"><rect class="cls-74" x="3.63" y="5.17" width="208.6" height="214.9"/></g></g><g class="cls-45"><g class="cls-75"><g class="cls-76"><g class="cls-77"><rect class="cls-78" x="20.18" y="85.42" width="289.56" height="161.33"/></g></g></g></g><g class="cls-45"><g class="cls-79"><g class="cls-80"><g class="cls-81"><rect class="cls-82" x="15" width="197.22" height="114.2"/></g></g></g></g><g class="cls-45"><g class="cls-83"><g class="cls-84"><g class="cls-85"><rect class="cls-86" x="1.23" y="216.16" width="262.41" height="133.85"/></g></g></g></g><g class="cls-45"><g class="cls-87"><g class="cls-88"><g class="cls-89"><rect class="cls-90" x="45.53" y="281.67" width="97.9" height="190.38"/></g></g></g></g></g></g></svg>