<svg xmlns="http://www.w3.org/2000/svg" xmlns:xlink="http://www.w3.org/1999/xlink" viewBox="0 0 473.58 435.58"><defs><style>.cls-1{fill:url(#Degradado_sin_nombre_112);}.cls-2{fill:url(#Degradado_sin_nombre_112-2);}.cls-3{fill:url(#Degradado_sin_nombre_112-3);}.cls-4{fill:#fff;}.cls-14,.cls-15,.cls-19,.cls-4{opacity:0.5;}.cls-14,.cls-19,.cls-4{isolation:isolate;}.cls-5{fill:#7c411e;}.cls-6{fill:url(#Degradado_sin_nombre_109);}.cls-7{fill:url(#Degradado_sin_nombre_109-2);}.cls-8{fill:url(#Degradado_sin_nombre_109-3);}.cls-9{fill:url(#Degradado_sin_nombre_109-4);}.cls-10{fill:url(#Degradado_sin_nombre_109-5);}.cls-11{fill:url(#Degradado_sin_nombre_111);}.cls-12{fill:url(#Degradado_sin_nombre_111-2);}.cls-13{fill:url(#Degradado_sin_nombre_112-4);}.cls-14{fill:url(#Degradado_sin_nombre_116);}.cls-16{fill:url(#Degradado_sin_nombre_116-2);}.cls-17{fill:url(#Degradado_sin_nombre_116-3);}.cls-18{fill:url(#Degradado_sin_nombre_116-4);}.cls-19{fill:url(#Degradado_sin_nombre_117);}</style><linearGradient id="Degradado_sin_nombre_112" x1="372.83" y1="89.3" x2="192.53" y2="89.3" gradientTransform="matrix(1, 0, 0, -1, 0, 436.17)" gradientUnits="userSpaceOnUse"><stop offset="0" stop-color="#a2682a"/><stop offset="0.08" stop-color="#be8c3c"/><stop offset="0.18" stop-color="#be8c3c"/><stop offset="0.27" stop-color="#d3b15f"/><stop offset="0.34" stop-color="#faf0a0"/><stop offset="0.41" stop-color="#ffffc2"/><stop offset="0.48" stop-color="#faf0a0"/><stop offset="0.59" stop-color="#d3b15f"/><stop offset="0.67" stop-color="#be8c3c"/><stop offset="0.77" stop-color="#b17b32"/><stop offset="0.83" stop-color="#bb8332"/><stop offset="0.88" stop-color="#d4a245"/><stop offset="0.93" stop-color="#e1b453"/><stop offset="1" stop-color="#a4692a"/></linearGradient><linearGradient id="Degradado_sin_nombre_112-2" x1="473.58" y1="283.56" x2="197.72" y2="283.56" xlink:href="#Degradado_sin_nombre_112"/><linearGradient id="Degradado_sin_nombre_112-3" x1="429.97" y1="155.91" x2="181.81" y2="155.91" xlink:href="#Degradado_sin_nombre_112"/><linearGradient id="Degradado_sin_nombre_109" x1="30.86" y1="315.19" x2="640.42" y2="315.19" gradientTransform="matrix(1, 0, 0, -1, 0, 436.17)" gradientUnits="userSpaceOnUse"><stop offset="0" stop-color="#35190b"/><stop offset="0.16" stop-color="#d0b075"/><stop offset="0.26" stop-color="#b3945c"/><stop offset="0.38" stop-color="#967742"/><stop offset="0.48" stop-color="#836533"/><stop offset="0.56" stop-color="#7d5f2d"/><stop offset="0.61" stop-color="#866835"/><stop offset="0.7" stop-color="#a0814b"/><stop offset="0.82" stop-color="#c8a96e"/><stop offset="0.84" stop-color="#d0b075"/><stop offset="1" stop-color="#7d5f2d"/></linearGradient><linearGradient id="Degradado_sin_nombre_109-2" x1="43.27" y1="348.12" x2="623.2" y2="348.12" xlink:href="#Degradado_sin_nombre_109"/><linearGradient id="Degradado_sin_nombre_109-3" x1="30.94" y1="250.4" x2="640.23" y2="250.4" xlink:href="#Degradado_sin_nombre_109"/><linearGradient id="Degradado_sin_nombre_109-4" x1="30.84" y1="296.01" x2="640.45" y2="296.01" xlink:href="#Degradado_sin_nombre_109"/><linearGradient id="Degradado_sin_nombre_109-5" x1="30.41" y1="344.94" x2="641.06" y2="344.94" xlink:href="#Degradado_sin_nombre_109"/><linearGradient id="Degradado_sin_nombre_111" x1="288.06" y1="75.1" x2="288.06" y2="703.12" gradientTransform="matrix(1, 0, 0, -1, 0, 436.17)" gradientUnits="userSpaceOnUse"><stop offset="0.21" stop-color="#2a0b00"/><stop offset="1" stop-color="#fffad4" stop-opacity="0"/></linearGradient><linearGradient id="Degradado_sin_nombre_111-2" x1="247.44" y1="75.09" x2="247.44" y2="703.12" xlink:href="#Degradado_sin_nombre_111"/><linearGradient id="Degradado_sin_nombre_112-4" x1="381.33" y1="334.54" x2="184.03" y2="334.54" xlink:href="#Degradado_sin_nombre_112"/><linearGradient id="Degradado_sin_nombre_116" x1="199.69" y1="287.81" x2="473.57" y2="287.81" gradientTransform="matrix(1, 0, 0, -1, 0, 436.17)" gradientUnits="userSpaceOnUse"><stop offset="0.61" stop-color="#fff"/><stop offset="1" stop-color="#fffad4" stop-opacity="0"/></linearGradient><linearGradient id="Degradado_sin_nombre_116-2" x1="194.79" y1="384.61" x2="381.34" y2="384.61" xlink:href="#Degradado_sin_nombre_116"/><linearGradient id="Degradado_sin_nombre_116-3" x1="0" y1="260.59" x2="0.38" y2="260.59" xlink:href="#Degradado_sin_nombre_116"/><linearGradient id="Degradado_sin_nombre_116-4" x1="181.81" y1="177.15" x2="429.97" y2="177.15" xlink:href="#Degradado_sin_nombre_116"/><linearGradient id="Degradado_sin_nombre_117" x1="223.81" y1="90.09" x2="316.26" y2="90.09" gradientTransform="matrix(1, 0, 0, -1, 0, 436.17)" gradientUnits="userSpaceOnUse"><stop offset="0" stop-color="#fff"/><stop offset="0.43" stop-color="#fffad4" stop-opacity="0"/></linearGradient></defs><title>plan-gold-icon</title><g id="Capa_2" data-name="Capa 2"><g id="Capa_1-2" data-name="Capa 1"><path class="cls-1" d="M340.7,316c-26-4-47.6,19-47.6,19,13.65-10.3,32.19-6.13,46.71-1.18,25.87,8.83,29.35,42.37,20,64.7-5.07,12.14-16.06,22.59-27.75,28.36-21,10.38-49.2,3.3-69.41-6.06-21.76-10.09-29.87-30.63-29.71-53.65a115.11,115.11,0,0,1,7.74-40.78C246.8,310.56,255.89,297.5,266,284q9.63-12.92,19.69-25.49c.64-.81-2,.08-2.23.13a82,82,0,0,0-14.16,5.19c-11,5-21.91,10.57-31.45,18.06-16.2,12.71-25.61,29.62-33,48.48-4.43,11.31-8.83,22.69-12.28,34.33,8.95,26.78,30.05,44.69,44.32,52.83s47.1,16.69,64.88,17.89,33.2-4,41.86-10.9,20.46-20.19,27.26-45.38S366.75,320,340.7,316Z"/><path class="cls-2" d="M440.26,94.65A156.06,156.06,0,0,1,401,105.51c-26.57,3.92-53.6,3.61-80.27,6.56-24.5,2.71-39,12.89-56.7,29.28a313.09,313.09,0,0,0-38.88,42.74c-9.4,12.65-25.93,33.13-27.4,49.08.27-3,8.4-8.28,14.74-12,16.35-13.46,38.19-21.39,58.44-23.54,22.33-2.38,71.72,5.21,105.92,4.26,21.15-.58,35.75-6.07,43.82-10.18,11.7-7.54,22.49-17.43,28.47-29.68,7-14.26,11.22-29.67,15.11-45,3.64-14.28,9.56-30.1,9.35-44.94C462.54,80.68,453.39,89,440.26,94.65Z"/><path class="cls-3" d="M272.74,206.17c-27.19,2.89-57.27,16.2-73,39.35-12.18,17.91-16.56,41-17.7,62.3-1.42,26.59,4.75,57,4.75,57,4-20,10.18-43.06,21.59-60.09,5.52-8.23,12.43-15.51,19.44-22.48,9.36-9.27,19.7-17.49,31.47-23.5,21.1-10.81,48-14.43,71.4-15.12a205.5,205.5,0,0,1,21.06.47c9.31.69,18.18,2.58,27.56,1.43a81.57,81.57,0,0,0,26.21-8c13.24-6.61,18.34-22.69,22.63-35.78.37-1.14,1.84-6,1.84-6s-17.1,13.78-51.3,14.72S295.07,203.79,272.74,206.17Z"/><path class="cls-4" d="M340.7,316.07a43.8,43.8,0,0,0-20.06,1.76,42,42,0,0,1,10.95.18c20.64,3.19,31.78,25.15,32.12,46.66a63.53,63.53,0,0,1-3,31.74c0,.09,0,.16-.07.24a63.93,63.93,0,0,1-4.9,12.73,87.73,87.73,0,0,1-7.65,11.12,4.22,4.22,0,0,1-.27.36c8-7.63,17.3-20.4,23.05-41.68C377.66,354,366.75,320.08,340.7,316.07Z"/><path class="cls-5" d="M245.46,118.61c-29.77,8.23-46.79,35.46-46.79,35.46L184,144.58l14.64,9.49s17-27.23,46.79-35.46S284.41,93,286,87.89C284.41,93,275.22,110.38,245.46,118.61Z"/><path class="cls-6" d="M245.46,118.61c-29.77,8.23-46.79,35.46-46.79,35.46L184,144.58l14.64,9.49s17-27.23,46.79-35.46S284.41,93,286,87.89C284.41,93,275.22,110.38,245.46,118.61Z"/><path class="cls-5" d="M286.11,88.17c0-.11-.08-.19-.09-.23S286.07,88.06,286.11,88.17Z"/><path class="cls-7" d="M286.11,88.17c0-.11-.08-.19-.09-.23S286.07,88.06,286.11,88.17Z"/><path class="cls-5" d="M222.9,178.44c-3.11,4.19-7,9.23-10.86,14.68C215.9,187.67,219.79,182.63,222.9,178.44Z"/><path class="cls-8" d="M222.9,178.44c-3.11,4.19-7,9.23-10.86,14.68C215.9,187.67,219.79,182.63,222.9,178.44Z"/><path class="cls-5" d="M318.48,106.42c-24.5,2.71-39,12.89-56.69,29.28a312,312,0,0,0-38.89,42.74,312,312,0,0,1,38.89-42.74c17.72-16.39,32.19-26.57,56.69-29.28,20.87-2.31,41.94-2.63,62.86-4.54C360.43,103.79,339.35,104.11,318.48,106.42Z"/><path class="cls-9" d="M318.48,106.42c-24.5,2.71-39,12.89-56.69,29.28a312,312,0,0,0-38.89,42.74,312,312,0,0,1,38.89-42.74c17.72-16.39,32.19-26.57,56.69-29.28,20.87-2.31,41.94-2.63,62.86-4.54C360.43,103.79,339.35,104.11,318.48,106.42Z"/><path class="cls-5" d="M286.11,88.17a16.73,16.73,0,0,1,1,6.13A16.73,16.73,0,0,0,286.11,88.17Z"/><path class="cls-10" d="M286.11,88.17a16.73,16.73,0,0,1,1,6.13A16.73,16.73,0,0,0,286.11,88.17Z"/><path class="cls-11" d="M291.69,2.08c26,7,49.72,26,64.28,44.33,11.5,14.5,21.61,43.77,25.36,55.48-3.75-11.71-13.86-41-25.36-55.48C341.41,28,317.66,9.05,291.69,2.08s-65.55,5.7-69,7-27.87,9.49-27.87,9.49h0s24.39-8.22,27.87-9.49S265.72-4.89,291.69,2.08Z"/><path class="cls-12" d="M269.84,122.73C284.32,111,287.15,100.6,287.15,94.3c0,6.3-2.83,16.66-17.31,28.43-23.75,19.31-39.9,37.05-48.13,50-5,7.82-10.27,17.94-14,25.44,3.71-7.5,9-17.62,14-25.44C229.94,159.78,246.09,142,269.84,122.73Z"/><path class="cls-13" d="M261.79,135.7c17.72-16.39,32.19-26.57,56.69-29.28,20.86-2.31,41.94-2.63,62.85-4.54-3.75-11.7-13.86-41-25.35-55.47C341.41,28,317.66,9.05,291.69,2.08s-65.55,5.7-69,7-27.86,9.49-27.87,9.49,18.8,20.79,18.53,54.15c-.18,20-7.21,44.57-29.29,71.89l14.64,9.5s17-27.24,46.79-35.47S284.41,93,286,87.89l0,0s.05.12.09.23a16.73,16.73,0,0,1,1,6.13c0,6.3-2.83,16.66-17.31,28.43-23.75,19.31-39.9,37.05-48.13,50-5,7.82-10.27,17.94-14,25.44-.93,1.88-1.76,3.6-2.45,5.07,2.12-3.46,4.43-6.88,6.76-10.16,3.86-5.44,7.75-10.49,10.86-14.67A312,312,0,0,1,261.79,135.7ZM237.17,68.17A10.27,10.27,0,1,1,247.44,57.9,10.27,10.27,0,0,1,237.17,68.17Z"/><path class="cls-14" d="M440.26,94.65A156.06,156.06,0,0,1,401,105.51c-26.57,3.92-53.6,3.61-80.27,6.56-24.5,2.71-39,12.89-56.7,29.28a313.09,313.09,0,0,0-38.88,42.74c-7.8,10.49-20.48,26.36-25.43,40.57,5.94-9.18,13.19-18,18.38-24.64a318.66,318.66,0,0,1,40.81-42.74c18.6-16.39,33.8-26.58,59.51-29.28,28-3,56.36-2.65,84.26-6.56a178.22,178.22,0,0,0,31.72-7.32c1.69-.76,3.36-1.53,5-2.35,3-1.47,6-3,8.86-4.78,5.88-4.18,11.53-8.55,15.84-14.48a83.43,83.43,0,0,0,6.28-10.27,28.83,28.83,0,0,0,2.42-5.41c.33-1.16.54-2.33.77-3.5,0-.42,0-.85,0-1.27C462.54,80.68,453.39,89,440.26,94.65Z"/><g class="cls-15"><path class="cls-16" d="M293.16,24.74c25.15,9.49,46.91,30.74,59.59,50.45,4.67,7.26,8.72,17.67,12,27.94,5.54-.35,11.08-.74,16.62-1.25-3.76-11.7-13.87-41-25.36-55.47C341.41,28,317.66,9.05,291.69,2.08s-65.55,5.7-69,7-27.87,9.49-27.87,9.49a66.21,66.21,0,0,1,7.67,11.32c7.7-1.78,19-4.41,21.32-5C227.37,23.94,268,15.24,293.16,24.74Z"/><path class="cls-17" d="M.13,175.78a4.07,4.07,0,0,1,.25-.39c-.14.1-.25.2-.38.3Z"/></g><g class="cls-15"><path class="cls-18" d="M199.72,257.55c15.75-23.16,45.82-36.47,73-39.35,22.33-2.39,71.73,5.22,105.93,4.27,23.57-.66,39-7.41,46.34-11.53,1.14-3.13,2.15-6.24,3.12-9.2.37-1.14,1.84-6,1.84-6s-17.1,13.78-51.3,14.72-83.6-6.65-105.93-4.27c-27.2,2.89-57.27,16.2-73,39.35-12.18,17.91-16.56,41-17.7,62.3-.25,4.78-.26,9.68-.11,14.5,0-.83.07-1.65.11-2.48C183.16,298.55,187.54,275.45,199.72,257.55Z"/></g><path class="cls-19" d="M231.57,328.39a115.38,115.38,0,0,0-7.75,40.78c-.16,23,8,43.56,29.71,53.64,18.14,8.41,42.73,15,62.73,8.72-18,2.31-38.16-3.5-53.62-10.67-21.76-10.09-29.87-30.63-29.71-53.65a114.94,114.94,0,0,1,7.75-40.78c6.09-15.87,15.18-28.93,25.24-42.44q9.61-12.92,19.68-25.49c.65-.81-2,.08-2.22.13a59.73,59.73,0,0,0-7.25,2.3q-9.87,12.35-19.32,25C246.75,299.46,237.66,312.52,231.57,328.39Z"/></g></g></svg>