<svg xmlns="http://www.w3.org/2000/svg" xmlns:xlink="http://www.w3.org/1999/xlink" viewBox="0 0 302 459.95"><defs><style>.cls-1{fill:none;}.cls-2{clip-path:url(#clip-path);}.cls-3{fill:url(#Degradado_sin_nombre_81);}.cls-4{clip-path:url(#clip-path-2);}.cls-5{fill:url(#Degradado_sin_nombre_81-2);}.cls-6{clip-path:url(#clip-path-3);}.cls-7{fill:url(#Degradado_sin_nombre_81-3);}.cls-8{opacity:0.5;}.cls-9{clip-path:url(#clip-path-4);}.cls-10{clip-path:url(#clip-path-5);}.cls-11{fill:url(#Degradado_sin_nombre_81-4);}.cls-12{clip-path:url(#clip-path-6);}.cls-13{fill:url(#Degradado_sin_nombre_81-5);}.cls-14{fill:url(#Degradado_sin_nombre_81-6);}.cls-15{clip-path:url(#clip-path-8);}.cls-16{fill:url(#Degradado_sin_nombre_81-7);}.cls-17{fill:url(#Degradado_sin_nombre_81-8);}.cls-18{clip-path:url(#clip-path-10);}.cls-19{fill:url(#Degradado_sin_nombre_81-9);}.cls-20{fill:url(#Degradado_sin_nombre_81-10);}.cls-21{clip-path:url(#clip-path-12);}.cls-22{fill:url(#Degradado_sin_nombre_81-11);}.cls-23{fill:url(#Degradado_sin_nombre_81-12);}.cls-24{clip-path:url(#clip-path-14);}.cls-25{fill:url(#Degradado_sin_nombre_81-13);}.cls-26{clip-path:url(#clip-path-15);}.cls-27{fill:url(#Degradado_sin_nombre_81-14);}.cls-28{clip-path:url(#clip-path-16);}.cls-29{fill:url(#Degradado_sin_nombre_81-15);}.cls-30{clip-path:url(#clip-path-17);}.cls-31{clip-path:url(#clip-path-18);}.cls-32{fill:url(#Degradado_sin_nombre_81-16);}.cls-33{clip-path:url(#clip-path-19);}.cls-34{clip-path:url(#clip-path-20);}.cls-35{fill:url(#Degradado_sin_nombre_81-17);}.cls-36{clip-path:url(#clip-path-21);}.cls-37{clip-path:url(#clip-path-22);}.cls-38{fill:url(#Degradado_sin_nombre_81-18);}.cls-39{clip-path:url(#clip-path-23);}.cls-40{clip-path:url(#clip-path-24);}.cls-41{fill:url(#Degradado_sin_nombre_81-19);}</style><clipPath id="clip-path" transform="translate(-186.03)"><path class="cls-1" d="M291.94,275.42a84.42,84.42,0,0,0-14.59,5.34c-11.35,5.16-22.57,10.89-32.4,18.61-16.68,13.09-26.37,30.52-34,49.94-4.57,11.65-9.09,23.37-12.65,35.36,9.22,27.58,31,46,45.66,54.42s48.52,17.19,66.83,18.43,34.19-4.11,43.12-11.23S375,425.49,382,399.55s-4.23-60.88-31.06-65-49,19.6-49,19.6c14.07-10.61,33.17-6.31,48.13-1.21,26.64,9.09,30.23,43.64,20.62,66.64-5.22,12.51-16.55,23.27-28.58,29.22-21.6,10.69-50.69,3.4-71.51-6.25C248.16,432.14,239.81,411,240,387.27a118.6,118.6,0,0,1,8-42c6.28-16.35,15.64-29.8,26-43.72q9.92-13.31,20.28-26.25c.21-.26.09-.36-.18-.36a10.71,10.71,0,0,0-2.11.49"/></clipPath><linearGradient id="Degradado_sin_nombre_81" x1="337.14" y1="-464.97" x2="338.14" y2="-464.97" gradientTransform="translate(62814.22 -85991.65) rotate(180) scale(185.73)" gradientUnits="userSpaceOnUse"><stop offset="0" stop-color="#feb598"/><stop offset="0" stop-color="#ffaa82"/><stop offset="0.23" stop-color="#fff9e2"/><stop offset="0.41" stop-color="#ffc5a0"/><stop offset="0.59" stop-color="#f08f66"/><stop offset="0.77" stop-color="#a03c2a"/><stop offset="1" stop-color="#f7966e"/></linearGradient><clipPath id="clip-path-2" transform="translate(-186.03)"><path class="cls-1" d="M453.51,106.5A160.57,160.57,0,0,1,413,117.69c-27.38,4-55.22,3.72-82.69,6.76-25.24,2.79-40.15,13.28-58.4,30.16a320.81,320.81,0,0,0-40,44c-9.69,13-26.71,34.13-28.23,50.55.28-3.05,8.65-8.53,15.18-12.41,16.84-13.87,39.34-22,60.2-24.25,12.38-1.32,32.85.34,54.61,2,18.65,1.42,38.24,2.85,54.5,2.39,21.78-.59,36.82-6.25,45.13-10.48,12-7.77,23.17-18,29.33-30.58,7.17-14.69,11.56-30.56,15.57-46.34,3.74-14.71,9.85-31,9.63-46.29-11.36,8.88-20.79,17.41-34.31,23.27"/></clipPath><linearGradient id="Degradado_sin_nombre_81-2" x1="336.62" y1="-465.26" x2="337.63" y2="-465.26" gradientTransform="translate(95956.53 -132040.94) rotate(180) scale(284.16)" xlink:href="#Degradado_sin_nombre_81"/><clipPath id="clip-path-3" transform="translate(-186.03)"><path class="cls-1" d="M390.07,225.78c-16.26.45-35.85-1-54.49-2.39-21.76-1.67-42.24-3.33-54.63-2-28,3-59,16.69-75.22,40.53-12.54,18.46-17,42.24-18.23,64.17-1.47,27.4,4.89,58.71,4.89,58.71,4.12-20.58,10.49-44.35,22.24-61.9,5.68-8.47,12.8-16,20-23.15,9.64-9.55,20.29-18,32.41-24.21,21.74-11.13,49.43-14.86,73.55-15.58a212.35,212.35,0,0,1,21.7.49c9.58.71,18.72,2.66,28.38,1.47a83.79,83.79,0,0,0,27-8.24c13.63-6.8,18.89-23.37,23.3-36.85.39-1.17,1.9-6.2,1.9-6.2s-17.62,14.19-52.84,15.16"/></clipPath><linearGradient id="Degradado_sin_nombre_81-3" x1="336.73" y1="-465.2" x2="337.73" y2="-465.2" gradientTransform="translate(86333.94 -118618.06) rotate(180) scale(255.62)" xlink:href="#Degradado_sin_nombre_81"/><clipPath id="clip-path-4" transform="translate(-186.03)"><rect class="cls-1" x="330.29" y="334.09" width="53.76" height="108.44"/></clipPath><clipPath id="clip-path-5" transform="translate(-186.03)"><path class="cls-1" d="M351,334.58a45.25,45.25,0,0,0-20.66,1.82,43.13,43.13,0,0,1,11.27.19c21.27,3.29,32.74,25.9,33.1,48.06a65.44,65.44,0,0,1-3.12,32.69,1.82,1.82,0,0,1-.07.25,65.69,65.69,0,0,1-5.05,13.11,91.57,91.57,0,0,1-7.87,11.46l-.28.37c8.22-7.86,17.82-21,23.74-42.94,7-25.94-4.23-60.87-31.06-65"/></clipPath><linearGradient id="Degradado_sin_nombre_81-4" x1="330.56" y1="-468.74" x2="331.56" y2="-468.74" gradientTransform="translate(-17627.05 25587.57) scale(53.76)" xlink:href="#Degradado_sin_nombre_81"/><clipPath id="clip-path-6" transform="translate(-186.03)"><path class="cls-1" d="M252.85,127.21c-30.67,8.48-48.2,36.53-48.2,36.53L189.57,154l15.08,9.78s17.53-28.05,48.2-36.53h0m0,0c30.12-8.33,39.78-25.79,41.65-31.35-1.87,5.56-11.53,23-41.65,31.35M294.5,95.86l.09-.29-.09.29"/></clipPath><linearGradient id="Degradado_sin_nombre_81-5" x1="333.05" y1="-467.31" x2="334.05" y2="-467.31" gradientTransform="translate(-34975.44 49208.86) scale(105.03)" xlink:href="#Degradado_sin_nombre_81"/><linearGradient id="Degradado_sin_nombre_81-6" x1="335.22" y1="-466.06" x2="336.22" y2="-466.06" gradientTransform="translate(-210643.37 292772.15) scale(627.91)" xlink:href="#Degradado_sin_nombre_81"/><clipPath id="clip-path-8" transform="translate(-186.03)"><path class="cls-1" d="M294.72,99.83c0-.11-.08-.19-.1-.24s.06.13.1.24"/></clipPath><linearGradient id="Degradado_sin_nombre_81-7" x1="-2418.11" y1="-2043.93" x2="-2417.11" y2="-2043.93" gradientTransform="translate(349.19 303.08) scale(0.1)" xlink:href="#Degradado_sin_nombre_81"/><linearGradient id="Degradado_sin_nombre_81-8" x1="335.63" y1="-466.07" x2="335.63" y2="-466.07" gradientTransform="translate(-204386.26 284069.94) scale(609.29)" xlink:href="#Degradado_sin_nombre_81"/><clipPath id="clip-path-10" transform="translate(-186.03)"><path class="cls-1" d="M229.61,188.84l.56-.75-.56.75m.56-.74a321.37,321.37,0,0,1,39.49-43.28,321.37,321.37,0,0,0-39.49,43.28m97.89-73.44c-25.23,2.78-40.14,13.27-58.4,30.16,18.26-16.89,33.17-27.38,58.4-30.16,21.5-2.38,43.21-2.72,64.75-4.68-21.54,2-43.25,2.3-64.75,4.68"/></clipPath><linearGradient id="Degradado_sin_nombre_81-9" x1="333.98" y1="-466.77" x2="334.98" y2="-466.77" gradientTransform="translate(-54462.72 76327.61) scale(163.2)" xlink:href="#Degradado_sin_nombre_81"/><linearGradient id="Degradado_sin_nombre_81-10" x1="335.22" y1="-466.06" x2="336.22" y2="-466.06" gradientTransform="translate(-210662.24 292818.46) scale(627.96)" xlink:href="#Degradado_sin_nombre_81"/><clipPath id="clip-path-12" transform="translate(-186.03)"><path class="cls-1" d="M295.79,106.14a17.21,17.21,0,0,0-1.07-6.31,17.21,17.21,0,0,1,1.07,6.31"/></clipPath><linearGradient id="Degradado_sin_nombre_81-11" x1="79.8" y1="-612.43" x2="80.8" y2="-612.43" gradientTransform="translate(23.23 758.84) scale(1.07)" xlink:href="#Degradado_sin_nombre_81"/><linearGradient id="Degradado_sin_nombre_81-12" x1="335.23" y1="-466.06" x2="336.23" y2="-466.06" gradientTransform="translate(-211136.05 293428.38) scale(629.37)" xlink:href="#Degradado_sin_nombre_81"/><clipPath id="clip-path-14" transform="translate(-186.03)"><path class="cls-1" d="M200.65,28.11s25-8.45,28.69-9.78c-3.66,1.33-28.69,9.78-28.69,9.78m28.71-9.79h0l.25-.09-.25.09m.25-.09h0m0,0h0m0,0h0m0,0,0,0,0,0m0,0c5.44-1.87,44.72-14,70.74-7,26.74,7.17,51.21,26.74,66.22,45.67,11.84,14.92,22.25,45.08,26.12,57.14-3.87-12.06-14.28-42.22-26.12-57.14-15-18.93-39.48-38.5-66.22-45.68A72.85,72.85,0,0,0,281.93,9c-23.08,0-48,7.73-52.2,9.19"/></clipPath><linearGradient id="Degradado_sin_nombre_81-13" x1="335.9" y1="-466.24" x2="336.9" y2="-466.24" gradientTransform="translate(301728.77 217684.34) rotate(-90) scale(646.92)" xlink:href="#Degradado_sin_nombre_81"/><clipPath id="clip-path-15" transform="translate(-186.03)"><path class="cls-1" d="M214,209.2c3.78-7.63,9.16-17.91,14.22-25.93-5.06,8-10.44,18.29-14.22,25.93m64-77.75c-24.47,19.9-41.1,38.16-49.58,51.54l-.18.28.18-.28c8.48-13.38,25.11-31.64,49.58-51.54,14.91-12.13,17.83-22.79,17.83-29.28,0,6.49-2.92,17.15-17.83,29.28"/></clipPath><linearGradient id="Degradado_sin_nombre_81-14" x1="335.9" y1="-466.24" x2="336.9" y2="-466.24" gradientTransform="translate(301692.41 217684.31) rotate(-90) scale(646.93)" xlink:href="#Degradado_sin_nombre_81"/><clipPath id="clip-path-16" transform="translate(-186.03)"><path class="cls-1" d="M233.73,64.68a10.58,10.58,0,1,1,10.58,10.58,10.58,10.58,0,0,1-10.58-10.58m-4.37-50.33c-3.58,1.31-28.7,9.78-28.71,9.78S220,45.55,219.74,79.91c-.18,20.63-7.43,45.91-30.17,74.05l15.08,9.78s17.53-28.05,48.2-36.53S293,100.79,294.59,95.57a.14.14,0,0,1,0,.05,1.73,1.73,0,0,1,.1.24,17.16,17.16,0,0,1,1.07,6.31c0,6.49-2.92,17.15-17.83,29.28-24.46,19.9-41.1,38.16-49.58,51.54-5.11,8.06-10.57,18.48-14.4,26.21-.95,1.93-1.81,3.7-2.53,5.22,2.2-3.57,4.58-7.09,7-10.46,4-5.61,8-10.81,11.19-15.12a322,322,0,0,1,40.05-44c18.26-16.89,33.17-27.38,58.4-30.16,21.5-2.38,43.21-2.72,64.75-4.68-3.87-12-14.28-42.21-26.12-57.14-15-18.92-39.48-38.49-66.22-45.66A72,72,0,0,0,281.92,5c-23.91,0-49.74,8.29-52.56,9.32"/></clipPath><linearGradient id="Degradado_sin_nombre_81-15" x1="337.01" y1="-465.04" x2="338.01" y2="-465.04" gradientTransform="translate(68702.67 -94407.84) rotate(180) scale(203.25)" xlink:href="#Degradado_sin_nombre_81"/><clipPath id="clip-path-17" transform="translate(-186.03)"><rect class="cls-1" x="205.7" y="83.23" width="282.12" height="157.19"/></clipPath><clipPath id="clip-path-18" transform="translate(-186.03)"><path class="cls-1" d="M453.51,106.5A160.57,160.57,0,0,1,413,117.69c-27.38,4-55.22,3.72-82.69,6.76-25.24,2.79-40.15,13.28-58.4,30.16a320.81,320.81,0,0,0-40,44c-8,10.8-21.11,27.14-26.2,41.79,6.12-9.46,13.59-18.54,18.93-25.39a328.53,328.53,0,0,1,42-44c19.16-16.88,34.81-27.38,61.3-30.16,28.85-3,58.06-2.73,86.79-6.76a183.35,183.35,0,0,0,32.68-7.54c1.74-.78,3.46-1.58,5.18-2.42,3.1-1.51,6.17-3.12,9.12-4.92,6.05-4.31,11.87-8.81,16.31-14.92a84.08,84.08,0,0,0,6.47-10.58,29.92,29.92,0,0,0,2.5-5.57c.34-1.19.55-2.4.79-3.61,0-.43,0-.87,0-1.31-11.36,8.88-20.79,17.41-34.31,23.27"/></clipPath><linearGradient id="Degradado_sin_nombre_81-16" x1="334.69" y1="-466.37" x2="335.69" y2="-466.37" gradientTransform="translate(-94404.3 131735.49) scale(282.12)" xlink:href="#Degradado_sin_nombre_81"/><clipPath id="clip-path-19" transform="translate(-186.03)"><rect class="cls-1" y="5.03" width="392.81" height="181.06"/></clipPath><clipPath id="clip-path-20" transform="translate(-186.03)"><path class="cls-1" d="M302,30.51c25.91,9.78,48.33,31.67,61.39,52,4.8,7.47,9,18.19,12.32,28.78,5.71-.36,11.42-.77,17.12-1.29-3.87-12-14.28-42.21-26.12-57.14-15-18.92-39.48-38.49-66.22-45.66S233,13.05,229.36,14.35s-28.71,9.79-28.71,9.79a67.67,67.67,0,0,1,7.9,11.65c7.93-1.83,19.57-4.54,22-5.15,3.7-.94,45.56-9.91,71.47-.13"/></clipPath><linearGradient id="Degradado_sin_nombre_81-17" x1="334.24" y1="-466.64" x2="335.23" y2="-466.64" gradientTransform="translate(-64211.58 89725.09) scale(192.16)" xlink:href="#Degradado_sin_nombre_81"/><clipPath id="clip-path-21" transform="translate(-186.03)"><rect class="cls-1" x="187.28" y="210.61" width="255.62" height="130.41"/></clipPath><clipPath id="clip-path-22" transform="translate(-186.03)"><path class="cls-1" d="M205.73,274.3c16.22-23.86,47.2-37.56,75.22-40.53,23-2.46,73.88,5.38,109.11,4.4,24.28-.68,40.2-7.63,47.74-11.88,1.17-3.22,2.21-6.42,3.21-9.48.39-1.17,1.89-6.2,1.89-6.2s-17.61,14.2-52.84,15.17S304,218.93,281,221.38c-28,3-59,16.69-75.22,40.53-12.55,18.46-17,42.24-18.23,64.17-.26,4.93-.27,10-.12,14.95,0-.86.07-1.71.12-2.57,1.18-21.92,5.69-45.72,18.23-64.16"/></clipPath><linearGradient id="Degradado_sin_nombre_81-18" x1="334.59" y1="-466.43" x2="335.59" y2="-466.43" gradientTransform="translate(-85527.54 119505.36) scale(255.62)" xlink:href="#Degradado_sin_nombre_81"/><clipPath id="clip-path-23" transform="translate(-186.03)"><rect class="cls-1" x="230.55" y="274.93" width="95.23" height="181.13"/></clipPath><clipPath id="clip-path-24" transform="translate(-186.03)"><path class="cls-1" d="M238.53,347.27a119.1,119.1,0,0,0-8,42c-.16,23.7,8.2,44.86,30.61,55.25,18.68,8.66,44,15.41,64.62,9-18.55,2.38-39.31-3.61-55.24-11-22.41-10.39-30.76-31.56-30.6-55.26a118.82,118.82,0,0,1,8-42c6.27-16.35,15.63-29.8,26-43.72q9.91-13.31,20.27-26.25c.68-.84-2.06.08-2.28.13a62.77,62.77,0,0,0-7.47,2.36q-10.15,12.72-19.9,25.79c-10.36,13.9-19.72,27.36-26,43.7"/></clipPath><linearGradient id="Degradado_sin_nombre_81-19" x1="332.78" y1="-467.44" x2="333.78" y2="-467.44" gradientTransform="translate(-31647.4 44883) scale(95.23)" xlink:href="#Degradado_sin_nombre_81"/></defs><title>plan-bronce-icon</title><g id="Capa_2" data-name="Capa 2"><g id="Capa_1-2" data-name="Capa 1"><g class="cls-2"><rect class="cls-3" x="12.29" y="274.93" width="190.7" height="184.53"/></g><g class="cls-4"><rect class="cls-5" x="17.64" y="83.23" width="284.37" height="165.96"/></g><g class="cls-6"><rect class="cls-7" y="210.61" width="256.87" height="174.17"/></g><g class="cls-8"><g class="cls-9"><g class="cls-10"><rect class="cls-11" x="144.26" y="333.44" width="58.73" height="109.1"/></g></g></g><g class="cls-12"><rect class="cls-13" x="3.53" y="95.57" width="105.03" height="68.17"/></g><g class="cls-12"><rect class="cls-14" x="3.53" y="95.57" width="105.03" height="68.17"/></g><g class="cls-15"><rect class="cls-16" x="108.59" y="99.59" width="0.1" height="0.24"/></g><g class="cls-15"><rect class="cls-17" x="108.59" y="99.59" width="0.1" height="0.24"/></g><g class="cls-18"><rect class="cls-19" x="43.58" y="109.98" width="163.2" height="78.86"/></g><g class="cls-18"><rect class="cls-20" x="43.58" y="109.98" width="163.2" height="78.86"/></g><g class="cls-21"><rect class="cls-22" x="108.69" y="99.83" width="1.07" height="6.31"/></g><g class="cls-21"><rect class="cls-23" x="108.69" y="99.83" width="1.07" height="6.31"/></g><g class="cls-24"><rect class="cls-25" x="14.62" y="4.17" width="192.16" height="109.79"/></g><g class="cls-26"><rect class="cls-27" x="27.95" y="102.17" width="81.81" height="107.03"/></g><g class="cls-28"><rect class="cls-29" x="3.53" y="5.03" width="203.25" height="209.39"/></g><g class="cls-8"><g class="cls-30"><g class="cls-31"><rect class="cls-32" x="19.67" y="83.23" width="282.13" height="157.2"/></g></g></g><g class="cls-8"><g class="cls-33"><g class="cls-34"><rect class="cls-35" x="14.62" width="192.16" height="111.27"/></g></g></g><g class="cls-8"><g class="cls-36"><g class="cls-37"><rect class="cls-38" x="1.19" y="210.61" width="255.68" height="130.41"/></g></g></g><g class="cls-8"><g class="cls-39"><g class="cls-40"><rect class="cls-41" x="44.36" y="274.45" width="95.39" height="185.5"/></g></g></g></g></g></svg>